<svg xmlns="http://www.w3.org/2000/svg" viewBox="0 0 390 600" width="390" height="600">  <defs><clipPath id="nyt-ct0"><rect x="20" y="70.5" width="111.9" height="13" /></clipPath><clipPath id="nyt-ct1"><rect x="194.3" y="61" width="175.7" height="32" /></clipPath><clipPath id="nyt-cp2"><rect x="-4" y="102" width="398" height="12896.1"/></clipPath><clipPath id="nyt-ov3"><rect x="0" y="106" width="390" height="12888.1" rx="0"  /></clipPath><clipPath id="nyt-cp4"><rect x="-4" y="102" width="398" height="5296.3"/></clipPath><clipPath id="nyt-ov5"><rect x="0" y="106" width="390" height="5288.3" rx="0"  /></clipPath><clipPath id="nyt-cp6"><rect x="-4" y="122" width="398" height="852.7"/></clipPath><clipPath id="nyt-ov7"><rect x="0" y="126" width="390" height="844.7" rx="0"  /></clipPath><clipPath id="nyt-ct8"><rect x="20" y="126" width="350" height="100.8" /></clipPath><clipPath id="nyt-ct9"><rect x="20" y="234.8" width="350" height="88" /></clipPath><clipPath id="nyt-ct10"><rect x="20" y="330.8" width="69" height="13.8" /></clipPath><clipPath id="nyt-cp11"><rect x="16" y="356.5" width="358" height="358"/></clipPath><clipPath id="nyt-cp12"><rect x="100.5" y="13" width="188.9" height="25.7"/></clipPath><clipPath id="nyt-cp13"><rect x="19" y="16" width="16" height="16"/></clipPath><clipPath id="nyt-cp14"><rect x="352" y="12" width="24" height="24"/></clipPath><path id="nyt-g0" d="M438 0H151V1474H599L867 315L1133 1474H1576V0H1289V997Q1289 1040 1290 1117.5Q1291 1195 1291 1237L1012 0H713L436 1237Q436 1195 437 1117.5Q438 1040 438 997Z"/><path id="nyt-g1" d="M1042 952Q1180 779 1180 543Q1180 303 1042 132.5Q904 -38 623 -38Q342 -38 204 132.5Q66 303 66 543Q66 779 204 952Q342 1125 623 1125Q904 1125 1042 952ZM622 884Q497 884 429.5 795.5Q362 707 362 543Q362 379 429.5 290Q497 201 622 201Q747 201 814 290Q881 379 881 543Q881 707 814 795.5Q747 884 622 884Z"/><path id="nyt-g2" d="M646 879Q501 879 447 756Q419 691 419 590V0H135V1088H410V929Q465 1013 514 1050Q602 1116 737 1116Q906 1116 1013.5 1027.5Q1121 939 1121 734V0H829V663Q829 749 806 795Q764 879 646 879Z"/><path id="nyt-g3" d="M1125 1472V0H848V151Q787 54 709 10Q631 -34 515 -34Q324 -34 193.5 120.5Q63 275 63 517Q63 796 191.5 956Q320 1116 535 1116Q634 1116 711 1072.5Q788 1029 836 952V1472ZM357 538Q357 387 417 297Q476 206 597 206Q718 206 781 296Q844 386 844 529Q844 729 743 815Q681 867 599 867Q474 867 415.5 772.5Q357 678 357 538Z"/><path id="nyt-g4" d="M174 972Q287 1116 562 1116Q741 1116 880 1045Q1019 974 1019 777V277Q1019 225 1021 151Q1024 95 1038 75Q1052 55 1080 42V0H770Q757 33 752 62Q747 91 744 128Q685 64 608 19Q516 -34 400 -34Q252 -34 155.5 50.5Q59 135 59 290Q59 491 214 581Q299 630 464 651L561 663Q640 673 674 688Q735 714 735 769Q735 836 688.5 861.5Q642 887 552 887Q451 887 409 837Q379 800 369 737H94Q103 880 174 972ZM386 206Q426 173 484 173Q576 173 653.5 227Q731 281 734 424V530Q707 513 679.5 502.5Q652 492 604 483L540 471Q450 455 411 432Q345 393 345 311Q345 238 386 206Z"/><path id="nyt-g5" d="M576 286L801 1090H1104L730 18Q622 -292 559 -366.5Q496 -441 307 -441Q269 -441 246 -440.5Q223 -440 177 -437V-209L213 -211Q255 -213 293 -208Q331 -203 357 -185Q382 -168 403.5 -114Q425 -60 421 -48L21 1090H338Z"/><path id="nyt-g6" d="M408 -102Q390 -176 341 -230Q288 -288 216.5 -317.5Q145 -347 118 -347V-237Q204 -213 244.5 -157Q285 -101 291 0H118V298H426V40Q426 -28 408 -102Z"/><path id="nyt-g7" d="M775 0H483V1000H142V1194Q277 1200 331 1212Q417 1231 471 1288Q508 1327 527 1392Q538 1431 538 1450H775Z"/><path id="nyt-g8" d="M179 91Q54 219 54 402Q54 524 109.5 623Q165 722 272 772Q167 842 135.5 923.5Q104 1005 104 1076Q104 1234 223 1345.5Q342 1457 559 1457Q776 1457 895 1345.5Q1014 1234 1014 1076Q1014 1005 982.5 923.5Q951 842 846 782Q953 722 1007 623Q1061 524 1061 402Q1061 219 925.5 90.5Q790 -38 547 -38Q304 -38 179 91ZM350 421Q350 314 405.5 255Q461 196 559 196Q657 196 712.5 255Q768 314 768 421Q768 532 711.5 589.5Q655 647 559 647Q463 647 406.5 589.5Q350 532 350 421ZM425 915Q473 865 559 865Q646 865 693.5 915Q741 965 741 1044Q741 1130 693.5 1178.5Q646 1227 559 1227Q473 1227 424.5 1178.5Q376 1130 376 1044Q376 965 425 915Z"/><path id="nyt-g9" d="M712 1155Q661 1216 566 1216Q436 1216 389 1119Q362 1063 357 941H80Q87 1126 147 1240Q261 1457 552 1457Q782 1457 918 1329.5Q1054 1202 1054 992Q1054 831 958 706Q895 623 751 521L637 440Q530 364 490.5 330Q451 296 424 251H1057V0H64Q68 156 131 285Q192 430 419 592Q616 733 674 794Q763 889 763 1002Q763 1094 712 1155Z"/><path id="nyt-g10" d="M564 -36Q287 -36 175.5 158Q64 352 64 711Q64 1070 175.5 1265Q287 1460 564 1460Q841 1460 953 1265Q1064 1070 1064 711Q1064 352 952.5 158Q841 -36 564 -36ZM731 329Q770 461 770 711Q770 973 730.5 1099Q691 1225 564 1225Q437 1225 396 1099Q355 973 355 711Q355 461 396 328.5Q437 196 564 196Q691 196 731 329Z"/><path id="nyt-g11" d="M626 941Q819 941 942.5 810Q1066 679 1066 475Q1066 272 945 117Q824 -38 569 -38Q295 -38 165 191Q64 370 64 653Q64 819 78 923Q103 1108 175 1231Q237 1336 337.5 1400Q438 1464 578 1464Q780 1464 900 1360.5Q1020 1257 1035 1085H751Q751 1120 724 1162Q678 1230 585 1230Q446 1230 387 1074Q355 988 343 820Q396 883 466 912Q536 941 626 941ZM434 669Q350 604 350 459Q350 342 413 268Q476 194 573 194Q668 194 722.5 265.5Q777 337 777 451Q777 578 715 645.5Q653 713 563 713Q490 713 434 669Z"/><path id="nyt-g12" d="M691 213Q800 213 868 237Q997 283 997 408Q997 481 933 521Q869 560 732 590L576 625Q346 677 258 738Q109 840 109 1057Q109 1255 253 1386Q397 1517 676 1517Q909 1517 1073.5 1393.5Q1238 1270 1246 1035H950Q942 1168 834 1224Q762 1261 655 1261Q536 1261 465 1213Q394 1165 394 1079Q394 1000 464 961Q509 935 656 900L910 839Q1077 799 1162 732Q1294 628 1294 431Q1294 229 1139.5 95.5Q985 -38 703 -38Q415 -38 250 93.5Q85 225 85 455H379Q393 354 434 304Q509 213 691 213Z"/><path id="nyt-g13" d="M832 154Q828 149 812 124Q796 99 774 80Q707 20 644.5 -2Q582 -24 498 -24Q256 -24 172 150Q125 246 125 433V1090H417V433Q417 340 439 293Q478 210 592 210Q738 210 792 328Q820 392 820 497V1090H1109V0H832Z"/><path id="nyt-g14" d="M725 -29Q590 -29 508 25Q459 57 402 137V0H123V1472H407V948Q461 1024 526 1064Q603 1114 722 1114Q937 1114 1058.5 959Q1180 804 1180 559Q1180 305 1060 138Q940 -29 725 -29ZM881 529Q881 645 851 721Q794 865 641 865Q486 865 428 724Q398 649 398 530Q398 390 460 298Q522 206 649 206Q759 206 820 295Q881 384 881 529Z"/><path id="nyt-g15" d="M884 1040Q1012 958 1031 758H746Q740 813 715 845Q668 903 555 903Q462 903 422.5 874Q383 845 383 806Q383 757 425 735Q467 712 722 656Q892 616 977 535Q1061 453 1061 330Q1061 168 940.5 65.5Q820 -37 568 -37Q311 -37 188.5 71.5Q66 180 66 348H355Q364 272 394 240Q447 183 590 183Q674 183 723.5 208Q773 233 773 283Q773 331 733 356Q693 381 436 442Q251 488 175 557Q99 625 99 753Q99 904 217.5 1012.5Q336 1121 551 1121Q755 1121 884 1040Z"/><path id="nyt-g16" d="M1076 699H784Q776 760 743 809Q695 875 594 875Q450 875 397 732Q369 656 369 530Q369 410 397 337Q448 201 589 201Q689 201 731 255Q773 309 782 395H1073Q1063 265 979 149Q845 -38 582 -38Q319 -38 195 118Q71 274 71 523Q71 804 208 960Q345 1116 586 1116Q791 1116 921.5 1024Q1052 932 1076 699Z"/><path id="nyt-g17" d="M681 827Q509 827 450 715Q417 652 417 521V0H130V1090H402V900Q468 1009 517 1049Q597 1116 725 1116Q733 1116 738.5 1115.5Q744 1115 763 1114V822Q736 825 715 826Q694 827 681 827Z"/><path id="nyt-g18" d="M426 1090V0H137V1090ZM426 1483V1220H137V1483Z"/><path id="nyt-g19" d="M1066 320Q1055 223 965 123Q825 -36 573 -36Q365 -36 206 98Q47 232 47 534Q47 817 190.5 968Q334 1119 563 1119Q699 1119 808 1068Q917 1017 988 907Q1052 810 1071 682Q1082 607 1080 466H334Q340 302 437 236Q496 195 579 195Q667 195 722 245Q752 272 775 320ZM784 654Q777 767 715.5 825.5Q654 884 563 884Q464 884 409.5 822Q355 760 341 654Z"/><path id="nyt-g20" d="M644 1483V1251Q620 1254 563.5 1255.5Q507 1257 485.5 1230.5Q464 1204 464 1172V1080H651V879H464V0H180V879H21V1080H177V1150Q177 1325 236 1391Q298 1489 535 1489Q562 1489 584 1487.5Q606 1486 644 1483Z"/><path id="nyt-g21" d="M1042 952Q1180 779 1180 543Q1180 303 1042 132.5Q904 -38 623 -38Q342 -38 204 132.5Q66 303 66 543Q66 779 204 952Q342 1125 623 1125Q904 1125 1042 952ZM622 884Q497 884 429.5 795.5Q362 707 362 543Q362 379 429.5 290Q497 201 622 201Q747 201 814 290Q881 379 881 543Q881 707 814 795.5Q747 884 622 884Z"/><path id="nyt-g22" d="M440 635Q249 691 170.5 791Q92 891 92 1032Q92 1125 122.5 1201Q153 1277 208 1332Q279 1403 366 1430Q419 1447 521 1455V1588H616V1453Q779 1440 872 1373Q1041 1266 1047 1026H784Q776 1115 754 1156Q716 1227 616 1234V853Q854 771 936 708Q1071 603 1071 412Q1071 160 886 46Q773 -24 618 -36V-237H521V-38Q324 -16 227 48Q56 163 59 440H329Q343 314 368 271Q407 204 521 184V611ZM616 578V187Q695 197 731 223Q794 269 794 382Q794 468 735 518Q700 547 616 578ZM521 881V1232Q434 1230 392 1185.5Q350 1141 350 1064Q350 980 413 931Q448 904 521 881Z"/><path id="nyt-g23" d="M564 -36Q287 -36 175.5 158Q64 352 64 711Q64 1070 175.5 1265Q287 1460 564 1460Q841 1460 953 1265Q1064 1070 1064 711Q1064 352 952.5 158Q841 -36 564 -36ZM731 329Q770 461 770 711Q770 973 730.5 1099Q691 1225 564 1225Q437 1225 396 1099Q355 973 355 711Q355 461 396 328.5Q437 196 564 196Q691 196 731 329Z"/><path id="nyt-g24" d="M128 298H431V0H128Z"/><path id="nyt-g25" d="M712 1155Q661 1216 566 1216Q436 1216 389 1119Q362 1063 357 941H80Q87 1126 147 1240Q261 1457 552 1457Q782 1457 918 1329.5Q1054 1202 1054 992Q1054 831 958 706Q895 623 751 521L637 440Q530 364 490.5 330Q451 296 424 251H1057V0H64Q68 156 131 285Q192 430 419 592Q616 733 674 794Q763 889 763 1002Q763 1094 712 1155Z"/><path id="nyt-g26" d="M546 720Q494 720 456 707Q389 683 355 618L99 630L201 1431H1000V1189H407L355 872Q421 915 458 929Q520 952 609 952Q789 952 923 831Q1057 710 1057 479Q1057 278 928 120Q799 -38 542 -38Q335 -38 202 73Q69 184 54 388H338Q355 295 403 244.5Q451 194 543 194Q649 194 704.5 268.5Q760 343 760 456Q760 567 708 643.5Q656 720 546 720Z"/><path id="nyt-g27" d="M-112 0L459 1519H696L123 0Z"/><path id="nyt-g28" d="M960 0L789 794L616 0H320L14 1090H320L490 308L647 1090H936L1102 305L1272 1090H1569L1253 0Z"/><path id="nyt-g29" d="M1133 0H789L528 466L410 343V0H130V1469H410V675L765 1085H1118L737 668Z"/><path id="nyt-g30" d="M1388 1013H1311Q1280 1104 1211.5 1208Q1143 1312 1085 1320Q1053 1324 1006 1327Q959 1330 925 1330H878V217Q878 181 891 153.5Q904 126 942 110Q965 101 1013.5 91.5Q1062 82 1096 78V0H305V78Q334 81 386.5 86.5Q439 92 458 100Q497 116 510 143Q523 170 523 207V1330H476Q442 1330 395 1327Q348 1324 316 1320Q258 1312 189.5 1208Q121 1104 90 1013H13V1419H1388Z"/><path id="nyt-g31" d="M1358 0H756V73Q776 75 803 78Q830 81 843 88Q864 99 872.5 120Q881 141 881 182V650Q881 753 842.5 804Q804 855 733 855Q693 855 658.5 843Q624 831 591 808Q562 788 544.5 767Q527 746 515 730V193Q515 156 524 134.5Q533 113 558 99Q573 90 597.5 83Q622 76 645 73V0H37V73Q63 75 87.5 78Q112 81 131 88Q163 100 174.5 122.5Q186 145 186 182V1297Q186 1329 171 1365Q156 1401 129 1419Q109 1432 71 1439.5Q33 1447 3 1449V1522L500 1548L515 1532V844H519Q557 878 587.5 905.5Q618 933 662 961Q699 985 758.5 1002Q818 1019 887 1019Q1049 1019 1130.5 926Q1212 833 1212 681V191Q1212 154 1223 132Q1234 110 1264 97Q1282 89 1304 83Q1326 77 1358 73Z"/><path id="nyt-g32" d="M1133 239Q1098 182 1048.5 131.5Q999 81 936 45Q869 7 800.5 -12.5Q732 -32 643 -32Q495 -32 387.5 10Q280 52 210 123Q140 194 105.5 290.5Q71 387 71 500Q71 602 108.5 695.5Q146 789 215 862Q283 933 386.5 977Q490 1021 618 1021Q758 1021 848 987Q938 953 997 893Q1054 836 1080 758.5Q1106 681 1106 596V531H430Q430 326 509 219Q588 112 760 112Q854 112 929 163.5Q1004 215 1057 294ZM751 619Q751 679 745 742Q739 805 724 845Q707 892 677.5 916Q648 940 603 940Q526 940 480 862Q434 784 430 615Z"/><path id="nyt-g33" d="M2345 1339Q2314 1336 2283 1325.5Q2252 1315 2222 1299Q2176 1273 2156.5 1242Q2137 1211 2121 1167Q2066 1015 1951.5 680Q1837 345 1713 -16H1512L1137 1039L799 -16H598Q431 470 342 732.5Q253 995 192 1173Q173 1227 149 1251.5Q125 1276 87 1301Q60 1319 29.5 1327.5Q-1 1336 -41 1341V1419H716V1343Q649 1335 616 1327.5Q583 1320 564 1312Q546 1304 542 1295Q538 1286 538 1279Q538 1265 541.5 1252Q545 1239 549 1222Q573 1144 646 926Q719 708 826 385L1149 1419H1361L1736 353Q1819 610 1868.5 773Q1918 936 1952 1052Q1972 1123 1984 1171Q1996 1219 1996 1254Q1996 1275 1976.5 1290Q1957 1305 1924 1316Q1896 1325 1851.5 1330.5Q1807 1336 1774 1339V1419H2345Z"/><path id="nyt-g34" d="M1201 21Q1157 2 1097 -14Q1037 -30 970 -30Q847 -30 789 6.5Q731 43 710 111H704Q670 77 638.5 53Q607 29 571 12Q524 -10 480.5 -20.5Q437 -31 359 -31Q243 -31 161 37.5Q79 106 79 219Q79 284 97 329.5Q115 375 148 410Q178 442 217.5 463Q257 484 304 502Q394 535 520 570.5Q646 606 704 634V730Q704 755 700 796Q696 837 683 865Q669 897 639 919Q609 941 560 941Q516 941 486.5 928.5Q457 916 439 903Q442 883 456 842Q470 801 470 763Q470 746 461 720.5Q452 695 435 680Q412 660 383.5 649Q355 638 296 638Q212 638 169 678.5Q126 719 126 784Q126 840 170.5 884.5Q215 929 279 958Q342 988 424 1004.5Q506 1021 576 1021Q673 1021 754 1009.5Q835 998 900 962Q962 927 998.5 860.5Q1035 794 1035 687Q1035 574 1030.5 419Q1026 264 1026 215Q1026 170 1039.5 144Q1053 118 1081 105Q1098 97 1134.5 95.5Q1171 94 1201 94ZM704 542Q648 523 593 498.5Q538 474 503 447Q466 419 445 375.5Q424 332 424 273Q424 195 459.5 160Q495 125 547 125Q602 125 637.5 147.5Q673 170 700 203Z"/><path id="nyt-g35" d="M1054 809Q1054 733 1007 675.5Q960 618 883 618Q810 618 759.5 655Q709 692 709 764Q709 799 714 818.5Q719 838 723 855Q677 853 626 823Q575 793 536 743V194Q536 159 547 136Q558 113 584 100Q606 89 655.5 81.5Q705 74 727 73V0H58V73Q83 75 108.5 78.5Q134 82 152 88Q184 99 196 122Q208 145 208 182V764Q208 800 191 828.5Q174 857 150 874Q132 886 104.5 894Q77 902 44 905V978L521 1004L536 989V844H540Q609 924 686.5 969.5Q764 1015 848 1015Q941 1015 997.5 957.5Q1054 900 1054 809Z"/><path id="nyt-g36" d="M690 0H58V73Q84 75 109 78Q134 81 152 88Q184 100 197 122.5Q210 145 210 182V764Q210 799 194 825.5Q178 852 154 868Q136 880 99.5 891Q63 902 33 905V978L523 1004L538 989V195Q538 160 553 135.5Q568 111 596 99Q616 90 640 83Q664 76 690 73ZM544 1364Q544 1288 485.5 1234.5Q427 1181 347 1181Q266 1181 207.5 1234.5Q149 1288 149 1364Q149 1440 207.5 1494Q266 1548 347 1548Q428 1548 486 1494Q544 1440 544 1364Z"/><path id="nyt-g37" d="M1378 0H776V73Q795 75 822 78Q849 81 863 88Q884 99 893 120Q902 141 902 182V650Q902 752 864.5 803.5Q827 855 754 855Q714 855 679.5 843Q645 831 612 808Q583 788 565.5 767Q548 746 536 730V193Q536 158 546 134.5Q556 111 579 99Q595 90 619 83Q643 76 666 73V0H58V73Q83 75 108.5 78.5Q134 82 152 88Q184 99 196 122Q208 145 208 182V764Q208 795 192 825Q176 855 150 874Q132 886 104.5 894Q77 902 44 905V978L521 1004L536 989V844H540Q568 869 608 904Q648 939 682 961Q719 985 779 1002Q839 1019 907 1019Q1070 1019 1151.5 926.5Q1233 834 1233 681V191Q1233 154 1244 132Q1255 110 1285 97Q1301 90 1324.5 83Q1348 76 1378 73Z"/><path id="nyt-g38" d="M850 0H63V78Q90 80 142.5 84Q195 88 215 96Q252 111 265.5 135.5Q279 160 279 198V1204Q279 1238 266 1264Q253 1290 215 1306Q191 1316 144 1326.5Q97 1337 63 1341V1419H850V1341Q820 1338 775 1332.5Q730 1327 699 1317Q660 1304 647 1276.5Q634 1249 634 1214V209Q634 173 647.5 147.5Q661 122 699 106Q720 97 768.5 88.5Q817 80 850 78Z"/><path id="nyt-g39" d="M521 -34Q424 -34 331.5 -5.5Q239 23 188 55L158 -13H80L67 360H140Q155 315 190 258.5Q225 202 270 157Q317 112 377.5 81Q438 50 507 50Q598 50 642.5 85.5Q687 121 687 195Q687 235 667 261Q647 287 612 306Q573 326 526.5 340Q480 354 412 374Q344 394 295.5 414.5Q247 435 195 479Q150 518 123 573Q96 628 96 704Q96 845 214.5 932Q333 1019 525 1019Q616 1019 692.5 1000.5Q769 982 821 960L842 1019H918L934 678H863Q828 782 743 857.5Q658 933 560 933Q483 933 439 901Q395 869 395 812Q395 736 459.5 702Q524 668 640 638Q819 592 902 512.5Q985 433 985 310Q985 146 856.5 56Q728 -34 521 -34Z"/><path id="nyt-g40" d="M813 -38Q657 -38 521 12.5Q385 63 284 159Q185 253 128 391.5Q71 530 71 696Q71 861 128.5 1001.5Q186 1142 290 1245Q392 1346 535 1401.5Q678 1457 841 1457Q959 1457 1056 1428.5Q1153 1400 1220 1364L1282 1419H1369L1378 901H1290Q1215 1138 1110 1249Q1005 1360 854 1360Q666 1360 568 1194.5Q470 1029 470 730Q470 561 503.5 441.5Q537 322 591 249Q649 173 728 137.5Q807 102 903 102Q1043 102 1152.5 178Q1262 254 1352 408L1438 356Q1395 268 1340 198.5Q1285 129 1213 79Q1134 24 1038.5 -7Q943 -38 813 -38Z"/><path id="nyt-g41" d="M1276 487Q1276 276 1135 125Q994 -26 778 -26Q682 -26 622 -6.5Q562 13 523 41H515V-240Q515 -275 530.5 -301Q546 -327 574 -339Q601 -350 650.5 -359Q700 -368 733 -370V-444H11V-370Q36 -368 74 -362.5Q112 -357 131 -351Q163 -340 174.5 -313.5Q186 -287 186 -253V770Q183 803 170.5 828Q158 853 131 872Q111 885 78 893.5Q45 902 13 905V978L500 1004L515 991V880L523 878Q589 945 669.5 982Q750 1019 829 1019Q1036 1019 1156 872.5Q1276 726 1276 487ZM917 483Q917 558 906 626.5Q895 695 867 749Q840 803 795.5 835Q751 867 687 867Q622 867 583 844.5Q544 822 515 786V219Q521 199 538 167.5Q555 136 572 117Q597 90 629 77Q661 64 699 64Q798 64 857.5 170.5Q917 277 917 483Z"/><path id="nyt-g42" d="M667 0H40V73Q66 75 90.5 78Q115 81 134 88Q166 100 177.5 122.5Q189 145 189 182V1290Q189 1328 173.5 1360.5Q158 1393 132 1410Q112 1423 71.5 1435Q31 1447 0 1449V1522L503 1548L518 1532V195Q518 158 531 135Q544 112 573 99Q593 90 615 83Q637 76 667 73Z"/><path id="nyt-g43" d="M1178 880H958Q997 836 1016.5 787Q1036 738 1036 685Q1036 616 999 555.5Q962 495 902 457Q841 418 759 396Q677 374 581 374H418Q406 365 391.5 345.5Q377 326 377 308Q377 264 412 247Q447 230 539 228Q630 226 723 220.5Q816 215 856 214Q914 211 971 190.5Q1028 170 1070 137Q1116 102 1146 47.5Q1176 -7 1176 -78Q1176 -154 1139.5 -221Q1103 -288 1028 -337Q949 -388 838.5 -416Q728 -444 565 -444Q302 -444 165 -380Q28 -316 28 -188Q28 -109 102 -58Q176 -7 332 -2V10Q240 41 188.5 92.5Q137 144 137 212Q137 254 157.5 283Q178 312 210 334Q238 353 278 366.5Q318 380 345 388V399Q210 449 146.5 521Q83 593 83 697Q83 844 218.5 932Q354 1020 562 1020Q630 1020 693.5 1008.5Q757 997 790 988H1178ZM709 689Q709 806 672 874Q635 942 558 942Q519 942 490 923.5Q461 905 443 870Q426 836 420 790.5Q414 745 414 697Q414 588 452 518Q490 448 560 448Q632 448 670.5 511Q709 574 709 689ZM877 -151Q877 -117 858 -83.5Q839 -50 773 -29Q737 -23 654.5 -21Q572 -19 428 -19Q393 -49 369.5 -90Q346 -131 346 -189Q346 -214 360 -244Q374 -274 404 -300Q439 -329 482 -345.5Q525 -362 612 -362Q741 -362 809 -312Q877 -262 877 -151Z"/><path id="nyt-g44" d="M1380 1261Q1485 1165 1546.5 1029Q1608 893 1608 719Q1608 564 1556 424Q1504 284 1406 183Q1303 78 1164 19.5Q1025 -39 833 -39Q678 -39 540 12Q402 63 297 160Q193 255 132 391Q71 527 71 694Q71 868 130.5 1009.5Q190 1151 294 1252Q397 1351 538.5 1404.5Q680 1458 840 1458Q999 1458 1138.5 1406Q1278 1354 1380 1261ZM1123 246Q1168 337 1188 452Q1208 567 1208 712Q1208 835 1190.5 951.5Q1173 1068 1131 1159Q1088 1250 1017 1305Q946 1360 840 1360Q659 1360 565 1188.5Q471 1017 471 704Q471 571 491.5 453Q512 335 556 247Q601 158 670 108.5Q739 59 840 59Q939 59 1010 109Q1081 159 1123 246Z"/><path id="nyt-g45" d="M1079 874Q1153 805 1192 709Q1231 613 1231 501Q1231 390 1192.5 291.5Q1154 193 1080 123Q1001 48 891.5 8Q782 -32 641 -32Q519 -32 416.5 3Q314 38 235 108Q159 175 115 273.5Q71 372 71 494Q71 614 109.5 707.5Q148 801 225 874Q299 944 407.5 982.5Q516 1021 650 1021Q790 1021 896.5 982.5Q1003 944 1079 874ZM823 181Q845 237 855.5 317Q866 397 866 503Q866 573 856 663Q846 753 826 805Q802 868 759.5 904Q717 940 652 940Q581 940 538.5 901Q496 862 473 800Q452 743 444 666.5Q436 590 436 507Q436 398 443 326.5Q450 255 477 183Q500 121 543 85Q586 49 652 49Q712 49 755 82.5Q798 116 823 181Z"/><path id="nyt-g46" d="M1004 1379Q1004 1354 996 1324Q988 1294 970 1273Q949 1248 923 1235Q897 1222 845 1222Q766 1222 721 1277Q676 1332 625 1460Q585 1443 560 1372Q535 1301 535 1067V988H811V880H537V191Q537 152 555 130.5Q573 109 602 99Q626 91 665 83.5Q704 76 735 73V0H60V73Q86 75 110.5 78Q135 81 154 88Q186 100 197.5 122.5Q209 145 209 182V880H6V988H209Q209 1095 240 1195.5Q271 1296 336 1375Q399 1453 502 1501Q605 1549 744 1549Q868 1549 936 1502Q1004 1455 1004 1379Z"/><path id="nyt-g47" d="M802 46Q738 18 665 -4.5Q592 -27 487 -27Q331 -27 255.5 49Q180 125 180 266V880H0V988H184V1291H509V988H789V880H511V332Q511 215 543.5 166Q576 117 660 117Q687 117 735 121Q783 125 802 130Z"/><path id="nyt-g48" d="M1351 21L858 -8L843 6V98L836 100Q787 47 703.5 7.5Q620 -32 535 -32Q333 -32 202 118Q71 268 71 506Q71 717 217.5 868Q364 1019 572 1019Q654 1019 726 1000.5Q798 982 841 957V1284Q841 1321 826 1353.5Q811 1386 786 1404Q755 1426 708.5 1435.5Q662 1445 615 1449V1522L1155 1548L1170 1532V221Q1170 183 1182.5 157Q1195 131 1223 116Q1244 105 1284.5 100Q1325 95 1351 94ZM841 199V764Q834 787 821.5 815Q809 843 787 868Q767 889 733.5 905Q700 921 658 921Q558 921 494 808Q430 695 430 489Q430 408 441.5 343.5Q453 279 482 226Q511 173 556.5 143Q602 113 666 113Q727 113 767 136.5Q807 160 841 199Z"/><path id="nyt-g49" d="M98 899Q211 954 275 1027Q339 1100 349 1204H293Q231 1204 192 1218Q153 1232 129 1257Q106 1280 96.5 1309.5Q87 1339 87 1370Q87 1434 138.5 1482Q190 1530 260 1530Q370 1530 429 1457Q488 1384 488 1255Q488 1135 386.5 1013Q285 891 142 828Z"/><path id="nyt-g50" d="M1699 1341Q1671 1338 1619 1330Q1567 1322 1525 1291Q1488 1264 1472.5 1198.5Q1457 1133 1457 1006V-8H1279L395 1089V423Q395 299 411.5 234.5Q428 170 465 140Q492 118 551 101Q610 84 645 78V0H35V78Q74 81 124.5 92.5Q175 104 209 128Q248 157 262.5 215.5Q277 274 277 412V1084Q277 1134 261.5 1178.5Q246 1223 213 1255Q178 1289 132.5 1308.5Q87 1328 29 1339V1419H563L1339 459V996Q1339 1124 1322 1186.5Q1305 1249 1268 1279Q1239 1302 1182 1318.5Q1125 1335 1090 1341V1419H1699Z"/><path id="nyt-g51" d="M718 0H79V71Q106 73 157 77Q208 81 229 89Q262 102 277 124.5Q292 147 292 187V1215Q292 1250 281 1273.5Q270 1297 229 1313Q199 1325 153.5 1335.5Q108 1346 79 1348V1419H718V1348Q687 1347 644 1340.5Q601 1334 569 1324Q531 1312 518 1285Q505 1258 505 1225V198Q505 165 519.5 139.5Q534 114 569 99Q590 91 637.5 81.5Q685 72 718 71Z"/><path id="nyt-g52" d="M827 859Q827 808 802 768.5Q777 729 725 729Q669 729 639.5 758Q610 787 610 822Q610 844 613.5 862Q617 880 620 898Q573 898 510 860Q447 822 403 752V178Q403 143 416.5 121Q430 99 459 88Q484 78 523.5 73Q563 68 592 66V0H72V66Q95 68 119.5 70Q144 72 162 78Q190 87 203.5 109.5Q217 132 217 168V777Q217 808 202.5 838Q188 868 162 886Q143 898 117 903.5Q91 909 61 911V976L389 998L403 984V845H408Q470 926 546 968Q622 1010 685 1010Q748 1010 787.5 969Q827 928 827 859Z"/><path id="nyt-g53" d="M1006 18Q959 1 923.5 -9.5Q888 -20 843 -20Q765 -20 718.5 16.5Q672 53 659 123H653Q588 51 513.5 13Q439 -25 334 -25Q223 -25 151.5 43Q80 111 80 221Q80 278 96 323Q112 368 144 404Q169 434 210 457.5Q251 481 287 495Q332 512 469.5 558Q607 604 655 630V729Q655 742 649.5 779Q644 816 626 849Q606 886 569.5 913.5Q533 941 466 941Q420 941 380.5 925.5Q341 910 325 893Q325 873 334.5 834Q344 795 344 762Q344 727 312.5 698Q281 669 225 669Q175 669 151.5 704.5Q128 740 128 784Q128 830 160.5 872Q193 914 245 947Q290 975 354 994.5Q418 1014 479 1014Q563 1014 625.5 1002.5Q688 991 739 953Q790 916 816.5 852.5Q843 789 843 689Q843 546 840 435.5Q837 325 837 194Q837 155 850.5 132Q864 109 892 93Q907 84 939.5 83Q972 82 1006 82ZM657 546Q572 521 508 497Q444 473 389 437Q339 403 310 356.5Q281 310 281 246Q281 163 324.5 124Q368 85 435 85Q506 85 560 119.5Q614 154 651 201Z"/><path id="nyt-g54" d="M1161 0H678V66Q701 68 728.5 70Q756 72 774 78Q802 87 815.5 109.5Q829 132 829 168V675Q829 780 779.5 837Q730 894 659 894Q606 894 562 877.5Q518 861 484 837Q451 814 431.5 787.5Q412 761 403 745V178Q403 144 417 122Q431 100 459 88Q480 78 504.5 73Q529 68 555 66V0H72V66Q95 68 119.5 70Q144 72 162 78Q190 87 203.5 109.5Q217 132 217 168V777Q217 811 202.5 839.5Q188 868 162 886Q143 898 117 903.5Q91 909 61 911V976L389 998L403 984V845H408Q432 869 468 902.5Q504 936 536 957Q573 981 624 997Q675 1013 739 1013Q881 1013 949.5 924.5Q1018 836 1018 689V176Q1018 141 1030 119.5Q1042 98 1071 86Q1095 76 1112.5 72Q1130 68 1161 66Z"/><path id="nyt-g55" d="M551 0H74V66Q97 68 121.5 70Q146 72 164 78Q192 87 205.5 109.5Q219 132 219 168V777Q219 809 204.5 835.5Q190 862 164 880Q145 892 109 900.5Q73 909 43 911V976L391 998L405 984V180Q405 145 418.5 122Q432 99 461 88Q483 79 504 73.5Q525 68 551 66ZM425 1387Q425 1330 387.5 1287.5Q350 1245 295 1245Q244 1245 206.5 1285.5Q169 1326 169 1378Q169 1433 206.5 1474Q244 1515 295 1515Q352 1515 388.5 1476.5Q425 1438 425 1387Z"/><path id="nyt-g56" d="M681 43Q616 16 558 -2.5Q500 -21 416 -21Q292 -21 241.5 41.5Q191 104 191 218V886H13V982H195V1289H377V982H660V886H379V335Q379 273 383.5 231.5Q388 190 405 159Q421 130 453 115Q485 100 539 100Q564 100 612.5 104.5Q661 109 681 116Z"/><path id="nyt-g57" d="M528 -26Q314 -26 193 116Q72 258 72 497Q72 601 104.5 691.5Q137 782 199 856Q258 927 347 970.5Q436 1014 541 1014Q686 1014 777 944.5Q868 875 868 755Q868 705 844 666.5Q820 628 765 628Q706 628 673.5 658Q641 688 641 725Q641 770 653 817.5Q665 865 667 887Q649 918 613.5 928.5Q578 939 537 939Q489 939 445.5 918.5Q402 898 361 843Q324 793 301 708Q278 623 278 505Q278 319 360.5 201.5Q443 84 577 84Q674 84 739.5 131Q805 178 861 272L925 230Q859 112 751 43Q643 -26 528 -26Z"/><path id="nyt-g58" d="M1117 0H819Q741 113 652 242Q563 371 467 493L385 416V182Q385 146 398 122.5Q411 99 440 88Q464 78 486 73Q508 68 537 66V0H53V66Q76 68 101 70.5Q126 73 143 78Q171 87 185 109.5Q199 132 199 168V1314Q199 1351 183.5 1383.5Q168 1416 143 1433Q122 1449 77.5 1454Q33 1459 6 1461V1525L371 1548L385 1533V490Q463 568 553.5 657.5Q644 747 706 817Q714 826 723.5 840.5Q733 855 733 864Q733 891 689.5 904Q646 917 606 922V986H1040V924Q956 899 891.5 861.5Q827 824 793 794Q769 774 725 729Q681 684 602 611Q684 510 786.5 369Q889 228 936 165Q980 106 1015 88Q1050 70 1117 66Z"/><path id="nyt-g59" d="M723 483Q764 447 786 400Q808 353 808 285Q808 148 705.5 61Q603 -26 440 -26Q354 -26 281.5 5Q209 36 178 62L158 -3H83L73 340H142Q150 301 176 249Q202 197 239 155Q278 111 332.5 81Q387 51 455 51Q551 51 603 94.5Q655 138 655 219Q655 261 638.5 291.5Q622 322 590 345Q557 368 509 386.5Q461 405 402 423Q355 437 297.5 461.5Q240 486 199 519Q155 554 127 605Q99 656 99 725Q99 846 189 930Q279 1014 430 1014Q488 1014 548.5 999Q609 984 647 963L670 1015H742L757 698H688Q667 804 597.5 870.5Q528 937 428 937Q346 937 299 896Q252 855 252 797Q252 752 267.5 722Q283 692 314 671Q344 651 389.5 633.5Q435 616 502 594Q568 573 626.5 545Q685 517 723 483Z"/><path id="nyt-g60" d="M1152 18L808 -4L793 10V102L785 104Q733 46 656.5 9Q580 -28 499 -28Q415 -28 336.5 9.5Q258 47 200 115Q141 184 106.5 281Q72 378 72 495Q72 602 109 698Q146 794 211 866Q272 933 360.5 973Q449 1013 541 1013Q610 1013 676.5 995.5Q743 978 791 951V1294Q791 1336 777 1370.5Q763 1405 738 1423Q710 1442 662.5 1450.5Q615 1459 560 1463V1525L963 1548L978 1533V203Q978 168 991.5 143.5Q1005 119 1031 102Q1050 90 1086 87Q1122 84 1152 83ZM791 191V768Q783 794 765 824Q747 854 720 879Q691 904 652 920.5Q613 937 561 937Q501 937 450.5 906Q400 875 361 817Q324 761 302.5 674.5Q281 588 281 483Q281 399 297 330.5Q313 262 351 203Q386 147 440.5 113Q495 79 570 79Q650 79 702.5 114Q755 149 791 191Z"/><path id="nyt-g61" d="M1143 0H659V66Q682 68 710 70Q738 72 756 78Q784 87 797.5 109.5Q811 132 811 168V675Q811 780 761.5 837Q712 894 641 894Q589 894 544.5 877.5Q500 861 465 837Q431 812 413 787Q395 762 385 745V178Q385 144 398.5 122Q412 100 440 88Q462 78 485.5 73Q509 68 537 66V0H53V66Q76 68 101 70.5Q126 73 143 78Q171 87 185 109.5Q199 132 199 168V1316Q199 1350 183.5 1384Q168 1418 143 1435Q125 1448 79.5 1453.5Q34 1459 6 1461V1525L371 1548L385 1533V845H389Q422 878 449 903.5Q476 929 520 957Q558 981 609.5 997Q661 1013 725 1013Q857 1013 928 929.5Q999 846 999 689V176Q999 141 1011.5 119.5Q1024 98 1053 86Q1076 77 1094.5 72.5Q1113 68 1143 66Z"/><path id="nyt-g62" d="M948 232Q886 114 782 44Q678 -26 543 -26Q424 -26 334.5 16Q245 58 187 130Q129 202 100.5 298Q72 394 72 501Q72 597 102.5 689.5Q133 782 192 856Q249 927 333.5 970.5Q418 1014 523 1014Q631 1014 708 980Q785 946 833 887Q879 831 901.5 755Q924 679 924 590V524H271Q271 427 289.5 348Q308 269 348 209Q387 151 450 117.5Q513 84 600 84Q689 84 753.5 125.5Q818 167 878 275ZM727 608Q727 664 717.5 728Q708 792 687 835Q664 881 624 910Q584 939 521 939Q416 939 346.5 851.5Q277 764 271 608Z"/><path id="nyt-g63" d="M534 0H53V66Q76 68 102 70.5Q128 73 145 78Q173 87 187 109.5Q201 132 201 168V1310Q201 1346 185.5 1377.5Q170 1409 145 1427Q127 1439 79 1449Q31 1459 2 1461V1525L373 1548L387 1533V180Q387 145 400 122.5Q413 100 442 88Q464 78 485.5 73Q507 68 534 66Z"/><path id="nyt-g64" d="M1033 503Q1033 399 1000 298.5Q967 198 906 128Q837 48 746 9Q655 -30 542 -30Q448 -30 363 5.5Q278 41 212 109Q147 176 108.5 272.5Q70 369 70 489Q70 720 204.5 867Q339 1014 557 1014Q764 1014 898.5 874.5Q1033 735 1033 503ZM826 501Q826 576 811 659.5Q796 743 766 801Q734 863 682 900.5Q630 938 555 938Q478 938 423.5 900Q369 862 335 796Q303 735 290 657Q277 579 277 506Q277 410 292.5 328.5Q308 247 342 183Q376 119 427.5 82.5Q479 46 555 46Q680 46 753 167Q826 288 826 501Z"/><path id="nyt-g65" d="M806 1429Q806 1384 782 1353Q758 1322 709 1322Q678 1322 654.5 1335Q631 1348 611 1370Q591 1392 574 1420Q557 1448 545 1465Q478 1462 441.5 1371.5Q405 1281 405 1083V982H659V886H405V178Q405 143 418.5 121Q432 99 461 88Q485 79 525 73.5Q565 68 594 66V0H74V66Q97 68 121.5 70Q146 72 164 78Q192 87 205.5 109.5Q219 132 219 168V886H24V982H219V1045Q219 1270 335.5 1409.5Q452 1549 627 1549Q716 1549 761 1514Q806 1479 806 1429Z"/><path id="nyt-g66" d="M1073 494Q1073 272 933 121Q793 -30 608 -30Q527 -30 448.5 -5Q370 20 301 62L227 -53L165 -39Q170 35 172 139Q174 243 174 340V1316Q174 1350 158.5 1384Q143 1418 119 1433Q100 1446 55.5 1452.5Q11 1459 -16 1461V1525L346 1548L360 1533V883L367 881Q429 947 502.5 980Q576 1013 647 1013Q829 1013 951 869Q1073 725 1073 494ZM864 487Q864 561 848 638Q832 715 798 772Q764 830 709 866Q654 902 577 902Q507 902 454.5 874.5Q402 847 360 800V226Q366 202 383.5 170Q401 138 431 109Q461 81 499 63.5Q537 46 592 46Q714 46 789 164Q864 282 864 487Z"/><path id="nyt-g67" d="M1046 925Q1001 917 960.5 892.5Q920 868 891 806Q832 672 769 526.5Q706 381 638 221Q618 175 595.5 112Q573 49 554 -9H476Q381 226 301 419.5Q221 613 135 816Q115 862 70.5 887.5Q26 913 -19 920V986H437V916Q407 915 362 903.5Q317 892 317 872Q317 869 322 856.5Q327 844 332 828Q373 726 448 543Q523 360 570 248Q606 334 660.5 462Q715 590 778 748Q788 775 797 798.5Q806 822 806 846Q806 863 789.5 876.5Q773 890 750 900Q727 910 705 915Q683 920 669 922V986H1046Z"/><path id="nyt-g68" d="M973 869Q1032 799 1064.5 706.5Q1097 614 1097 495Q1097 378 1058 281.5Q1019 185 955 117Q888 48 806 11Q724 -26 632 -26Q543 -26 486 -6Q429 14 393 41H385V-255Q385 -291 399 -315Q413 -339 442 -350Q466 -359 510.5 -367.5Q555 -376 584 -377V-444H33V-377Q64 -375 93 -372Q122 -369 145 -362Q175 -352 187 -327Q199 -302 199 -268V781Q199 811 184 839Q169 867 145 884Q127 896 95 902.5Q63 909 33 911V976L369 998L383 986V875L391 873Q443 933 520 973Q597 1013 673 1013Q765 1013 841.5 974Q918 935 973 869ZM810 160Q850 222 869 304Q888 386 888 487Q888 561 872 638Q856 715 822 772Q788 830 733 866Q678 902 601 902Q527 902 475 869.5Q423 837 385 792V209Q394 182 414.5 153Q435 124 460 103Q491 78 527 62.5Q563 47 615 47Q671 47 723 76.5Q775 106 810 160Z"/><path id="nyt-g69" d="M-3 -322Q-3 -272 24.5 -240.5Q52 -209 93 -209Q125 -209 148 -221Q171 -233 189 -252Q204 -267 221 -293Q238 -319 248 -336Q298 -309 367.5 -195Q437 -81 468 5Q373 242 296 429Q219 616 135 816Q116 862 71 887.5Q26 913 -19 920V986H431V916Q401 915 359 903.5Q317 892 317 877Q317 871 321.5 857Q326 843 332 828Q370 729 448 542.5Q526 356 569 244Q614 351 662.5 465.5Q711 580 771 736Q778 755 791 788.5Q804 822 804 846Q804 872 758.5 894.5Q713 917 672 922V986H1038V924Q1008 919 959 889.5Q910 860 886 806Q767 530 674.5 303Q582 76 534 -31Q471 -171 421.5 -249.5Q372 -328 325 -373Q279 -415 241.5 -429.5Q204 -444 164 -444Q86 -444 41.5 -407Q-3 -370 -3 -322Z"/><path id="nyt-g70" d="M853 0H55V53L613 905H475Q388 905 339 902Q290 899 249 882Q221 871 196.5 819Q172 767 154 683H93V986H847V945L280 81Q316 80 359 79.5Q402 79 452 79Q492 79 535.5 80Q579 81 647 85Q687 87 707.5 112Q728 137 739 169Q750 198 765.5 249Q781 300 793 348H853Z"/><path id="nyt-g71" d="M1244 1251Q1338 1153 1391 1014.5Q1444 876 1444 708Q1444 574 1409 460Q1374 346 1310 256Q1249 170 1165 106Q1081 42 977 5Q979 -105 1056 -192.5Q1133 -280 1222 -280Q1304 -280 1347 -274.5Q1390 -269 1418 -264V-343Q1373 -356 1305.5 -370.5Q1238 -385 1118 -385Q1051 -385 987 -365.5Q923 -346 871 -303Q819 -260 784.5 -194Q750 -128 740 -32Q597 -27 475 29.5Q353 86 266 184Q178 283 129 416.5Q80 550 80 708Q80 881 134 1016.5Q188 1152 283 1251Q377 1349 501.5 1401Q626 1453 762 1453Q903 1453 1028 1400Q1153 1347 1244 1251ZM1095 245Q1151 336 1176.5 451Q1202 566 1202 708Q1202 854 1173.5 976Q1145 1098 1090 1184Q1035 1269 952 1316.5Q869 1364 762 1364Q642 1364 558 1309Q474 1254 421 1162Q371 1074 346.5 956Q322 838 322 708Q322 564 348 448Q374 332 430 242Q484 154 566 104.5Q648 55 762 55Q869 55 955 105Q1041 155 1095 245Z"/><path id="nyt-g72" d="M388 1325Q388 1259 359.5 1204.5Q331 1150 291 1110Q251 1069 203 1036.5Q155 1004 126 989L92 1048Q133 1072 170.5 1097.5Q208 1123 228 1146Q255 1176 271 1208.5Q287 1241 291 1294H243Q180 1294 145 1326Q110 1358 110 1415Q110 1456 142 1492.5Q174 1529 229 1529Q314 1529 351 1472.5Q388 1416 388 1325Z"/><path id="nyt-g73" d="M917 102Q957 64 980 16Q1003 -32 1003 -103Q1003 -174 972 -236.5Q941 -299 878 -345Q811 -392 718 -418Q625 -444 488 -444Q264 -444 153 -378.5Q42 -313 42 -187Q42 -85 122 -26Q202 33 326 38V52Q296 61 264 74.5Q232 88 209 106Q183 127 167 155.5Q151 184 151 226Q151 279 188.5 323.5Q226 368 302 400V415Q206 460 153 530.5Q100 601 100 694Q100 834 204.5 924Q309 1014 472 1014Q517 1014 561.5 1005Q606 996 652 982H996V886H764V880Q801 837 819 785Q837 733 837 683Q837 553 731.5 463Q626 373 486 373H365Q342 365 317 344Q292 323 292 287Q292 250 313 230.5Q334 211 364 204Q393 196 431.5 194Q470 192 511 191Q555 190 631.5 185Q708 180 740 179Q786 177 832.5 157Q879 137 917 102ZM647 687Q647 804 599.5 873.5Q552 943 466 943Q419 943 385.5 923.5Q352 904 331 868Q311 835 302.5 788.5Q294 742 294 693Q294 582 342.5 512Q391 442 468 442Q554 442 600.5 511.5Q647 581 647 687ZM839 -140Q839 -84 813 -48Q787 -12 734 1Q706 5 619 10Q532 15 417 15Q309 -6 263.5 -55.5Q218 -105 218 -183Q218 -218 233 -250Q248 -282 285 -309Q320 -335 379 -351.5Q438 -368 523 -368Q670 -368 754.5 -311.5Q839 -255 839 -140Z"/><path id="nyt-g74" d="M1022 0H570V66Q615 71 646.5 76Q678 81 678 102Q678 111 668 130Q658 149 648 165Q623 204 579.5 269.5Q536 335 473 426Q421 361 377 299.5Q333 238 285 169Q278 159 270.5 144Q263 129 263 120Q263 98 291.5 83.5Q320 69 377 64V0H12V62Q80 82 121.5 110.5Q163 139 198 181Q229 221 284.5 291Q340 361 428 481Q377 554 303.5 659.5Q230 765 182 835Q156 873 122.5 896.5Q89 920 28 920V986H457V920Q425 920 394 916Q363 912 363 898Q363 889 369 878Q375 867 384 854Q406 820 452.5 749Q499 678 553 599Q588 647 634.5 711Q681 775 720 833Q724 840 728 850.5Q732 861 732 871Q732 892 697.5 904.5Q663 917 632 922V986H996V924Q919 904 876 876.5Q833 849 803 813Q770 772 724.5 712Q679 652 597 544Q688 416 745 334Q802 252 860 165Q889 121 924.5 95.5Q960 70 1022 66Z"/><path id="nyt-g75" d="M429 35Q429 -37 396.5 -101Q364 -165 322 -211Q279 -259 231 -296Q183 -333 143 -354L97 -287Q145 -257 183 -227Q221 -197 245 -167Q275 -132 296 -91Q317 -50 323 2H272Q205 2 167.5 37Q130 72 130 131Q130 173 164 212.5Q198 252 257 252Q343 252 386 194.5Q429 137 429 35Z"/><path id="nyt-g76" d="M1761 0H1280V66Q1303 68 1326.5 70Q1350 72 1368 78Q1396 87 1409.5 109.5Q1423 132 1423 168V677Q1423 781 1375.5 837.5Q1328 894 1257 894Q1208 894 1165 879Q1122 864 1086 837Q1057 815 1037.5 789.5Q1018 764 1008 747V178Q1008 143 1020 120.5Q1032 98 1061 86Q1084 77 1102.5 72.5Q1121 68 1151 66V0H680V66Q703 68 724.5 70Q746 72 764 78Q792 87 805.5 109.5Q819 132 819 168V677Q819 781 771.5 837.5Q724 894 653 894Q604 894 561 878.5Q518 863 482 836Q453 814 433 786.5Q413 759 403 745V180Q403 146 417 123Q431 100 459 88Q480 78 502 73Q524 68 551 66V0H72V66Q95 68 119.5 70Q144 72 162 78Q190 87 203.5 109.5Q217 132 217 168V781Q217 813 202.5 838.5Q188 864 162 882Q143 894 115 901.5Q87 909 57 911V976L387 998L401 984V843H408Q433 868 469 902Q505 936 536 957Q571 981 623.5 997Q676 1013 737 1013Q833 1013 902 961.5Q971 910 1001 837Q1037 872 1064.5 898.5Q1092 925 1137 955Q1175 981 1226.5 997Q1278 1013 1341 1013Q1466 1013 1539 931Q1612 849 1612 679V178Q1612 143 1624 120.5Q1636 98 1665 86Q1688 77 1710.5 72.5Q1733 68 1761 66Z"/><path id="nyt-g77" d="M1129 18L808 -4L793 10V135H787Q763 110 733 81.5Q703 53 664 30Q619 3 577 -11Q535 -25 458 -25Q327 -25 258.5 60.5Q190 146 190 309V781Q190 817 176.5 841.5Q163 866 137 884Q119 896 92 901.5Q65 907 35 909V974L364 998L379 984V299Q379 192 427 138Q475 84 542 84Q597 84 640 101Q683 118 712 141Q739 162 759.5 185.5Q780 209 791 229V788Q791 821 777 846.5Q763 872 738 890Q720 902 684.5 904.5Q649 907 605 909V974L963 998L978 984V201Q978 167 992 143Q1006 119 1031 102Q1049 91 1074 87.5Q1099 84 1129 83Z"/><path id="nyt-g78" d="M1541 922Q1499 918 1450.5 887Q1402 856 1380 794Q1330 647 1285.5 515.5Q1241 384 1186 220Q1168 168 1149.5 108Q1131 48 1116 -7H1030L765 719L498 -7H416Q341 215 269.5 433.5Q198 652 143 814Q127 861 82 888Q37 915 -5 920V986H435V916Q402 915 363.5 905Q325 895 325 872Q325 868 328.5 855Q332 842 337 827Q369 722 409.5 592.5Q450 463 514 256L766 966H862L1119 266Q1162 400 1204.5 525.5Q1247 651 1279 761Q1286 787 1292.5 808.5Q1299 830 1299 851Q1299 869 1283 883Q1267 897 1244 906Q1224 914 1200.5 918Q1177 922 1166 922V986H1541Z"/><path id="nyt-g79" d="M415 115Q415 59 374.5 19.5Q334 -20 278 -20Q222 -20 181.5 19.5Q141 59 141 115Q141 171 181.5 211.5Q222 252 278 252Q334 252 374.5 211.5Q415 171 415 115Z"/><path id="nyt-g80" d="M599 1438Q839 1438 933.5 1313.5Q1028 1189 1028 1057H850Q834 1142 799 1190Q734 1280 602 1280Q451 1280 362 1140.5Q273 1001 263 741Q325 832 419 877Q505 917 611 917Q791 917 925 802Q1059 687 1059 459Q1059 264 932 113.5Q805 -37 570 -37Q369 -37 223 115.5Q77 268 77 629Q77 896 142 1082Q267 1438 599 1438ZM586 123Q728 123 798.5 218.5Q869 314 869 444Q869 554 806 653.5Q743 753 577 753Q461 753 373.5 676Q286 599 286 444Q286 308 365.5 215.5Q445 123 586 123Z"/><path id="nyt-g81" d="M151 1469H436L858 227L1277 1469H1559V0H1370V867Q1370 912 1372 1016Q1374 1120 1374 1239L955 0H758L336 1239V1194Q336 1140 338.5 1029.5Q341 919 341 867V0H151Z"/><path id="nyt-g82" d="M201 1469H402V0H201Z"/><path id="nyt-g83" d="M156 1469H391L1133 279V1469H1322V0H1099L346 1189V0H156ZM726 1469Z"/><path id="nyt-g84" d="M839 796Q979 796 1060.5 852Q1142 908 1142 1054Q1142 1211 1028 1268Q967 1298 865 1298H379V796ZM180 1469H860Q1028 1469 1137 1420Q1344 1326 1344 1073Q1344 941 1289.5 857Q1235 773 1137 722Q1223 687 1266.5 630Q1310 573 1315 445L1322 248Q1325 164 1336 123Q1354 53 1400 33V0H1156Q1146 19 1140 49Q1134 79 1130 165L1118 410Q1111 554 1011 603Q954 630 832 630H379V0H180Z"/><path id="nyt-g85" d="M175 1469H1246V1289H369V843H1180V673H369V175H1261V0H175ZM718 1469Z"/><path id="nyt-g86" d="M910 602L687 1251L450 602ZM583 1469H808L1341 0H1123L974 440H393L234 0H30Z"/><path id="nyt-g87" d="M720 170Q821 170 886 191Q1002 230 1076 341Q1135 430 1161 569Q1176 652 1176 723Q1176 996 1067.5 1147Q959 1298 718 1298H365V170ZM165 1469H760Q1063 1469 1230 1254Q1379 1060 1379 757Q1379 523 1291 334Q1136 0 758 0H165Z"/></defs>
  <rect x="0" y="0" width="390" height="844" rx="0" fill="rgb(255,255,255)" />
              <rect x="0" y="48" width="390" height="58" rx="0" fill="rgb(247,247,247)" />
              <polygon points="390,106 0,106 0,105 390,105" fill="rgb(226,226,226)" />
                    <g transform="translate(20,80.5)" fill="rgb(18,18,18)" role="img" aria-label="Monday, May 18, 2026"><title>Monday, May 18, 2026</title><g transform="scale(0.00537,-0.00537)"><use href="#nyt-g0" x="0" y="0"/><use href="#nyt-g1" x="1760" y="0"/><use href="#nyt-g2" x="2874.18" y="0"/><use href="#nyt-g3" x="4026.18" y="0"/><use href="#nyt-g4" x="5178.18" y="0"/><use href="#nyt-g5" x="6251.64" y="0"/><use href="#nyt-g6" x="7115.64" y="0"/><use href="#nyt-g0" x="8232.73" y="0"/><use href="#nyt-g4" x="9995.64" y="0"/><use href="#nyt-g5" x="11069.09" y="0"/><use href="#nyt-g7" x="12596.36" y="0"/><use href="#nyt-g8" x="13783.27" y="0"/><use href="#nyt-g6" x="14967.27" y="0"/><use href="#nyt-g9" x="16084.36" y="0"/><use href="#nyt-g10" x="17271.27" y="0"/><use href="#nyt-g9" x="18455.27" y="0"/><use href="#nyt-g11" x="19642.18" y="0"/></g></g>
                      <rect x="194.5" y="61.5" width="175" height="31" rx="2.5" fill="none" stroke="rgb(18,18,18)" stroke-width="1" />
                      <g transform="translate(207.34,81)" fill="rgb(18,18,18)" role="img" aria-label="Subscribe for $0.25/week"><title>Subscribe for $0.25/week</title><g transform="scale(0.00635,-0.00635)"><use href="#nyt-g12" x="0" y="0"/><use href="#nyt-g13" x="1233.23" y="0"/><use href="#nyt-g14" x="2363.08" y="0"/><use href="#nyt-g15" x="3488" y="0"/><use href="#nyt-g16" x="4452.92" y="0"/><use href="#nyt-g17" x="5459.69" y="0"/><use href="#nyt-g18" x="6227.69" y="0"/><use href="#nyt-g14" x="6747.08" y="0"/><use href="#nyt-g19" x="7872" y="0"/><use href="#nyt-g20" x="9462.15" y="0"/><use href="#nyt-g21" x="10104.62" y="0"/><use href="#nyt-g17" x="11204.92" y="0"/><use href="#nyt-g22" x="12484.92" y="0"/><use href="#nyt-g23" x="13666.46" y="0"/><use href="#nyt-g24" x="14850.46" y="0"/><use href="#nyt-g25" x="15448.62" y="0"/><use href="#nyt-g26" x="16632.62" y="0"/><use href="#nyt-g27" x="17814.15" y="0"/><use href="#nyt-g28" x="18926.77" y="0"/><use href="#nyt-g19" x="20364.31" y="0"/><use href="#nyt-g19" x="21442.46" y="0"/><use href="#nyt-g29" x="22520.62" y="0"/></g></g>
                  <g clip-path="url(#nyt-cp2)">
                  <g clip-path="url(#nyt-ov3)">
                      <g clip-path="url(#nyt-cp4)">
                      <g clip-path="url(#nyt-ov5)">
                        <g clip-path="url(#nyt-cp6)">
                        <g clip-path="url(#nyt-ov7)">
                          <g style="isolation:isolate">
                                          <g transform="translate(20,153)" fill="rgb(18,18,18)" role="img" aria-label="The War in Iran Is Crippling"><title>The War in Iran Is Crippling</title><g transform="scale(0.01465,-0.01465)"><use href="#nyt-g30" x="0" y="0"/><use href="#nyt-g31" x="1287.47" y="0"/><use href="#nyt-g32" x="2389.33" y="0"/><use href="#nyt-g33" x="3736.53" y="0"/><use href="#nyt-g34" x="5557.33" y="0"/><use href="#nyt-g35" x="6524.8" y="0"/><use href="#nyt-g36" x="7731.2" y="0"/><use href="#nyt-g37" x="8290.13" y="0"/><use href="#nyt-g38" x="9827.2" y="0"/><use href="#nyt-g35" x="10484.27" y="0"/><use href="#nyt-g34" x="11274.67" y="0"/><use href="#nyt-g37" x="12241.07" y="0"/><use href="#nyt-g38" x="13778.13" y="0"/><use href="#nyt-g39" x="14435.2" y="0"/><use href="#nyt-g40" x="15595.73" y="0"/><use href="#nyt-g35" x="16867.2" y="0"/><use href="#nyt-g36" x="17657.6" y="0"/><use href="#nyt-g41" x="18216.53" y="0"/><use href="#nyt-g41" x="19273.6" y="0"/><use href="#nyt-g42" x="20330.67" y="0"/><use href="#nyt-g36" x="20867.2" y="0"/><use href="#nyt-g37" x="21426.13" y="0"/><use href="#nyt-g43" x="22546.13" y="0"/></g></g>
<g transform="translate(20,186.59)" fill="rgb(18,18,18)" role="img" aria-label="One of the World’s"><title>One of the World’s</title><g transform="scale(0.01465,-0.01465)"><use href="#nyt-g44" x="0" y="0"/><use href="#nyt-g37" x="1482.67" y="0"/><use href="#nyt-g32" x="2602.67" y="0"/><use href="#nyt-g45" x="3949.87" y="0"/><use href="#nyt-g46" x="4952.53" y="0"/><use href="#nyt-g47" x="5998.93" y="0"/><use href="#nyt-g31" x="6627.2" y="0"/><use href="#nyt-g32" x="7729.07" y="0"/><use href="#nyt-g33" x="9076.27" y="0"/><use href="#nyt-g45" x="10910.93" y="0"/><use href="#nyt-g35" x="11913.6" y="0"/><use href="#nyt-g42" x="12704" y="0"/><use href="#nyt-g48" x="13240.53" y="0"/><use href="#nyt-g49" x="14279.47" y="0"/><use href="#nyt-g39" x="14597.33" y="0"/></g></g>
<g transform="translate(20,220.19)" fill="rgb(18,18,18)" role="img" aria-label="Wealthiest Nations"><title>Wealthiest Nations</title><g transform="scale(0.01465,-0.01465)"><use href="#nyt-g33" x="0" y="0"/><use href="#nyt-g32" x="1833.6" y="0"/><use href="#nyt-g34" x="2763.73" y="0"/><use href="#nyt-g42" x="3730.13" y="0"/><use href="#nyt-g47" x="4267.73" y="0"/><use href="#nyt-g31" x="4896" y="0"/><use href="#nyt-g36" x="5998.93" y="0"/><use href="#nyt-g32" x="6557.87" y="0"/><use href="#nyt-g39" x="7488" y="0"/><use href="#nyt-g47" x="8230.4" y="0"/><use href="#nyt-g50" x="9276.8" y="0"/><use href="#nyt-g34" x="10742.4" y="0"/><use href="#nyt-g47" x="11709.87" y="0"/><use href="#nyt-g36" x="12338.13" y="0"/><use href="#nyt-g45" x="12897.07" y="0"/><use href="#nyt-g37" x="13900.8" y="0"/><use href="#nyt-g39" x="15020.8" y="0"/></g></g>
                                      <g transform="translate(20,249.78)" fill="rgb(90,90,90)" role="img" aria-label="Iranian attacks and the halt of seaborne transit"><title>Iranian attacks and the halt of seaborne transit</title><g transform="scale(0.00781,-0.00781)"><use href="#nyt-g51" x="0" y="0"/><use href="#nyt-g52" x="794" y="0"/><use href="#nyt-g53" x="1636" y="0"/><use href="#nyt-g54" x="2724" y="0"/><use href="#nyt-g55" x="3904" y="0"/><use href="#nyt-g53" x="4472" y="0"/><use href="#nyt-g54" x="5562" y="0"/><use href="#nyt-g53" x="7224" y="0"/><use href="#nyt-g56" x="8314" y="0"/><use href="#nyt-g56" x="8996" y="0"/><use href="#nyt-g53" x="9694" y="0"/><use href="#nyt-g57" x="10784" y="0"/><use href="#nyt-g58" x="11764" y="0"/><use href="#nyt-g59" x="12890" y="0"/><use href="#nyt-g53" x="14330" y="0"/><use href="#nyt-g54" x="15420" y="0"/><use href="#nyt-g60" x="16600" y="0"/><use href="#nyt-g56" x="18238" y="0"/><use href="#nyt-g61" x="18952" y="0"/><use href="#nyt-g62" x="20118" y="0"/><use href="#nyt-g61" x="21646" y="0"/><use href="#nyt-g53" x="22814" y="0"/><use href="#nyt-g63" x="23904" y="0"/><use href="#nyt-g56" x="24462" y="0"/><use href="#nyt-g64" x="25658" y="0"/><use href="#nyt-g65" x="26728" y="0"/><use href="#nyt-g59" x="27858" y="0"/><use href="#nyt-g62" x="28816" y="0"/><use href="#nyt-g53" x="29860" y="0"/><use href="#nyt-g66" x="30950" y="0"/><use href="#nyt-g64" x="32092" y="0"/><use href="#nyt-g52" x="33160" y="0"/><use href="#nyt-g54" x="34052" y="0"/><use href="#nyt-g62" x="35230" y="0"/><use href="#nyt-g56" x="36758" y="0"/><use href="#nyt-g52" x="37472" y="0"/><use href="#nyt-g53" x="38312" y="0"/><use href="#nyt-g54" x="39402" y="0"/><use href="#nyt-g59" x="40582" y="0"/><use href="#nyt-g55" x="41540" y="0"/><use href="#nyt-g56" x="42108" y="0"/></g></g>
<g transform="translate(20,271.78)" fill="rgb(90,90,90)" role="img" aria-label="have paralyzed Qatar’s vital gas exports, stalling"><title>have paralyzed Qatar’s vital gas exports, stalling</title><g transform="scale(0.00781,-0.00781)"><use href="#nyt-g61" x="0" y="0"/><use href="#nyt-g53" x="1166" y="0"/><use href="#nyt-g67" x="2238" y="0"/><use href="#nyt-g62" x="3374" y="0"/><use href="#nyt-g68" x="4902" y="0"/><use href="#nyt-g53" x="6062" y="0"/><use href="#nyt-g52" x="7150" y="0"/><use href="#nyt-g53" x="7992" y="0"/><use href="#nyt-g63" x="9082" y="0"/><use href="#nyt-g69" x="9640" y="0"/><use href="#nyt-g70" x="10792" y="0"/><use href="#nyt-g62" x="11754" y="0"/><use href="#nyt-g60" x="12798" y="0"/><use href="#nyt-g71" x="14438" y="0"/><use href="#nyt-g53" x="15920" y="0"/><use href="#nyt-g56" x="17010" y="0"/><use href="#nyt-g53" x="17708" y="0"/><use href="#nyt-g52" x="18798" y="0"/><use href="#nyt-g72" x="19688" y="0"/><use href="#nyt-g59" x="20108" y="0"/><use href="#nyt-g67" x="21550" y="0"/><use href="#nyt-g55" x="22696" y="0"/><use href="#nyt-g56" x="23264" y="0"/><use href="#nyt-g53" x="23962" y="0"/><use href="#nyt-g63" x="25052" y="0"/><use href="#nyt-g73" x="26094" y="0"/><use href="#nyt-g53" x="27230" y="0"/><use href="#nyt-g59" x="28318" y="0"/><use href="#nyt-g62" x="29760" y="0"/><use href="#nyt-g74" x="30804" y="0"/><use href="#nyt-g68" x="31944" y="0"/><use href="#nyt-g64" x="33102" y="0"/><use href="#nyt-g52" x="34172" y="0"/><use href="#nyt-g56" x="35062" y="0"/><use href="#nyt-g59" x="35776" y="0"/><use href="#nyt-g75" x="36734" y="0"/><use href="#nyt-g59" x="37708" y="0"/><use href="#nyt-g56" x="38668" y="0"/><use href="#nyt-g53" x="39366" y="0"/><use href="#nyt-g63" x="40456" y="0"/><use href="#nyt-g63" x="41034" y="0"/><use href="#nyt-g55" x="41594" y="0"/><use href="#nyt-g54" x="42162" y="0"/><use href="#nyt-g73" x="43340" y="0"/></g></g>
<g transform="translate(20,293.78)" fill="rgb(90,90,90)" role="img" aria-label="economic pivots intended to anchor the"><title>economic pivots intended to anchor the</title><g transform="scale(0.00781,-0.00781)"><use href="#nyt-g62" x="0" y="0"/><use href="#nyt-g57" x="1044" y="0"/><use href="#nyt-g64" x="2024" y="0"/><use href="#nyt-g54" x="3094" y="0"/><use href="#nyt-g64" x="4274" y="0"/><use href="#nyt-g76" x="5342" y="0"/><use href="#nyt-g55" x="7132" y="0"/><use href="#nyt-g57" x="7700" y="0"/><use href="#nyt-g68" x="9164" y="0"/><use href="#nyt-g55" x="10322" y="0"/><use href="#nyt-g67" x="10882" y="0"/><use href="#nyt-g64" x="12018" y="0"/><use href="#nyt-g56" x="13088" y="0"/><use href="#nyt-g59" x="13800" y="0"/><use href="#nyt-g55" x="15242" y="0"/><use href="#nyt-g54" x="15810" y="0"/><use href="#nyt-g56" x="16990" y="0"/><use href="#nyt-g62" x="17702" y="0"/><use href="#nyt-g54" x="18746" y="0"/><use href="#nyt-g60" x="19926" y="0"/><use href="#nyt-g62" x="21082" y="0"/><use href="#nyt-g60" x="22126" y="0"/><use href="#nyt-g56" x="23764" y="0"/><use href="#nyt-g64" x="24476" y="0"/><use href="#nyt-g53" x="26030" y="0"/><use href="#nyt-g54" x="27118" y="0"/><use href="#nyt-g57" x="28298" y="0"/><use href="#nyt-g61" x="29280" y="0"/><use href="#nyt-g64" x="30446" y="0"/><use href="#nyt-g52" x="31516" y="0"/><use href="#nyt-g56" x="32890" y="0"/><use href="#nyt-g61" x="33602" y="0"/><use href="#nyt-g62" x="34770" y="0"/></g></g>
<g transform="translate(20,315.78)" fill="rgb(90,90,90)" role="img" aria-label="country’s growth."><title>country’s growth.</title><g transform="scale(0.00781,-0.00781)"><use href="#nyt-g57" x="0" y="0"/><use href="#nyt-g64" x="980" y="0"/><use href="#nyt-g77" x="2050" y="0"/><use href="#nyt-g54" x="3214" y="0"/><use href="#nyt-g56" x="4394" y="0"/><use href="#nyt-g52" x="5106" y="0"/><use href="#nyt-g69" x="5998" y="0"/><use href="#nyt-g72" x="7148" y="0"/><use href="#nyt-g59" x="7568" y="0"/><use href="#nyt-g73" x="9010" y="0"/><use href="#nyt-g52" x="10158" y="0"/><use href="#nyt-g64" x="11018" y="0"/><use href="#nyt-g78" x="12076" y="0"/><use href="#nyt-g56" x="13674" y="0"/><use href="#nyt-g61" x="14386" y="0"/><use href="#nyt-g79" x="15554" y="0"/></g></g>
                                          <g transform="translate(20,340.78)" fill="rgb(114,114,114)" role="img" aria-label="6 MIN READ"><title>6 MIN READ</title><g transform="scale(0.00537,-0.00537)"><use href="#nyt-g80" x="0" y="0"/><use href="#nyt-g81" x="2071.27" y="0"/><use href="#nyt-g82" x="3991.27" y="0"/><use href="#nyt-g83" x="4730.18" y="0"/><use href="#nyt-g84" x="7016.73" y="0"/><use href="#nyt-g85" x="8532.36" y="0"/><use href="#nyt-g86" x="9890.91" y="0"/><use href="#nyt-g87" x="11264" y="0"/></g></g>
                              <g clip-path="url(#nyt-cp11)">
                              <image href="https://static01.nyt.com/images/2026/05/18/multimedia/18qatar-hp-ltmc/18qatar-hp-ltmc-square640.jpg?format=pjpg&amp;quality=75&amp;auto=webp&amp;disable=upscale" x="20" y="360.5" width="350" height="350" preserveAspectRatio="none" />
                              </g>
                          </g>
                        </g>
                        </g>
                      </g>
                      </g>
                  </g>
                  </g>
  <rect x="0" y="0" width="390" height="48" rx="0" fill="rgb(255,255,255)" />
  <polygon points="390,48 0,48 0,47 390,47" fill="rgb(226,226,226)" />
        <g clip-path="url(#nyt-cp12)">
        <g transform="translate(100.5, 13)" color="rgb(0, 0, 0)"><svg viewBox="0 0 184 25" fill="#000" aria-hidden="true" stroke-width="1px" font-family="Times" width="188.9" height="25.7"><path d="M14.57,2.57C14.57,.55,12.65-.06,11.04,.01V.19c.96,.07,1.7,.46,1.7,1.11,0,.45-.32,1.01-1.28,1.01-.76,0-2.02-.45-3.2-.84-1.3-.45-2.54-.87-3.57-.87-2.02,0-3.55,1.5-3.55,3.36,0,1.5,1.16,2.02,1.63,2.21l.03-.07c-.3-.2-.49-.42-.49-1.06,0-.54,.39-1.26,1.43-1.26,.94,0,2.17,.42,3.8,.88,1.4,.39,2.91,.76,3.75,.87v3.28l-1.58,1.3,1.58,1.36v4.49c-.81,.46-1.75,.61-2.56,.61-1.5,0-2.88-.42-4.02-1.68l4.26-2.07V5.73l-5.2,2.32c.54-1.38,1.55-2.41,2.66-3.08l-.03-.08C3.31,5.73,.5,8.56,.5,12.06c0,4.19,3.35,7.3,7.22,7.3,4.19,0,6.65-3.28,6.61-6.75h-.08c-.61,1.33-1.63,2.59-2.78,3.25v-4.38l1.65-1.33-1.65-1.33v-3.28c1.53,0,3.11-1.01,3.11-2.96M5.8,14.13l-1.21,.61c-.74-.96-1.23-2.32-1.23-4.07,0-.72,.08-1.7,.32-2.39l2.14-.96-.03,6.8h0Zm19.47-5.76l-.81,.64-2.47-2.2-2.86,2.21V.48l-3.89,2.69c.45,.15,.99,.39,.99,1.43v11.81l-1.33,1.01,.12,.12,.67-.46,2.32,2.12,3.11-2.07-.1-.15-.79,.52-1.08-1.08v-7.12l.74-.54,1.7,1.48v6.19c0,3.92-.87,4.73-2.63,5.37v.1c2.93,.12,5.57-.87,5.57-5.89v-6.75l.88-.72-.12-.15h0Zm5.22,10.8l4.51-3.62-.12-.17-2.36,1.87-2.71-2.14v-1.33l4.68-3.3-2.36-3.67-5.2,2.86v6.8l-1.01,.79,.12,.15,.96-.76,3.5,2.54h-.01Zm-.69-5.67v-5.15l2.27,3.55-2.27,1.6ZM53.65,1.61c0-.32-.08-.59-.2-.96h-.07c-.32,.87-.67,1.33-1.68,1.33-.88,0-1.58-.54-1.95-.94,0,.03-2.96,3.42-2.96,3.42l.15,.12,.84-.96c.64,.49,1.21,1.06,2.63,1.08V13.34l-6.06-10.5c-.47-.79-1.28-1.97-2.66-1.97-1.63,0-2.86,1.4-2.66,3.77h.1c.12-.59,.47-1.33,1.18-1.33,.57,0,1.03,.54,1.3,1.03v3.38c-1.87,0-2.93,.87-2.93,2.34,0,.61,.45,1.94,1.72,2.17v-.07c-.17-.17-.34-.32-.34-.67,0-.57,.42-.88,1.18-.88,.12,0,.3,.03,.37,.05v4.38c-2.2,.03-3.89,1.23-3.89,3.31s1.7,2.88,3.47,2.78v-.07c-1.11-.12-1.68-.69-1.68-1.5,0-.88,.64-1.36,1.45-1.36s1.43,.52,1.95,1.11l2.96-3.33-.12-.12-.76,.87c-1.14-1.01-1.87-1.48-3.18-1.68V4.67l8.36,14.57h.45V4.72c1.6-.1,3.03-1.3,3.03-3.11m2.81,17.54l4.51-3.62-.12-.17-2.36,1.87-2.71-2.14v-1.33l4.68-3.3-2.36-3.67-5.2,2.86v6.8l-1.01,.79,.12,.15,.96-.76,3.5,2.54h0Zm-.69-5.67v-5.15l2.27,3.55-2.27,1.6Zm21.22-5.52l-.69,.52-1.97-1.68-2.29,2.07,.94,.88v7.72l-2.34-1.6v-6.26l.81-.57-2.41-2.24-2.24,2.07,.94,.88v7.46l-.15,.1-2.2-1.6v-6.13c0-1.43-.72-1.85-1.63-2.41-.76-.47-1.16-.91-1.16-1.63,0-.79,.69-1.11,.91-1.23-.79-.03-2.98,.76-3.03,2.76-.03,1.03,.47,1.48,.99,1.97,.52,.49,1.01,.96,1.01,1.83v6.01l-1.06,.84,.12,.12,1.01-.79,2.63,2.14,2.51-1.75,2.76,1.75,5.42-3.2v-6.95l1.21-.94-.1-.15h0Zm18.15-5.84l-1.03,.94-2.32-2.02-3.13,2.51V1.19h-.19V18.12c-.34-.05-1.06-.25-1.85-.37V3.58c0-1.03-.74-2.47-2.59-2.47s-3.01,1.56-3.01,2.91h.08c.1-.61,.52-1.16,1.13-1.16s1.18,.39,1.18,1.78v4.04c-1.75,.07-2.81,1.16-2.81,2.34,0,.67,.42,1.92,1.75,1.97v-.1c-.45-.19-.54-.42-.54-.67,0-.59,.57-.79,1.36-.79h.19v6.51c-1.5,.52-2.2,1.53-2.2,2.78,0,1.72,1.38,3.05,3.4,3.05,1.43,0,2.44-.25,3.75-.54,1.06-.22,2.21-.47,2.83-.47,.79,0,1.14,.35,1.14,.91,0,.72-.27,1.08-.69,1.21v.1c1.7-.32,2.69-1.3,2.69-2.83s-1.5-2.54-3.18-2.54c-.87,0-2.44,.27-3.72,.57-1.43,.32-2.66,.47-3.11,.47-.72,0-1.6-.32-1.6-1.28,0-.87,.72-1.56,2.49-1.56,.96,0,1.9,.15,3.08,.42,1.26,.27,2.12,.64,3.2,.64,1.5,0,2.71-.54,2.71-2.74V3.29l1.11-1.01-.12-.15h0Zm-4.24,6.78c-.27,.3-.59,.54-1.11,.54-.57,0-.87-.3-1.14-.54V3.81l.74-.59,1.5,1.28v4.41h0Zm0,2.41c-.25-.25-.57-.47-1.11-.47s-.91,.27-1.14,.47v-2.17c.22,.19,.59,.49,1.14,.49s.87-.25,1.11-.49v2.17Zm0,5.1c0,.84-.42,1.78-1.5,1.78-.17,0-.57-.03-.74-.05v-6.58c.25-.22,.57-.52,1.14-.52,.52,0,.81,.25,1.11,.52v4.86h0Zm8.78,2.74l5.03-3.13v-6.85l-3.25-2.39-5.03,2.88v6.78l-.99,.79,.1,.15,.81-.67,3.33,2.44h0Zm-.37-3.55v-7.3l2.51,1.87v7.3l-2.51-1.87Zm15.01-8.65c-.39,.27-.74,.42-1.11,.42-.39,0-.88-.25-1.14-.57,0,.03-1.87,2.02-1.87,2.02l-1.87-2.02-3.05,2.12,.1,.17,.81-.54,1.11,1.21v6.63l-1.33,1.01,.12,.12,.67-.46,2.49,2.12,3.15-2.09-.1-.15-.81,.49-1.28-1.16v-7.28c.52,.57,1.11,1.06,1.82,1.06,1.28,0,2.14-1.53,2.29-3.11m11.88,9.81l-.94,.59-5.2-7.76,.27-.37c.57,.34,1.08,.81,2.17,.81s2.47-1.14,2.59-3.23c-.27,.37-.81,.81-1.7,.81-.64,0-1.28-.42-1.67-.81l-3.55,5.22,4.71,7.17,3.42-2.27-.1-.17h0Zm-6.31,.19l-.79,.52-1.08-1.08V.48l-3.89,2.69c.45,.15,.99,.39,.99,1.43v11.81l-1.33,1.01,.12,.12,.67-.46,2.32,2.12,3.11-2.07-.1-.15h0Zm22.89-14.39c0-2.02-1.92-2.63-3.53-2.56V.19c.96,.07,1.7,.46,1.7,1.11,0,.45-.32,1.01-1.28,1.01-.76,0-2.02-.45-3.2-.84-1.3-.45-2.54-.87-3.57-.87-2.02,0-3.55,1.5-3.55,3.35,0,1.5,1.16,2.02,1.63,2.21l.03-.07c-.3-.2-.49-.42-.49-1.06,0-.54,.39-1.26,1.43-1.26,.94,0,2.17,.42,3.8,.88,1.4,.39,2.91,.76,3.75,.87v3.28l-1.58,1.3,1.58,1.36v4.49c-.81,.46-1.75,.61-2.56,.61-1.5,0-2.89-.42-4.02-1.68l4.26-2.07V5.73l-5.2,2.32c.54-1.38,1.55-2.41,2.66-3.08l-.03-.08c-3.08,.84-5.89,3.67-5.89,7.17,0,4.19,3.35,7.3,7.22,7.3,4.19,0,6.65-3.28,6.61-6.75h-.07c-.61,1.33-1.63,2.59-2.78,3.25v-4.38l1.65-1.33-1.65-1.33v-3.28c1.53,0,3.11-1.01,3.11-2.96m-8.78,11.56l-1.21,.61c-.74-.96-1.23-2.32-1.23-4.07,0-.72,.07-1.7,.32-2.39l2.14-.96-.03,6.8h0Zm11.93-12.31l-2.17,1.82,1.85,2.09,2.17-1.82-1.85-2.09Zm3.3,15.15l-.79,.52-1.08-1.08v-7.17l.91-.72-.12-.15-.76,.59-1.8-2.14-2.96,2.07,.1,.17,.74-.49,.99,1.23v6.61l-1.33,1.01,.12,.12,.67-.46,2.32,2.12,3.11-2.07-.1-.15h0Zm16.63-.1l-.74,.49-1.16-1.11v-7.03l.94-.72-.12-.15-.84,.64-2.47-2.2-2.78,2.17-2.44-2.17-2.74,2.14-1.85-2.14-2.96,2.07,.1,.17,.74-.49,1.06,1.21v6.61l-.81,.81,2.36,2,2.29-2.07-.94-.88v-7.04l.61-.45,1.7,1.48v6.16l-.79,.81,2.39,2,2.24-2.07-.94-.88v-7.04l.59-.47,1.72,1.5v6.06l-.69,.72,2.41,2.2,3.18-2.17-.1-.15h.02Zm8.6-1.5l-2.36,1.87-2.71-2.14v-1.33l4.68-3.3-2.36-3.67-5.2,2.86v6.93l3.57,2.59,4.51-3.62-.12-.17h0Zm-5.08-1.88v-5.15l2.27,3.55-2.27,1.6Zm14.12-.97l-2-1.53c1.33-1.16,1.8-2.63,1.8-3.69,0-.15-.03-.42-.05-.67h-.08c-.19,.54-.72,1.01-1.53,1.01s-1.26-.45-1.75-.99l-4.58,2.54v3.72l1.75,1.38c-1.75,1.55-2.09,2.51-2.09,3.4s.52,1.67,1.41,2.02l.07-.12c-.22-.19-.42-.32-.42-.79,0-.34,.35-.88,1.14-.88,1.01,0,1.63,.69,1.95,1.06,0-.03,4.38-2.69,4.38-2.69v-3.77h0Zm-1.03-3.05c-.69,1.23-2.21,2.44-3.11,3.13l-1.11-.94v-3.62c.45,.99,1.36,1.82,2.54,1.82,.69,0,1.14-.12,1.67-.39m-1.9,8.13c-.52-1.16-1.63-2-2.86-2-.3,0-1.21-.03-2,.46,.47-.79,1.87-2.21,3.65-3.28l1.21,1.01v3.8Z" fill="rgb(0, 0, 0)" stroke="none" stroke-width="1px" stroke-dasharray="none" stroke-linecap="butt" stroke-linejoin="miter" stroke-opacity="1" fill-opacity="1" opacity="1"></path></svg></g>
        </g>
      <g clip-path="url(#nyt-cp13)">
      <g transform="translate(19, 16)" color="rgb(0, 0, 0)"><svg aria-hidden="true" class="css-1fe7a5q" viewBox="0 0 16 16" fill="rgb(0, 0, 0)" stroke-width="1px" font-family="nyt-franklin, helvetica, arial, sans-serif" width="16" height="16"><rect x="1" y="3" fill="#333" width="14" height="2" stroke="none" stroke-width="1px" stroke-dasharray="none" stroke-linecap="butt" stroke-linejoin="miter" stroke-opacity="1" fill-opacity="1" opacity="1"></rect><rect x="1" y="7" fill="#333" width="14" height="2" stroke="none" stroke-width="1px" stroke-dasharray="none" stroke-linecap="butt" stroke-linejoin="miter" stroke-opacity="1" fill-opacity="1" opacity="1"></rect><rect x="1" y="11" fill="#333" width="14" height="2" stroke="none" stroke-width="1px" stroke-dasharray="none" stroke-linecap="butt" stroke-linejoin="miter" stroke-opacity="1" fill-opacity="1" opacity="1"></rect></svg></g>
      </g>
        <g clip-path="url(#nyt-cp14)">
        <g transform="translate(352, 12)" color="rgb(0, 0, 0)"><svg class="css-1p66nw2" viewBox="0 0 20 20" fill="#333" xmlns="http://www.w3.org/2000/svg" aria-hidden="true" stroke-width="1px" font-family="Times" width="24" height="24"><path d="M14.2379 6C14.2379 8.20914 12.4471 10 10.2379 10C8.02878 10 6.23792 8.20914 6.23792 6C6.23792 3.79086 8.02878 2 10.2379 2C12.4471 2 14.2379 3.79086 14.2379 6Z" fill="#333" stroke="none" stroke-width="1px" stroke-dasharray="none" stroke-linecap="butt" stroke-linejoin="miter" stroke-opacity="1" fill-opacity="1" opacity="1"></path><path d="M16.2355 14.5714C16.2371 14.5477 16.2379 14.5239 16.2379 14.5C16.2379 13.1193 13.5516 12 10.2379 12C6.92421 12 4.23792 13.1193 4.23792 14.5C4.23792 14.5239 4.23872 14.5477 4.24032 14.5714H4.23792V18H16.2379V14.5714H16.2355Z" fill="#333" stroke="none" stroke-width="1px" stroke-dasharray="none" stroke-linecap="butt" stroke-linejoin="miter" stroke-opacity="1" fill-opacity="1" opacity="1"></path></svg></g>
        </g>
  <g style="isolation:isolate">
  </g></svg>