<svg xmlns="http://www.w3.org/2000/svg" viewBox="0 0 720 220" width="720" height="220"><defs><clipPath id="ov0"><rect x="30" y="30" width="209.3" height="158" rx="10"/></clipPath><linearGradient id="bg1" x1="0.1464" y1="0.1464" x2="0.8536" y2="0.8536"><stop offset="0" stop-color="rgb(121,184,255)"/><stop offset="1" stop-color="rgb(210,168,255)"/></linearGradient><clipPath id="ct2"><rect x="31" y="151" width="207.3" height="36"/></clipPath><clipPath id="ov3"><rect x="255.3" y="30" width="209.3" height="158" rx="10"/></clipPath><radialGradient id="bg4" gradientUnits="userSpaceOnUse" cx="318.5266" cy="67" r="167.6861"><stop offset="0" stop-color="rgb(86,211,100)"/><stop offset="0.7" stop-color="rgb(26,74,37)"/></radialGradient><clipPath id="ct5"><rect x="256.3" y="151" width="207.3" height="36"/></clipPath><clipPath id="ov6"><rect x="480.7" y="30" width="209.3" height="158" rx="10"/></clipPath><linearGradient id="bg7" x1="0.1464" y1="0.8536" x2="0.8536" y2="0.1464" spreadMethod="repeat"><stop offset="0" stop-color="rgb(33,38,45)"/><stop offset="12" stop-color="rgb(33,38,45)"/><stop offset="12" stop-color="rgb(48,54,61)"/><stop offset="24" stop-color="rgb(48,54,61)"/></linearGradient><clipPath id="ct8"><rect x="481.7" y="151" width="207.3" height="36"/></clipPath><path id="g0" d="M852 1288q262 0 447-189.5T1484 641q0-267-190-454.5T834-1Q571-1 382 189.5T193 645q0 271 191 457t468 186m-15-81 1-1122q235 0 398 162t163 395q0 252-186 420-142 130-376 145"/><path id="g1" d="M258 475v211h362q138 0 214.5 71T911 957v2q0 130-76.5 200.5T620 1230H258v213h426q147 0 257.5-60.5t173-169T1177 960v-2q0-144-62.5-253t-173-169.5T684 475ZM127 0v1443h261V0Z"/><path id="g2" d="M108 0v1061h253V0Zm127 1212q-59 0-100 40.5T94 1349q0 58 41 98t100 40 99.5-40 40.5-98q0-56-40.5-96.5T235 1212"/><path id="g3" d="m25 0 342 529-338 532h284l211-371h6l209 371h276L675 537 1012 0H736L517 380h-5L294 0Z"/><path id="g4" d="M569-21q-159 0-273.5 67t-176 190.5T58 528v1q0 167 61.5 291.5T293 1014t264 69 262.5-66.5T990 830t60-280v-81H182v168h747L808 480v97q0 103-31.5 172T689 852t-129 34-130-35.5T340.5 746 308 577v-98q0-95 32.5-163t92-104.5T574 175q62 0 109 19.5t77 50.5 42 66l2 7h236l-3-11q-12-61-47.5-119.5t-94-106-140-75T569-21"/><path id="g5" d="M109 0v1443h252V0Z"/><path id="g6" d="M125 474v224h645V474Z"/><path id="g7" d="M171 0v867H26v194h145v100q0 103 34.5 170.5t107 100T502 1464q36 0 73-3t60-7v-176q-15 3-35 4t-40 1q-72 0-106.5-32.5T419 1154v-93h213V867H424V0Z"/><path id="g8" d="M415-18q-106 0-186 40.5t-125 113T59 303v1q0 95 47.5 163t138 107.5T463 622l407 25V481l-371-24q-91-5-139.5-42.5T311 314v-1q0-65 49-102t131-37q71 0 127 28.5t88.5 78.5T739 393v319q0 79-50 124.5T546 882q-88 0-140.5-37T340 750l-2-9H104l1 12q9 95 64 169.5T322 1040t233 43q133 0 231-44t152-123.5T992 730V0H739v163h-5q-30-56-78.5-96.5T546 4 415-18"/><path id="g9" d="M498-21q-167 0-248 72.5T169 288v579H19v194h150v268h257v-268h197V867H426V310q0-78 34-107.5T562 173q18 0 33 1.5t28 3.5V-12q-22-3-54-6t-71-3"/><path id="g10" d="M109 0v1443h252V882h6q41 96 124.5 148.5T694 1083q115 0 198.5-52.5t129.5-147 46-222.5V0H816v611q0 122-58.5 190.5T592 870q-69 0-121-33t-81-91-29-135V0Z"/><path id="g11" d="M462-21q-116 0-198 47.5T139 163 96 375v686h253V426q0-113 52.5-174T560 191q53 0 95.5 18.5t73.5 52 47 81T792 447v614h253V0H792v167h-5q-28-57-73-99.5T606 2 462-21"/><path id="g12" d="M127 0v1443h261V844h697v599h262V0h-262v624H388V0Z"/><path id="g13" d="M478 0v1223H48v220h1122v-220H740V0Z"/><path id="g14" d="M127 0v1443h302L868 346h7l439 1097h302V0h-235v1022h-120l266 381L960 0H783L216 1403l266-381H362V0Z"/><path id="g15" d="M127 0v1443h261V220h653V0Z"/><path id="g16" d="m40-295 78 531h245L216-295Z"/><path id="g17" d="M518-21q-140 0-239 41.5T124 136 57 309l-1 9h248l2-9q14-68 66.5-106T518 165q61 0 104 15t66 43.5 23 66.5v1q0 48-32 76.5T565 415l-177 39q-101 23-169 63.5t-102 100T83 756v1q0 98 53 171t149 114 224 41q133 0 227.5-44T883 920.5 939 754v-11H705l-1 8q-8 64-58 105t-137 41q-54 0-94-16t-61.5-44.5T332 770v-1q0-30 14.5-54t48-41.5T483 643l176-39q110-24 177-62.5t98-94T965 315v-1q0-100-57.5-175.5T749 21 518-21"/><path id="g18" d="M101 0v1061h253V878h5q24 96 87.5 150.5T602 1083q24 0 44.5-3t35.5-7V845q-16 6-43 10t-59 4q-70 0-121-28.5T381 747t-27-133V0Z"/><path id="g19" d="M387 0 12 1061h269l245-827h5l244 827h264L666 0Z"/><path id="g20" d="M496-21q-134 0-232.5 66.5T111.5 236 58 531v1q0 171 53.5 294.5t152 190T495 1083q75 0 139-24.5T747 988t79-109h5v564h253V0H831v180h-5q-30-63-78-107.5t-111.5-69T496-21m76 212q77 0 135.5 42T799 351t33 179v1q0 104-33.5 180T707 828.5 572 870q-79 0-136.5-41t-89-116.5T315 532v-1q0-105 31-181.5T435 232t137-41"/><path id="g21" d="M572-21q-156 0-271.5 66.5t-179 190T58 530v2q0 171 64 294.5t179.5 190T572 1083t270.5-66.5 180-189.5 64.5-295v-2q0-172-64-295.5T844 45 572-21m1 204q79 0 136 40.5T797.5 342 829 530v2q0 110-31.5 187.5T708 838t-136 41q-77 0-135-41t-90-118.5T315 532v-2q0-110 32-188t90-118.5T573 183"/><path id="g22" d="M101 0v1061h253V894h5q42 86 123 137.5t202 51.5q174 0 270-106t96-291V0H797v636q0 112-52.5 173T586 870q-70 0-122.5-32t-81-89.5T354 615V0Z"/><path id="g23" d="M635-25q-166 0-290.5 50T148 168 68 390l-1 16h250l2-12q10-61 53-106t112.5-69.5T644 194t156 25 102 71 36 108v1q0 80-60.5 126.5T678 602l-155 32q-142 29-236 83.5t-141 135T99 1040v1q1 128 69.5 223.5T358 1414t277 54q158 0 276-52t186-145 75-217l1-17H923l-2 13q-8 62-46 106.5t-99.5 68.5-142.5 24q-83 0-144-24.5t-94-68-33-101.5v-1q0-50 26.5-87.5t82.5-64T614 858l155-32q150-31 245.5-84t141-132.5T1201 417v-1q0-135-68-234T938.5 29 635-25"/><path id="g24" d="M526 0 27 1443h286L676 278h5l363 1165h286L831 0Z"/><path id="g25" d="M761-25q-158 0-284 51.5T262 176 125.5 413 78 727v1q0 230 83 395.5t235.5 255T757 1468q171 0 300-61t211-165.5 109-237.5l3-16h-265l-3 10q-41 116-131.5 180T758 1242q-129 0-221.5-61T394 1005.5 344 730v-1q0-124 29.5-221.5t84.5-166T590.5 237 765 201q108 0 190.5 41.5t130 116.5 49.5 175l1 22H781v203h611V603q0-147-42.5-263t-124-197.5T1027 18 761-25"/><path id="g26" d="M238-16q-62 0-104 42.5T92 130t42 103.5T238 276q61 0 103.5-42.5T384 130 341.5 26.5 238-16"/><path id="g27" d="m69 0 532 1443h138v-233h-57L258 0Zm241 413 56 153h652l56-153ZM1122 0 698 1210v233h81L1311 0Z"/><path id="g28" d="M523-19q-122 0-205 46.5t-124.5 136T152 380v698h174V422q0-145 56.5-216T568 135q71 0 125.5 21t91.5 60.5 55.5 96T859 440v638h174V0H859v161h-16q-26-57-71-97.5T664.5 2 523-19"/><path id="g29" d="M545-8Q379-8 304.5 59T230 280v654H60v144h170v279h180v-279h236V934H410V324q0-95 36-136.5T566 146q23 0 39.5 1t40.5 3V2q-25-4-50-7t-51-3"/><path id="g30" d="M172 0v1506h174V916h16q41 86 118 133.5t196 47.5q121 0 205-46.5T1009 915t44-217V0H879v656q0 146-61.5 216.5T627 943q-86 0-149-37t-97.5-105T346 638V0Z"/><path id="g31" d="M605-19q-153 0-264.5 67.5T168.5 241 108 538v2q0 173 60.5 298t172 192 264.5 67q154 0 265-67t171.5-192 60.5-298v-2q0-172-60.5-297T870 48.5 605-19m0 154q102 0 173 48t108.5 138T924 538v2q0 128-37.5 218T778 895.5 605 943t-173-47.5T323.5 758 286 540v-2q0-127 37.5-217T432 183t173-48"/><path id="g32" d="M162 0v1078h174V918h16q31 85 105 132t183 47q25 0 49.5-2.5t37.5-4.5V921q-27 5-52.5 7.5T620 931q-83 0-147-33t-100.5-92T336 668V0Z"/><path id="g33" d="M602-19q-154 0-264.5 68t-170 192.5T108 535v1q0 167 59.5 293T336 1026t255 71q147 0 252.5-68t162-189.5T1062 557v-68H198v139h775l-86-127v69q0 127-38 209T744 901.5 590 942t-155.5-42.5T326 774t-40-204v-69q0-115 39-196.5t111-125T606 136q73 0 127 20t89 51 49 63l4 9h174l-2-8q-14-55-49.5-106.5t-91.5-93-132.5-66T602-19"/><path id="g34" d="M560-19q-136 0-238 69T164 244.5 108 538v2q0 169 56 294t157.5 194 238.5 69q74 0 139.5-23.5T816 1008t80-100h16v598h174V0H912v172h-16q-33-60-83-102.5T699 4 560-19m40 154q98 0 169 49t109 139.5T916 538v2q0 125-38 215T769 894t-169 49-168.5-48.5-108-138.5T286 540v-2q0-125 37.5-215.5t108-139T600 135"/><path id="g35" d="M162 0v1078h174V914h16q36 87 110.5 135t180.5 48q73 0 131-24t100-66.5 67-98.5h16q29 57 78 99.5t113.5 66T1287 1097q110 0 186.5-41T1590 936.5t40-191.5V0h-174v705q0 80-24.5 132.5t-74.5 79-126 26.5q-75 0-131-34t-87-90.5T982 693V0H808v732q0 64-27.5 111.5t-78 73.5T584 943q-70 0-126.5-37t-89-99.5T336 668V0Z"/><path id="g36" d="M458-19q-102 0-183.5 39t-129 111T98 301v2q0 96 46 164.5T278 575t213 46l396 24V506l-375-24q-123-7-179.5-51T276 307v-2q0-82 62-127.5T494 132q89 0 158 35.5T760.5 264 800 402v336q0 100-60.5 152.5T558 943q-97 0-159-34.5T316 811l-1-3H141l1 6q14 85 70.5 148.5t146.5 99 205 35.5q132 0 223.5-43t139-123.5T974 738V0H800v159h-16q-34-57-82.5-97T592 1.5 458-19"/><path id="g37" d="M532-19q-120 0-212 36.5T172.5 120 107 275h178q22-67 86-108t167-41q73 0 128.5 21.5t87.5 59 32 86.5v2q0 55-44 93.5T598 451l-167 40q-101 24-166 62.5t-96 95T138 782v1q0 90 52.5 161T334 1056t205 41q113 0 200.5-35.5t141-100.5T946 808H775q-17 64-78 104t-159 40q-64 0-114-20.5T345 875t-29-84v-2q0-36 19-64t59-49 103-37l166-40q102-24 168.5-63t99.5-95 33-133v-2q0-96-57-169.5T752.5 22 532-19"/><path id="g38" d="M162-360v1438h174V906h16q33 60 83 102.5t114 65.5 139 23q137 0 238.5-69.5T1084 833t56-293v-2q0-169-56-294T926.5 50 688-19q-74 0-139.5 23.5T432.5 70 352 170h-16v-530Zm486 495q99 0 169 48.5t107.5 139T962 538v2q0 126-37.5 216T817 894.5 648 943q-98 0-169-49T370 755t-38-215v-2q0-124 38-214.5T479 184t169-49"/><path id="g39" d="M172 0v1506h174V0Z"/><path id="g40" d="M166 0v1078h174V0Zm88 1286q-49 0-84.5 35.5T134 1406q0 50 35.5 85t84.5 35q50 0 85-35t35-85q0-49-35-84.5t-85-35.5"/><path id="g41" d="M162 0v1078h174V916h16q41 86 118 133.5t196 47.5q182 0 279.5-103.5T1043 698V0H869v656q0 146-61.5 216.5T617 943q-86 0-149-37t-97.5-105T336 638V0Z"/><path id="g42" d="M184 0v1443h180V819h792v624h180V0h-180v657H364V0Z"/><path id="g43" d="M559 0v1281H94v162h1110v-162H739V0Z"/><path id="g44" d="M184 0v1443h209L887 239h16l494 1204h209V0h-168v1102h-88l202 301L971 0H819L239 1403l201-301h-88V0Z"/><path id="g45" d="M184 0v1443h180V162h696V0Z"/><path id="g46" d="M304-10q-53 0-91.5 38.5T174 120q0 54 38.5 92t91.5 38q54 0 92-38t38-92q0-53-38-91.5T304-10"/><path id="g47" d="M184 0v1443h495q214 0 366.5-85.5T1279 1111t81-388v-2q0-227-81-388.5t-233-247T679 0Zm180 162h303q161 0 275 66t174 191 60 300v2q0 176-60.5 301.5t-174.5 192-274 66.5H364Z"/><path id="g48" d="M603-19q-151 0-262 69T169 245t-61 297v2q0 168 60.5 292T340 1028.5t262 68.5q131 0 226-46t152-123.5 73-173.5l1-6H881l-1 3q-20 80-91 136t-187 56q-97 0-168-49T324.5 755.5 286 544v-2q0-124 39-215.5T435 185t167-50q109 0 178 47t99 137l2 6 172 1-2-11q-22-97-78-172.5T825 24 603-19"/><path id="g49" d="M765-34q-196 0-339 92T205.5 319 128 720v2q0 233 77.5 402t220 261 338.5 92q152 0 276.5-59.5t205.5-165 102-243.5l-1-2h-181l-1 2q-24 93-81 160.5T945.5 1274 764 1311q-138 0-239.5-72T368 1035t-55-313v-2q0-180 55-312t156.5-204T765 132q101 0 183 32.5t138 93 78 143.5l2 2h182v-2q-24-132-104-229.5T1041.5 20 765-34"/><path id="g50" d="M234 0v934H55v144h179v120q0 108 35.5 178.5t105.5 105 172 34.5q32 0 60.5-2.5t55.5-7.5v-139q-16 3-37 4t-44 1q-93 0-133.5-45T408 1193v-115h245V934H408V0Z"/><path id="g51" d="M147 500v162h672V500Z"/><path id="g52" d="M657-34q-158 0-275.5 51.5t-186 142T116 367l-1 11h180l1-11q7-72 55.5-124.5t130-81.5T667 132q98 0 174.5 31.5T962 251t44 129v1q0 90-66 151.5T725 627l-160 35q-144 32-235.5 87.5t-135 135T151 1068v1q1 120 65.5 212t179 144 263.5 52q144 0 255-51.5t176.5-138.5 72.5-195l1-14H984l-2 13q-10 64-52 113.5T818 1283t-164 28q-90 0-162-28t-114.5-80.5T335 1074v-1q0-57 28-102.5t88.5-78.5T610 837l160-36q151-33 243-86t134.5-129.5T1190 405v-1q0-135-66-233T938 19.5 657-34"/><path id="g53" d="M601 0 69 1443h189L682 233h16l424 1210h189L779 0Z"/><path id="g54" d="M782-34q-150 0-270.5 53t-206 152T174 409t-46 312v2q0 228 81 397.5t228.5 263T782 1477q160 0 285.5-56.5t207-158.5 109.5-239l2-10h-182l-3 10q-44 140-151 214t-268 74q-143 0-248.5-72.5T370 1034t-58-311v-2q0-136 32.5-245t94-185.5T587 173t196-41q129 0 226.5 51.5T1161 327t54 214v35H810v158h585V558q0-133-43.5-242T1227 128.5 1033 8 782-34"/><path id="g55" d="M370 0 68 1078h174l212-862h16l241 862h165l241-862h16l212 862h173L1216 0h-175L800 834h-16L544 0Z"/><path id="g56" d="M708-141H589v1725h119ZM137 380h160q13-123 109-196t243-73q149 0 241 75t92 195q0 103-67.5 165T694 646l-126 30q-204 51-299.5 147.5T173 1075q0 121 59 210.5t165.5 139T648 1474q136 0 239.5-48.5t165-137T1120 1082H962q-14 116-98 183t-216 67q-144 0-227.5-68T337 1080q0-99 63.5-158T614 824l127-32q215-54 309.5-149t94.5-256q0-126-61.5-220T910 21 647-31q-149 0-260.5 50t-176 142.5T137 380"/><path id="g57" d="M189 0v1083h163V892h14q43 101 133.5 156t213.5 55q177 0 270.5-102.5T1077 703V0H907v662q0 149-61 221t-188 72q-135 0-217-87t-82-229V0Z"/><path id="g58" d="M701 1101q126 0 219-56.5T1064.5 885t51.5-242V440q0-138-51.5-241.5T920 38.5 701-18q-117 0-200.5 47.5T382 166h-19v-532H190v1449h168V920h18q42 89 125.5 135t199.5 46m-49-147q-134 0-213.5-91.5T359 617V463q0-154 79.5-245.5T652 126t213.5 92T945 463v154q0 154-79.5 245.5T652 954"/><path id="g59" d="M1156 793V0h-153v748q0 102-35.5 155T864 956q-71 0-112-60.5T711 730V0H559v749q0 102-35.5 154.5T419 956q-72 0-114-60.5T263 730V0H110v1083h152V932h18q20 80 75.5 125.5T487 1103t128-44 69-125h18q21 78 81.5 123.5T926 1103q114 0 172-78.5t58-231.5"/><path id="g60" d="M652 1354q-60 0-100.5 39t-40.5 97q0 57 40.5 96.5T652 1626t100.5-39.5T793 1490q0-58-40.5-97T652 1354M1107 0H208v133h372v817H211v133h537V133h359Z"/><path id="g61" d="M238 793q0 140 110 225t289 85q170 0 277-78t122-212H872q-15 73-79 115t-159 42q-103 0-165-45.5T407 802q0-64 45-102.5T599 637l153-34q158-36 232.5-107.5T1059 307q0-148-115.5-237T635-19q-184 0-299 79.5T207 279h173q19-77 87.5-119.5T641 117q111 0 176.5 48T883 292q0 68-44 106.5T692 461l-161 37q-293 67-293 295"/><path id="g62" d="M448 1372h168v-291h440V943H618V322q0-90 60.5-138T854 136q57 0 111.5 1.5t87.5 5.5V5q-32-3-95.5-6.5T842-5Q708-5 620.5 30t-130 107T448 320v623H159v138h289Z"/><path id="g63" d="M523-19q-155 0-250 89.5T178 307q0 144 100 226.5T563 625l298 15v98q0 105-60.5 161.5T627 956q-94 0-156.5-39T386 806H219q10 86 65.5 151T429 1058.5t200 36.5q191 0 296-93t105-261V-1H868v165h-17Q812 76 727 28.5T523-19m49 142q82 0 147.5 34T823 249.5 861 381v133l-279-13q-232-11-232-190 0-87 59.5-137.5T572 123"/><path id="g64" d="M1107 0H208v133h371v1244H211v133h538V133h358Z"/><path id="g65" d="M565-18q116 0 199.5 46.5T890 164h19V0h167v1510H903V917h-18q-36 89-119.5 136.5T565 1101q-126 0-219-56.5T201.5 885 150 643V440q0-137 51.5-240.5T346 39t219-57m50 147q-135 0-214.5 92T321 466v153q0 154 79.5 245.5T615 956q133 0 212.5-91.5T907 619V466q0-154-79.5-245.5T615 129"/><path id="g66" d="M633-19q-144 0-249.5 58.5T220.5 206 163 460v163q0 146 57.5 253.5t163 166.5 249.5 59 249.5-59 163-166.5T1103 623V460q0-146-57.5-254t-163-166.5T633-19m0 978q-139 0-220.5-94.5T331 607V476q0-164 81.5-258T633 124t220.5 94T935 476v131q0 163-81.5 257.5T633 959"/><path id="g67" d="M178 0v1443h261V844h697v599h262V0h-262v624H439V0Z"/><path id="g68" d="M536 0v1223H92v220h1150v-220H798V0Z"/><path id="g69" d="M178 0v1443h300L909 337h17l430 1106h300V0h-235v1022h-128l259 381L1006 0H829L283 1403l258-381H413V0Z"/><path id="g70" d="M178 0v1443h261V220h661V0Z"/><path id="g71" d="M664 1517 235-363H0l429 1880Z"/><path id="g72" d="M780-36q-205 0-354 92T197 317.5 117 720v2q0 235 80.5 404t229 261 352.5 92q165 0 298-64.5t216-178.5 99-261v-9h-257l-1 5q-17 85-67 148.5T944 1218t-165 35q-121 0-210-64.5T432 1005t-48-283v-2q0-162 48-281t137-184 212-65q91 0 164 32t122.5 90.5T1134 449l2 7h257l-1-8q-19-145-100.5-253.5T1079 25 780-36"/><path id="g73" d="M679-36q-167 0-291 52T193 161t-80 217l-1 14h254l1-9q6-60 47.5-105t112-70T688 183q86 0 152.5 26.5t104 73.5T982 392v1q0 77-60.5 126T722 598l-155 32q-148 31-241.5 87.5T187.5 856 143 1045v1q1 130 69.5 227T402 1424.5t277 54.5q160 0 277.5-53.5t185-145.5 75.5-209l1-13H968l-2 13q-8 55-45.5 98t-99 67.5T677 1260q-79 0-140-23.5t-96-67.5-35-106v-1q0-50 25.5-88.5T513 907t145-47l155-33q152-32 247.5-85t140-131.5T1245 422v-1q0-140-69-242.5T980.5 20 679-36"/><path id="g74" d="M166 0v1078h174V0Zm88 1286q-49 0-84.5 35.5T134 1406q0 50 35.5 85t84.5 35q50 0 85-35t35-85q0-49-35-84.5t-85-35.5"/><path id="g75" d="M162 0v1078h174V916h16q41 86 118 133.5t196 47.5q182 0 279.5-103.5T1043 698V0H869v656q0 146-61.5 216.5T617 943q-86 0-149-37t-97.5-105T336 638V0Z"/><path id="g76" d="M254-378q-17 0-38 1.5t-39 4.5v143q16-3 35-4t37-1q74 0 121.5 38T447-65l20 64L68 1078h186L586 82l-69 109h82L530 82l331 996h183L623-66q-44-121-93-189t-114.5-95.5T254-378"/><path id="g77" d="M605-19q-153 0-264.5 67.5T168.5 241 108 538v2q0 173 60.5 298t172 192 264.5 67q154 0 265-67t171.5-192 60.5-298v-2q0-172-60.5-297T870 48.5 605-19m0 154q102 0 173 48t108.5 138T924 538v2q0 128-37.5 218T778 895.5 605 943t-173-47.5T323.5 758 286 540v-2q0-127 37.5-217T432 183t173-48"/><path id="g78" d="M523-19q-122 0-205 46.5t-124.5 136T152 380v698h174V422q0-145 56.5-216T568 135q71 0 125.5 21t91.5 60.5 55.5 96T859 440v638h174V0H859v161h-16q-26-57-71-97.5T664.5 2 523-19"/><path id="g79" d="M162 0v1078h174V918h16q31 85 105 132t183 47q25 0 49.5-2.5t37.5-4.5V921q-27 5-52.5 7.5T620 931q-83 0-147-33t-100.5-92T336 668V0Z"/><path id="g80" d="M602-19q-154 0-264.5 68t-170 192.5T108 535v1q0 167 59.5 293T336 1026t255 71q147 0 252.5-68t162-189.5T1062 557v-68H198v139h775l-86-127v69q0 127-38 209T744 901.5 590 942t-155.5-42.5T326 774t-40-204v-69q0-115 39-196.5t111-125T606 136q73 0 127 20t89 51 49 63l4 9h174l-2-8q-14-55-49.5-106.5t-91.5-93-132.5-66T602-19"/><path id="g81" d="M458-19q-102 0-183.5 39t-129 111T98 301v2q0 96 46 164.5T278 575t213 46l396 24V506l-375-24q-123-7-179.5-51T276 307v-2q0-82 62-127.5T494 132q89 0 158 35.5T760.5 264 800 402v336q0 100-60.5 152.5T558 943q-97 0-159-34.5T316 811l-1-3H141l1 6q14 85 70.5 148.5t146.5 99 205 35.5q132 0 223.5-43t139-123.5T974 738V0H800v159h-16q-34-57-82.5-97T592 1.5 458-19"/><path id="g82" d="M172 0v1506h174V0Z"/><path id="g83" d="M162-360v1438h174V906h16q33 60 83 102.5t114 65.5 139 23q137 0 238.5-69.5T1084 833t56-293v-2q0-169-56-294T926.5 50 688-19q-74 0-139.5 23.5T432.5 70 352 170h-16v-530Zm486 495q99 0 169 48.5t107.5 139T962 538v2q0 126-37.5 216T817 894.5 648 943q-98 0-169-49T370 755t-38-215v-2q0-124 38-214.5T479 184t169-49"/><path id="g84" d="M1085 750H917q-15 95-89 152t-178 57q-142 0-218-95t-76-272V492q0-177 76-272t218-95q105 0 178.5 56.5T917 332h168q-21-162-137-256.5T653-19q-221 0-344 129T186 470v144q0 232 123 361t344 129q180 0 295.5-95T1085 750"/><path id="g85" d="M523-19q-155 0-250 89.5T178 307q0 144 100 226.5T563 625l298 15v98q0 105-60.5 161.5T627 956q-94 0-156.5-39T386 806H219q10 86 65.5 151T429 1058.5t200 36.5q191 0 296-93t105-261V-1H868v165h-17Q812 76 727 28.5T523-19m49 142q82 0 147.5 34T823 249.5 861 381v133l-279-13q-232-11-232-190 0-87 59.5-137.5T572 123"/><path id="g86" d="M701 1101q126 0 219-56.5T1064.5 885t51.5-242V440q0-138-51.5-241.5T920 38.5 701-18q-117 0-200.5 47.5T382 166h-19v-532H190v1449h168V920h18q42 89 125.5 135t199.5 46m-49-147q-134 0-213.5-91.5T359 617V463q0-154 79.5-245.5T652 126t213.5 92T945 463v154q0 154-79.5 245.5T652 954"/><path id="g87" d="M448 1372h168v-291h440V943H618V322q0-90 60.5-138T854 136q57 0 111.5 1.5t87.5 5.5V5q-32-3-95.5-6.5T842-5Q708-5 620.5 30t-130 107T448 320v623H159v138h289Z"/><path id="g88" d="M1077 1083V0H914v191h-14Q857 90 766.5 35T553-20Q376-20 282.5 82.5T189 380v703h170V421q0-149 61-221t188-72q135 0 217 87t82 229v639Z"/><path id="g89" d="M590 485V0H424v954H183v129h405V807h22q30 149 128.5 226.5T994 1111q47 0 89-6.5t68-17.5V906q-37 15-85.5 23t-93.5 8q-180 0-281-120.5T590 485M926 0H205v129h721Z"/><path id="g90" d="M645 963q-136 0-213-89.5T355 624h571q0 159-74.5 249T645 963m281-686h165q-16-89-75.5-156t-151-103.5T658-19q-223 0-347 128T187 468v162q0 143 57 249t160.5 165 241.5 59q141 0 241-60t153.5-172 53.5-270V499H355v-42q0-154 82.5-245T658 121q102 0 174 41.5T926 277"/><path id="g91" d="M1082 154V0H230v1443h852v-154H407V810h638V663H407V154Z"/><path id="g92" d="M1107 0H208v133h371v1244H211v133h538V133h358Z"/><path id="g93" d="M1156 793V0h-153v748q0 102-35.5 155T864 956q-71 0-112-60.5T711 730V0H559v749q0 102-35.5 154.5T419 956q-72 0-114-60.5T263 730V0H110v1083h152V932h18q20 80 75.5 125.5T487 1103t128-44 69-125h18q21 78 81.5 123.5T926 1103q114 0 172-78.5t58-231.5"/><path id="g94" d="M189 0v1083h163V892h14q43 101 133.5 156t213.5 55q177 0 270.5-102.5T1077 703V0H907v662q0 149-61 221t-188 72q-135 0-217-87t-82-229V0Z"/><path id="g95" d="M721 0H545v1289H109v154h1048v-154H721Z"/><path id="g96" d="M415 722q0 252 76 468.5T716 1575h169q-103-144-168-280t-95.5-276.5T591 722t30.5-296.5T717 149t168-280H716Q567 38 491 253.5T415 722"/><path id="g97" d="M851 722q0 252-76 468.5T550 1575H381q103-144 168-280t95.5-276.5T675 722t-30.5-296.5T549 149 381-131h169Q699 38 775 253.5T851 722"/><path id="g98" d="M178 0v1443h935v-220H439V837h637V628H439V220h674V0Z"/><path id="g99" d="M162 0v1517h252V0Z"/><path id="g100" d="M621-22q-163 0-280 69T160.5 243 97 544v1q0 172 63 300t178 199.5 271 71.5 269-69 174-192 61-288v-83H224v168h766L870 494v101q0 108-32.5 180t-91 107.5T612 918t-135.5-37T383 771.5 349 595V493q0-99 33.5-170.5T478 213t148-38q67 0 115 19.5t78 47 42 51.5l3 7h239l-3-9q-12-53-47-108T960 81.5t-142.5-75T621-22"/><path id="g101" d="M151 0v1093h253V923h17q35 92 114 142.5t187 50.5q74 0 134-24.5t102.5-69T1025 917h17q27 60 76 104.5t114.5 69.5 141.5 25q109 0 188-44t121.5-125 42.5-195V0h-253v690q0 71-21.5 118t-65.5 71-110 24q-64 0-112-29.5t-74-79-26-112.5V0H811v708q0 61-23 104.5t-67 67T616 903t-109-31-75.5-85.5T404 666V0Z"/><path id="g102" d="M151 0v1093h253V926h17q40 88 118.5 139t197.5 51q183 0 279.5-106.5T1113 707V0H860v649q0 127-53 190.5T642 903q-73 0-126.5-33T433 777.5 404 637V0Z"/><path id="g103" d="M584-5Q395-5 311 64t-84 227v608H58v194h169v268h257v-268h231V899H484V351q0-81 34.5-118T631 196q26 0 44 1t40 4V6q-27-4-60.5-7.5T584-5"/><path id="g104" d="M151 0v1093h253V926h17q28 88 100.5 137t180.5 49q29 0 56-3.5t46-8.5V874q-31 6-61.5 10t-63.5 4q-83 0-144.5-31t-96-88.5T404 633V0Z"/><path id="g105" d="M532-19q-120 0-212 36.5T172.5 120 107 275h178q22-67 86-108t167-41q73 0 128.5 21.5t87.5 59 32 86.5v2q0 55-44 93.5T598 451l-167 40q-101 24-166 62.5t-96 95T138 782v1q0 90 52.5 161T334 1056t205 41q113 0 200.5-35.5t141-100.5T946 808H775q-17 64-78 104t-159 40q-64 0-114-20.5T345 875t-29-84v-2q0-36 19-64t59-49 103-37l166-40q102-24 168.5-63t99.5-95 33-133v-2q0-96-57-169.5T752.5 22 532-19"/><path id="g106" d="M698-19q-75 0-139 23T445 69.5 362 172h-16V0H172v1506h174V908h16q30 58 80.5 100t116 65.5T698 1097q137 0 238.5-69T1094 834t56-294v-2q0-168-56-293.5T936.5 50 698-19m-40 154q99 0 169 48.5t107.5 139T972 538v2q0 126-37.5 216T827 894.5 658 943q-98 0-169-49T380 755t-38-215v-2q0-124 38-214.5T489 184t169-49"/><path id="g107" d="M493-34q-94 0-167 27T202 69t-80 115-35 144l-1 14h180l1-10q6-54 32-99.5t74-73T492 132q120 0 183 69.5T738 403v1040h180V401q0-136-50.5-233.5T722 18 493-34"/><path id="g108" d="M657-34q-158 0-275.5 51.5t-186 142T116 367l-1 11h180l1-11q7-72 55.5-124.5t130-81.5T667 132q98 0 174.5 31.5T962 251t44 129v1q0 90-66 151.5T725 627l-160 35q-144 32-235.5 87.5t-135 135T151 1068v1q1 120 65.5 212t179 144 263.5 52q144 0 255-51.5t176.5-138.5 72.5-195l1-14H984l-2 13q-10 64-52 113.5T818 1283t-164 28q-90 0-162-28t-114.5-80.5T335 1074v-1q0-57 28-102.5t88.5-78.5T610 837l160-36q151-33 243-86t134.5-129.5T1190 405v-1q0-135-66-233T938 19.5 657-34"/><path id="g109" d="M790-34q-207 0-355 92.5T207.5 321 128 721v2q0 232 80.5 401t229 261 352.5 92q205 0 353.5-92t228.5-261.5 80-400.5v-2q0-230-79.5-399.5T1144.5 59 790-34m0 166q148 0 255 73t165 205.5 58 310.5v2q0 180-58 312t-165 204-255 72q-147 0-254-72t-165.5-204T312 723v-2q0-178 57-310.5T533 205t257-73"/><path id="g110" d="M184 0v1443h175l827-1186-120 63h92v1123h178V0h-175L334 1182l120-63h-92V0Z"/><path id="g111" d="M633-19q-144 0-249.5 58.5T220.5 206 163 460v163q0 146 57.5 253.5t163 166.5 249.5 59 249.5-59 163-166.5T1103 623V460q0-146-57.5-254t-163-166.5T633-19m0 978q-139 0-220.5-94.5T331 607V476q0-164 81.5-258T633 124t220.5 94T935 476v131q0 163-81.5 257.5T633 959"/><path id="g112" d="M139 382h172q13-121 103-190.5T648 122q145 0 231.5 71.5T966 383q0 97-66 157.5T687 638l-124 31q-201 50-295 148.5T174 1072q0 122 58.5 212T397 1423.5t250 49.5q136 0 240-49t164.5-137.5T1118 1079H946q-13 114-92 178t-206 64q-139 0-217.5-64T352 1079q0-95 63.5-154T620 831l126-32q210-53 304-149.5t94-259.5q0-128-61.5-222t-173-146T647-30Q423-30 286.5 80.5T139 382"/><path id="g113" d="M143 1083h182l303-910h13l301 910h181L727 0H540Z"/><path id="g114" d="M310 471q0-152 80.5-244.5T606 134q134 0 214 92t80 245v148q0 154-80 245.5T606 956q-135 0-215.5-91.5T310 619Zm291-878q-188 0-306 77.5T160-119h168q17-68 92-110t184-42q143 0 219 71.5T899 4v165h-18Q845 85 759 36.5T555-12q-125 0-218.5 57T191 205t-52 241v197q0 139 52 242t146.5 159.5T559 1101q118 0 203-48t120-136h19v166h168V0q0-127-55.5-218t-160-140T601-407"/><path id="g115" d="M569 0 71 1443h289L714 301h17l354 1142h289L876 0Z"/><path id="g116" d="M795-36q-157 0-282 52.5T299.5 168 164 406.5 117 721v2q0 231 82.5 401T434 1386.5t357 92.5q167 0 299-60t216-166 108-248l1-10h-260l-2 9q-35 120-129 184.5T792 1253q-126 0-217.5-64.5t-141.5-183T383 726v-2q0-124 29-222.5t83.5-168T627 227t173-37q109 0 191.5 42T1121 350.5t49 177.5l1 30H828v199h599V577q0-140-44-253t-126.5-193.5T1057 7 795-36"/><path id="g117" d="M234 0v934H55v144h179v120q0 108 35.5 178.5t105.5 105 172 34.5q32 0 60.5-2.5t55.5-7.5v-139q-16 3-37 4t-44 1q-93 0-133.5-45T408 1193v-115h245V934H408V0Z"/><path id="g118" d="M147 500v162h672V500Z"/><path id="g119" d="M603-19q-151 0-262 69T169 245t-61 297v2q0 168 60.5 292T340 1028.5t262 68.5q131 0 226-46t152-123.5 73-173.5l1-6H881l-1 3q-20 80-91 136t-187 56q-97 0-168-49T324.5 755.5 286 544v-2q0-124 39-215.5T435 185t167-50q109 0 178 47t99 137l2 6 172 1-2-11q-22-97-78-172.5T825 24 603-19"/><path id="g120" d="M545-8Q379-8 304.5 59T230 280v654H60v144h170v279h180v-279h236V934H410V324q0-95 36-136.5T566 146q23 0 39.5 1t40.5 3V2q-25-4-50-7t-51-3"/><path id="g121" d="M560-19q-136 0-238 69T164 244.5 108 538v2q0 169 56 294t157.5 194 238.5 69q74 0 139.5-23.5T816 1008t80-100h16v598h174V0H912v172h-16q-33-60-83-102.5T699 4 560-19m40 154q98 0 169 49t109 139.5T916 538v2q0 125-38 215T769 894t-169 49-168.5-48.5-108-138.5T286 540v-2q0-125 37.5-215.5t108-139T600 135"/><path id="g122" d="M184 0v1443h180V162h696V0Z"/><path id="g123" d="M166 0v1078h174V0Zm88 1286q-49 0-84.5 35.5T134 1406q0 50 35.5 85t84.5 35q50 0 85-35t35-85q0-49-35-84.5t-85-35.5"/><path id="g124" d="M162 0v1078h174V916h16q41 86 118 133.5t196 47.5q182 0 279.5-103.5T1043 698V0H869v656q0 146-61.5 216.5T617 943q-86 0-149-37t-97.5-105T336 638V0Z"/><path id="g125" d="M602-19q-154 0-264.5 68t-170 192.5T108 535v1q0 167 59.5 293T336 1026t255 71q147 0 252.5-68t162-189.5T1062 557v-68H198v139h775l-86-127v69q0 127-38 209T744 901.5 590 942t-155.5-42.5T326 774t-40-204v-69q0-115 39-196.5t111-125T606 136q73 0 127 20t89 51 49 63l4 9h174l-2-8q-14-55-49.5-106.5t-91.5-93-132.5-66T602-19"/><path id="g126" d="M458-19q-102 0-183.5 39t-129 111T98 301v2q0 96 46 164.5T278 575t213 46l396 24V506l-375-24q-123-7-179.5-51T276 307v-2q0-82 62-127.5T494 132q89 0 158 35.5T760.5 264 800 402v336q0 100-60.5 152.5T558 943q-97 0-159-34.5T316 811l-1-3H141l1 6q14 85 70.5 148.5t146.5 99 205 35.5q132 0 223.5-43t139-123.5T974 738V0H800v159h-16q-34-57-82.5-97T592 1.5 458-19"/><path id="g127" d="M162 0v1078h174V918h16q31 85 105 132t183 47q25 0 49.5-2.5t37.5-4.5V921q-27 5-52.5 7.5T620 931q-83 0-147-33t-100.5-92T336 668V0Z"/><path id="g128" d="M184 0v1443h551q139 0 242.5-53.5T1138 1240t57-226v-2q0-150-77-260T905 599L1239 0h-211L719 571H364V0Zm180 731h355q139 0 214.5 71.5T1009 1006v2q0 129-79 202t-219 73H364Z"/><path id="g129" d="M560-19q-136 0-238 69T164 244.5 108 538v2q0 169 56 294t157.5 194 238.5 69q74 0 139.5-23.5T816 1008t80-100h16v598h174V0H912v172h-16q-33-60-83-102.5T699 4 560-19m40 154q98 0 169 49t109 139.5T916 538v2q0 125-38 215T769 894t-169 49-168.5-48.5-108-138.5T286 540v-2q0-125 37.5-215.5t108-139T600 135"/><path id="g130" d="M172 0v1506h174V0Z"/><path id="g131" d="M162-360v1438h174V906h16q33 60 83 102.5t114 65.5 139 23q137 0 238.5-69.5T1084 833t56-293v-2q0-169-56-294T926.5 50 688-19q-74 0-139.5 23.5T432.5 70 352 170h-16v-530Zm486 495q99 0 169 48.5t107.5 139T962 538v2q0 126-37.5 216T817 894.5 648 943q-98 0-169-49T370 755t-38-215v-2q0-124 38-214.5T479 184t169-49"/><path id="g132" d="M545-8Q379-8 304.5 59T230 280v654H60v144h170v279h180v-279h236V934H410V324q0-95 36-136.5T566 146q23 0 39.5 1t40.5 3V2q-25-4-50-7t-51-3"/><path id="g133" d="M606-380q-130 0-227 36.5t-154.5 103T153-86l2 1h180l1-1q14-61 84-100.5T606-226q145 0 226.5 65.5T914 24v218h-16q-34-59-85-101T698 77.5 560 56q-139 0-240.5 66.5T163 306t-55 268v2q0 151 55.5 268.5t157.5 185 243 67.5q76 0 140-24t113.5-68T900 900h12v178h174V15q0-120-58.5-209T861-331.5 606-380m-8 590q100 0 171.5 46.5t110 128.5T918 574v2q0 107-38.5 190t-110 130T598 943t-169.5-47-106-130T286 576v-2q0-107 36.5-189t106-128.5T598 210"/></defs><rect x="30.5" y="30.5" width="208.3" height="157" rx="9.5" fill="none" stroke="rgb(48,54,61)" stroke-width="1"/><g clip-path="url(#ov0)"><rect x="31" y="31" width="207.3" height="120" rx="0" fill="url(#bg1)"/><rect x="31" y="151" width="207.3" height="36" rx="0" fill="rgb(22,27,34)"/><g transform="translate(43 174)" fill="rgb(230,237,243)" role="img" aria-label="Linear"><title>Linear</title><g transform="scale(.00635 -.00635)"><use href="#g122" x="0" y="0"/><use href="#g123" x="1149.54" y="0"/><use href="#g124" x="1644.31" y="0"/><use href="#g125" x="2825.85" y="0"/><use href="#g126" x="3985.23" y="0"/><use href="#g127" x="5102.77" y="0"/></g></g></g><rect x="255.8" y="30.5" width="208.3" height="157" rx="9.5" fill="none" stroke="rgb(48,54,61)" stroke-width="1"/><g clip-path="url(#ov3)"><rect x="256.3" y="31" width="207.3" height="120" rx="0" fill="url(#bg4)"/><rect x="256.3" y="151" width="207.3" height="36" rx="0" fill="rgb(22,27,34)"/><g transform="translate(268.33 174)" fill="rgb(230,237,243)" role="img" aria-label="Radial"><title>Radial</title><g transform="scale(.00635 -.00635)"><use href="#g128" x="0" y="0"/><use href="#g126" x="1324.31" y="0"/><use href="#g129" x="2441.85" y="0"/><use href="#g123" x="3689.85" y="0"/><use href="#g126" x="4182.15" y="0"/><use href="#g130" x="5299.69" y="0"/></g></g></g><rect x="481.2" y="30.5" width="208.3" height="157" rx="9.5" fill="none" stroke="rgb(48,54,61)" stroke-width="1"/><g clip-path="url(#ov6)"><rect x="481.7" y="31" width="207.3" height="120" rx="0" fill="url(#bg7)"/><rect x="481.7" y="151" width="207.3" height="36" rx="0" fill="rgb(22,27,34)"/><g transform="translate(493.66 174)" fill="rgb(230,237,243)" role="img" aria-label="Repeating"><title>Repeating</title><g transform="scale(.00635 -.00635)"><use href="#g128" x="0" y="0"/><use href="#g125" x="1294.77" y="0"/><use href="#g131" x="2451.69" y="0"/><use href="#g125" x="3689.85" y="0"/><use href="#g126" x="4849.23" y="0"/><use href="#g132" x="5966.77" y="0"/><use href="#g123" x="6697.85" y="0"/><use href="#g124" x="7192.62" y="0"/><use href="#g133" x="8376.62" y="0"/></g></g></g></svg>