<?xml version="1.0" encoding="UTF-8"?><svg xmlns="http://www.w3.org/2000/svg" viewBox="0 0 1280 720" width="1280" height="720"><defs><clipPath id="viewport-clip"><rect width="1280" height="720"/></clipPath></defs><style>@keyframes fv-0{0%{opacity:1;visibility:visible}to{opacity:0;visibility:hidden}}@keyframes f0-f0a0-0{0%{transform:translate(0,0)}to{transform:translate(-1280px,0)}}@keyframes f0-f0a1-1{0%{transform:translate(0,0)}to{transform:translate(-1280px,0)}}@keyframes f0-f0a2-2{0%{transform:translate(0,0)}to{transform:translate(-1280px,0)}}@keyframes f0-f0a3-3{0%{transform:translate(0,0)}to{transform:translate(-1280px,0)}}@keyframes f0-f0a4-4{0%{transform:translate(0,0)}to{transform:translate(-1280px,0)}}:root{--scene-dur:9.00s}.f{opacity:0;visibility:hidden}.f-0{animation:fv-0 9s infinite;animation-timing-function:step-end}.anim-f0a0{animation:f0-f0a0-0 21689ms linear 0ms infinite both}.anim-f0a1{animation:f0-f0a1-1 16556ms linear 0ms infinite both}.anim-f0a2{animation:f0-f0a2-2 14099ms linear 0ms infinite both}.anim-f0a3{animation:f0-f0a3-3 10266ms linear 0ms infinite both}.anim-f0a4{animation:f0-f0a4-4 7609ms linear 0ms infinite both}</style><g clip-path="url(#viewport-clip)"><g class="f f-0"><defs><clipPath id="f0-cp0"><rect x="0" y="0" width="1280" height="720"/></clipPath><clipPath id="f0-cp1"><rect x="0" y="0" width="2560" height="720"/></clipPath><clipPath id="f0-cp2"><rect x="0" y="0" width="2560" height="720"/></clipPath><clipPath id="f0-cp3"><rect x="0" y="0" width="2560" height="720"/></clipPath><clipPath id="f0-cp4"><rect x="0" y="0" width="2560" height="720"/></clipPath><clipPath id="f0-cp5"><rect x="0" y="0" width="2560" height="720"/></clipPath></defs><g clip-path="url(#f0-cp0)"><rect x="0" y="0" width="1280" height="720" rx="0" fill="rgb(4,16,32)"/><g opacity="0.4" style="isolation:isolate"><g class="anim-f0a0"><g clip-path="url(#f0-cp1)"><g color="rgb(0, 0, 0)"><svg viewBox="0 0 2560 720" preserveAspectRatio="none" fill="rgb(0, 0, 0)" stroke-width="1px" font-family="Times" width="2560" height="720"><path d="m0 245 27-6.8 27-6.3 27-5.5 27-4.1 27-2.5 27-.8 27 1 27 2.8 27 4.4 27 5.5 27 6.5 27 6.8 27 6.8 27 6.2 27 5.3 27 3.9 27 2.2 27 .6 27-1.4 27-3 27-4.5 27-5.8 27-6.5 27-6.8 27-6.8 27-6.1 27-5 27-3.7 27-2 27-.3 27 1.6 27 3.3 27 4.7 27 5.9 27 6.6 27 6.9 27 6.6 27 6 27 4.9 27 3.4 27 1.8h27l27-1.9 27-3.5 27-4.9 27-6 27-6.7 27-6.9 27-6.6 27-5.8 27-4.7 27-3.2 27-1.5 27 .3 27 2.1 27 3.7 27 5.1 27 6.2 27 6.7 27 6.9 27 6.5 27 5.7 27 4.5 27 2.9 27 1.3 27-.6 27-2.4 27-3.9 27-5.3 27-6.3 27-6.7 27-6.9 27-6.4 27-5.5 27-4.3 27-2.7 27-1 27 .8 27 2.6 27 4.2 27 5.5 27 6.3 27 6.9 27 6.8 27 6.3 27 5.3 27 4.1 27 2.5 27 .7 27-1.1 27-2.9 27-4.4 27-5.6 27-6.4 22-5.6v475H0Z" fill="#1e3a8a" stroke="none" stroke-width="1px" stroke-dasharray="none" stroke-linecap="butt" stroke-linejoin="miter" stroke-opacity="1" fill-opacity="1" opacity="1" cx="0" cy="0" r="0" x="0" y="0"/></svg></g></g></g></g><g opacity="0.5" style="isolation:isolate"><g class="anim-f0a1"><g clip-path="url(#f0-cp2)"><g color="rgb(0, 0, 0)"><svg viewBox="0 0 2560 720" preserveAspectRatio="none" fill="rgb(0, 0, 0)" stroke-width="1px" font-family="Times" width="2560" height="720"><path d="m0 317 18-11 18-10.2 18-8.8 18-6.6 18-4.1 18-1.3 18 1.7 18 4.5 18 6.9 18 9 18 10.4 18 11 18 11 18 10 18 8.5 18 6.4 18 3.7 18 .8 18-2 18-4.9 18-7.3 18-9.2 18-10.5 18-11.1 18-10.8 18-9.9 18-8.3 18-5.9 18-3.4 18-.4 18 2.4 18 5.3 18 7.6 18 9.4 18 10.6 18 11.1 18 10.8 18 9.7 18 7.9 18 5.7 18 2.9 18 .1 18-2.9 18-5.6 18-7.9 18-9.6 18-10.8 18-11.1 18-10.6 18-9.5 18-7.7 18-5.2 18-2.6 18 .4 18 3.2 18 5.9 18 8.2 18 9.9 18 10.8 18 11.1 18 10.5 18 9.3 18 7.3 18 5 18 2.1 18-.8 18-3.6 18-6.3 18-8.4 18-10 18-10.9 18-11.1 18-10.4 18-9 18-7.1 18-4.5 18-1.8 18 1.2 18 4 18 6.6 18 8.7 18 10.2 18 11 18 11 18 10.3 18 8.8 18 6.7 18 4.2 18 1.3 18-1.6 18-4.4 18-6.9 18-9 18-10.3 18-11 18-11 18-10.1 18-8.5 18-6.4 18-3.8 18-1 18 2 18 4.8 18 7.2 18 9.2 18 10.5 18 11.1 18 10.9 18 9.9 18 8.3 18 6 18 3.4 18 .5 18-2.3 18-5.2 18-7.5 18-9.4 18-10.6 18-11.1 18-10.8 18-9.7 18-8 18-5.7 18-3.1 18-.1 18 2.8 18 5.5 18 7.8 18 9.6 18 10.8 18 11.1 18 10.6 18 9.6 18 7.7 18 5.3 18 2.7 18-.3 18-3.2 18-5.9 18-8.1 18-9.8 18-10.8 4-2.5V720H0Z" fill="#0e7490" stroke="none" stroke-width="1px" stroke-dasharray="none" stroke-linecap="butt" stroke-linejoin="miter" stroke-opacity="1" fill-opacity="1" opacity="1" cx="0" cy="0" r="0" x="0" y="0"/></svg></g></g></g></g><g opacity="0.6" style="isolation:isolate"><g class="anim-f0a2"><g clip-path="url(#f0-cp3)"><g color="rgb(0, 0, 0)"><svg viewBox="0 0 2560 720" preserveAspectRatio="none" fill="rgb(0, 0, 0)" stroke-width="1px" font-family="Times" width="2560" height="720"><path d="m0 389 13-11.9L26 366l13-9.6 13-7.5 13-4.9 13-2 13 1.1 13 4 13 6.8 13 9 13 10.7 13 11.7 13 12 13 11.4 13 10.1 13 8.2 13 5.8 13 2.9 13-.1 13-3.2 13-5.9 13-8.4 13-10.3 13-11.4 13-12 13-11.7 13-10.6 13-8.8 13-6.6 13-3.8 13-.8 13 2.2 13 5.1 13 7.7 13 9.7 13 11.2 13 11.9 13 11.9 13 11 13 9.4 13 7.3 13 4.7 13 1.8 13-1.3 13-4.2 13-7 13-9.2 13-10.8 13-11.7 13-12 13-11.3 13-10 13-8.1 13-5.5 13-2.7 13 .4 13 3.3 13 6.2 13 8.5 13 10.4 13 11.6 13 11.9 13 11.6 13 10.5 13 8.7 13 6.4 13 3.6 13 .6 13-2.5 13-5.3 13-7.9 13-9.9 13-11.2 13-11.9 13-11.8 13-11 13-9.3 13-7.1 13-4.5 13-1.5 13 1.5 13 4.5 13 7.1 13 9.3 13 11 13 11.8 13 11.9 13 11.2 13 9.9 13 7.9 13 5.3 13 2.5 13-.6 13-3.6 13-6.4 13-8.7 13-10.5 13-11.6 13-11.9 13-11.6 13-10.4 13-8.5 13-6.2 13-3.3 13-.4 13 2.7 13 5.5 13 8.1 13 10 13 11.3 13 12 13 11.7 13 10.8 13 9.2 13 7 13 4.2 13 1.3 13-1.8 13-4.7 13-7.3 13-9.4 13-11 13-11.9 13-11.9 13-11.2 13-9.7 13-7.7 13-5.1 13-2.2 13 .8 13 3.8 13 6.6 13 8.8 13 10.6 13 11.7 13 12 13 11.4 13 10.3 13 8.4 13 5.9 13 3.2 13 .1 13-2.9 13-5.8 13-8.2 13-10.1 13-11.4 13-12 13-11.7 13-10.7 13-9 13-6.8 13-4 13-1.1 13 2 13 4.9 13 7.5 13 9.6 13 11.1 13 11.9 13 11.9 13 11.1 13 9.6 13 7.5 13 4.9 13 2 13-1.1 13-4 13-6.8 13-9 13-10.7 13-11.7 13-12 13-11.4 13-10.1 13-8.2 13-5.8 13-2.9 13 .1 13 3.2 13 5.9 13 8.4 13 10.3 13 11.4 13 12 13 11.7 13 10.6 13 8.8 13 6.6 13 3.8 13 .8 13-2.2 13-5.1 13-7.7 13-9.7 13-11.2 12-11v331H0Z" fill="#0891b2" stroke="none" stroke-width="1px" stroke-dasharray="none" stroke-linecap="butt" stroke-linejoin="miter" stroke-opacity="1" fill-opacity="1" opacity="1" cx="0" cy="0" r="0" x="0" y="0"/></svg></g></g></g></g><g opacity="0.7" style="isolation:isolate"><g class="anim-f0a3"><g clip-path="url(#f0-cp4)"><g color="rgb(0, 0, 0)"><svg viewBox="0 0 2560 720" preserveAspectRatio="none" fill="rgb(0, 0, 0)" stroke-width="1px" font-family="Times" width="2560" height="720"><path d="m0 461 13-14.1 13-13.3 13-11.4 13-8.9 13-5.9 13-2.4 13 1.3 13 4.8 13 8 13 10.8 13 12.8 13 13.9 13 14.2 13 13.6 13 12.1 13 9.8 13 6.8 13 3.5 13-.1 13-3.8 13-7.1 13-9.9 13-12.3 13-13.6 13-14.3 13-13.9 13-12.6 13-10.6 13-7.8 13-4.5 13-1 13 2.6 13 6.1 13 9.2 13 11.6 13 13.3 13 14.2 13 14.1 13 13.1 13 11.3 13 8.7 13 5.6 13 2.1 13-1.5 13-5.1 13-8.3 13-10.9 13-12.9 13-14 13-14.2 13-13.5 13-12 13-9.5 13-6.6 13-3.2 13 .4 13 4 13 7.3 13 10.2 13 12.4 13 13.7 13 14.3 13 13.8 13 12.5 13 10.4 13 7.6 13 4.2 13 .7 13-2.9 13-6.3 13-9.4 13-11.8 13-13.4 13-14.2 13-14.1 13-13 13-11.1 13-8.5 13-5.3 13-1.8 13 1.8 13 5.3 13 8.5 13 11.1 13 13 13 14.1 13 14.2 13 13.4 13 11.8 13 9.4 13 6.3 13 2.9 13-.7 13-4.2 13-7.6 13-10.4 13-12.5 13-13.8 13-14.3 13-13.7 13-12.4 13-10.2 13-7.3 13-4 13-.4 13 3.2 13 6.6 13 9.5 13 12 13 13.5 13 14.2 13 14 13 12.9 13 10.9 13 8.3 13 5.1 13 1.5 13-2.1 13-5.6 13-8.7 13-11.3 13-13.1 13-14.1 13-14.2 13-13.3 13-11.6 13-9.2 13-6.1 13-2.6 13 1 13 4.5 13 7.8 13 10.6 13 12.6 13 13.9 13 14.3 13 13.6 13 12.3 13 9.9 13 7.1 13 3.8 13 .1 13-3.5 13-6.8 13-9.8 13-12.1 13-13.6 13-14.2 13-13.9 13-12.8 13-10.8 13-8 13-4.8 13-1.3 13 2.4 13 5.9 13 8.9 13 11.4 13 13.3 13 14.1 13 14.1 13 13.3 13 11.4 13 8.9 13 5.9 13 2.4 13-1.3 13-4.8 13-8 13-10.8 13-12.8 13-13.9 13-14.2 13-13.6 13-12.1 13-9.8 13-6.8 13-3.5 13 .1 13 3.8 13 7.1 13 9.9 13 12.3 13 13.6 13 14.3 13 13.9 13 12.6 13 10.6 13 7.8 13 4.5 13 1 13-2.6 13-6.1 13-9.2 13-11.6 13-13.3 12-13.1v259H0Z" fill="#22d3ee" stroke="none" stroke-width="1px" stroke-dasharray="none" stroke-linecap="butt" stroke-linejoin="miter" stroke-opacity="1" fill-opacity="1" opacity="1" cx="0" cy="0" r="0" x="0" y="0"/></svg></g></g></g></g><g opacity="0.8" style="isolation:isolate"><g class="anim-f0a4"><g clip-path="url(#f0-cp5)"><g color="rgb(0, 0, 0)"><svg viewBox="0 0 2560 720" preserveAspectRatio="none" fill="rgb(0, 0, 0)" stroke-width="1px" font-family="Times" width="2560" height="720"><path d="m0 533 9-18.1 9-16.8 9-14.4 9-11 9-6.7 9-2 9 2.8 9 7.5 9 11.6 9 14.8 9 17.2 9 18.2 9 17.9 9 16.5 9 13.9 9 10.3 9 5.9 9 1.2 9-3.6 9-8.1 9-12.2 9-15.4 9-17.4 9-18.2 9-17.8 9-16.2 9-13.3 9-9.6 9-5.2 9-.4 9 4.4 9 8.9 9 12.8 9 15.7 9 17.7 9 18.2 9 17.7 9 15.7 9 12.8 9 8.9 9 4.4 9-.4 9-5.2 9-9.6 9-13.3 9-16.2 9-17.8 9-18.2 9-17.4 9-15.4 9-12.2 9-8.1 9-3.6 9 1.2 9 5.9 9 10.3 9 13.9 9 16.5 9 17.9 9 18.2 9 17.2 9 14.8 9 11.6 9 7.5 9 2.8 9-2 9-6.7 9-11 9-14.4 9-16.8 9-18.1 9-18.1 9-16.8 9-14.4 9-11 9-6.7 9-2 9 2.8 9 7.5 9 11.6 9 14.8 9 17.2 9 18.2 9 17.9 9 16.5 9 13.9 9 10.3 9 5.9 9 1.2 9-3.6 9-8.1 9-12.2 9-15.4 9-17.4 9-18.2 9-17.8 9-16.2 9-13.3 9-9.6 9-5.2 9-.4 9 4.4 9 8.9 9 12.8 9 15.7 9 17.7 9 18.2 9 17.7 9 15.7 9 12.8 9 8.9 9 4.4 9-.4 9-5.2 9-9.6 9-13.3 9-16.2 9-17.8 9-18.2 9-17.4 9-15.4 9-12.2 9-8.1 9-3.6 9 1.2 9 5.9 9 10.3 9 13.9 9 16.5 9 17.9 9 18.2 9 17.2 9 14.8 9 11.6 9 7.5 9 2.8 9-2 9-6.7 9-11 9-14.4 9-16.8 9-18.1 9-18.1 9-16.8 9-14.4 9-11 9-6.7 9-2 9 2.8 9 7.5 9 11.6 9 14.8 9 17.2 9 18.2 9 17.9 9 16.5 9 13.9 9 10.3 9 5.9 9 1.2 9-3.6 9-8.1 9-12.2 9-15.4 9-17.4 9-18.2 9-17.8 9-16.2 9-13.3 9-9.6 9-5.2 9-.4 9 4.4 9 8.9 9 12.8 9 15.7 9 17.7 9 18.2 9 17.7 9 15.7 9 12.8 9 8.9 9 4.4 9-.4 9-5.2 9-9.6 9-13.3 9-16.2 9-17.8 9-18.2 9-17.4 9-15.4 9-12.2 9-8.1 9-3.6 9 1.2 9 5.9 9 10.3 9 13.9 9 16.5 9 17.9 9 18.2 9 17.2 9 14.8 9 11.6 9 7.5 9 2.8 9-2 9-6.7 9-11 9-14.4 9-16.8 9-18.1 9-18.1 9-16.8 9-14.4 9-11 9-6.7 9-2 9 2.8 9 7.5 9 11.6 9 14.8 9 17.2 9 18.2 9 17.9 9 16.5 9 13.9 9 10.3 9 5.9 9 1.2 9-3.6 9-8.1 9-12.2 9-15.4 9-17.4 9-18.2 9-17.8 9-16.2 9-13.3 9-9.6 9-5.2 9-.4 9 4.4 9 8.9 9 12.8 9 15.7 9 17.7 9 18.2 9 17.7 9 15.7 9 12.8 9 8.9 9 4.4 9-.4 9-5.2 9-9.6 9-13.3 9-16.2 9-17.8 9-18.2 9-17.4 9-15.4 9-12.2 9-8.1 9-3.6 9 1.2 9 5.9 9 10.3 9 13.9 9 16.5 9 17.9 9 18.2 9 17.2 9 14.8 9 11.6 9 7.5 9 2.8 9-2 9-6.7 9-11 9-14.4 9-16.8 9-18.1 4-8.1V720H0Z" fill="#67e8f9" stroke="none" stroke-width="1px" stroke-dasharray="none" stroke-linecap="butt" stroke-linejoin="miter" stroke-opacity="1" fill-opacity="1" opacity="1" cx="0" cy="0" r="0" x="0" y="0"/></svg></g></g></g></g></g></g></g></svg>