<?xml version="1.0" encoding="UTF-8"?>
<svg width="75px" height="76px" viewBox="0 0 75 76" version="1.1" xmlns="http://www.w3.org/2000/svg" xmlns:xlink="http://www.w3.org/1999/xlink">
    <title>mask-icon</title>
    <defs>
        <path d="M0,0 L75,0 L75,75 L0,75 Z" id="path-1"></path>
    </defs>
    <g id="mask-icon" stroke="none" fill="none" transform="translate(0, 0.5)" xlink:href="#path-1" fill-rule="evenodd">
        <use fill="#FFFFFF" xlink:href="#path-1"></use>
        <path d="M21.5029569,13.8210913 C23.7544208,15.4199569 24.2834562,18.5412658 22.6845906,20.7927297 L10.8200073,37.5 L22.6845906,54.2072703 C24.2834562,56.4587342 23.7544208,59.5800431 21.5029569,61.1789087 C19.251493,62.7777744 16.1301842,62.248739 14.5313185,59.9972751 L0.610863987,40.3950024 C-0.620287996,38.6613394 -0.620287996,36.3386606 0.610863987,34.6049976 L14.5313185,15.0027249 C16.1301842,12.751261 19.251493,12.2222256 21.5029569,13.8210913 Z M60.4686815,15.0027249 L74.389136,34.6049976 C75.620288,36.3386606 75.620288,38.6613394 74.389136,40.3950024 L60.4686815,59.9972751 C58.8698158,62.248739 55.748507,62.7777744 53.4970431,61.1789087 C51.2455792,59.5800431 50.7165438,56.4587342 52.3154094,54.2072703 L64.1799927,37.5 L52.3154094,20.7927297 C50.7165438,18.5412658 51.2455792,15.4199569 53.4970431,13.8210913 C55.748507,12.2222256 58.8698158,12.751261 60.4686815,15.0027249 Z M36.3530424,14.6041933 L48.2848606,57.7291933 C49.0212255,60.3906267 47.4606492,63.1450865 44.7992158,63.8814515 C42.1377824,64.6178164 39.3833226,63.0572401 38.6469576,60.3958067 L26.7151394,17.2708067 C25.9787745,14.6093733 27.5393508,11.8549135 30.2007842,11.1185485 C32.8622176,10.3821836 35.6166774,11.9427599 36.3530424,14.6041933 Z" id="Combined-Shape" fill="#000000"></path>
    </g>
</svg>