<svg xmlns="http://www.w3.org/2000/svg" width="1100" height="720" viewBox="0 0 1100 720"><defs><linearGradient id="wall" x1="0" y1="0" x2="1" y2="1"><stop offset="0" stop-color="#3a1c71"/><stop offset="0.5" stop-color="#d76d77"/><stop offset="1" stop-color="#ffaf7b"/></linearGradient><linearGradient id="g-blue" x1="0" y1="0" x2="0" y2="1"><stop offset="0" stop-color="#4f9dff"/><stop offset="1" stop-color="#1e63d6"/></linearGradient><linearGradient id="g-green" x1="0" y1="0" x2="0" y2="1"><stop offset="0" stop-color="#5be584"/><stop offset="1" stop-color="#1fa14f"/></linearGradient><linearGradient id="g-purple" x1="0" y1="0" x2="0" y2="1"><stop offset="0" stop-color="#b07bff"/><stop offset="1" stop-color="#6a30c2"/></linearGradient><linearGradient id="g-orange" x1="0" y1="0" x2="0" y2="1"><stop offset="0" stop-color="#ffb15b"/><stop offset="1" stop-color="#e6701f"/></linearGradient><linearGradient id="g-pink" x1="0" y1="0" x2="0" y2="1"><stop offset="0" stop-color="#ff7eb3"/><stop offset="1" stop-color="#d6306f"/></linearGradient><linearGradient id="g-teal" x1="0" y1="0" x2="0" y2="1"><stop offset="0" stop-color="#4be0d0"/><stop offset="1" stop-color="#1f9a8f"/></linearGradient></defs><rect width="1100" height="720" fill="url(#wall)"/><rect width="1100" height="26" fill="#00000055"/><text x="16" y="18" font-family="-apple-system,system-ui,sans-serif" font-size="13" font-weight="700" fill="#fff">Finder</text><text x="1008" y="18" font-family="-apple-system,system-ui,sans-serif" font-size="13" fill="#fff">Tue 9:41</text><rect x="334" y="628" width="432" height="80" rx="22" fill="#ffffff22" stroke="#ffffff33"/><rect x="346" y="640" width="56" height="56" rx="14" fill="url(#g-blue)"/><rect x="414" y="640" width="56" height="56" rx="14" fill="url(#g-green)"/><rect x="482" y="640" width="56" height="56" rx="14" fill="url(#g-purple)"/><rect x="550" y="640" width="56" height="56" rx="14" fill="url(#g-orange)"/><rect x="618" y="640" width="56" height="56" rx="14" fill="url(#g-pink)"/><rect x="686" y="640" width="56" height="56" rx="14" fill="url(#g-teal)"/></svg>