<?xml version="1.0" encoding="UTF-8"?>
<svg width="87px" height="63px" viewBox="0 0 87 63" version="1.1" xmlns="http://www.w3.org/2000/svg" xmlns:xlink="http://www.w3.org/1999/xlink">
    <title>favicon</title>
    <defs>
        <path d="M52.1302578,62.6943682 L52.9561621,62.4203238 C54.9907421,61.6285255 56.5742403,60.1130126 57.4803182,58.2543611 C57.8521129,58.6506388 58.2699053,59.0147811 58.7300111,59.3415229 C62.5574997,62.0595945 67.8637247,61.1602344 70.5817963,57.3327457 L85.4302812,36.4236548 C87.5232396,33.4764277 87.5232396,29.5278738 85.4302812,26.5806467 L70.5817964,5.6715558 C67.8637247,1.84406717 62.5574997,0.944707 58.7300111,3.66277864 C54.9025225,6.38085027 54.0031623,11.6870753 56.7212339,15.5145639 L68.0747376,31.5021508 L56.7367455,47.4678948 L45.3285811,6.23552933 C44.0767607,1.71109255 39.394179,-0.941887166 34.8697422,0.309933287 C32.4374738,0.982892913 30.5460517,2.6473336 29.5196818,4.74994043 C29.1478855,4.35366131 28.7300938,3.98951979 28.2699889,3.66277864 C24.4425003,0.944707 19.1362753,1.84406717 16.4182036,5.6715558 L1.56971878,26.5806467 C-0.523239593,29.5278738 -0.523239593,33.4764277 1.56971878,36.4236548 L16.4182036,57.3327457 C19.1362753,61.1602344 24.4425003,62.0595945 28.2699889,59.3415229 C32.0974775,56.6234513 32.9968377,51.3172263 30.2787661,47.4897376 L18.9252624,31.5021508 L30.2632545,15.5364067 L41.6714189,56.7687722 C42.9232393,61.293209 47.605821,63.9461887 52.1302578,62.6943682 Z M48.4179509,54.9021428 L35.6906782,8.90214279 C35.4697687,8.10371277 35.9379416,7.27737482 36.7363716,7.05646533 C37.5348016,6.83555584 38.3611396,7.30372873 38.5820491,8.10215875 L51.3093218,54.1021588 C51.5302313,54.9005888 51.0620584,55.7269267 50.2636283,55.9478361 L50.1137503,55.9812691 C49.3642711,56.108934 48.6250536,55.6506709 48.4179509,54.9021428 Z M22.125494,53.2797424 L7.2770092,32.3706515 C6.9076636,31.8505526 6.9076636,31.153749 7.2770092,30.6336501 L22.125494,9.72455914 C22.6051537,9.04911997 23.5415464,8.89040935 24.2169856,9.37006906 C24.8924247,9.84972876 25.0511354,10.7861214 24.5714757,11.4615606 L11.7788621,29.4756491 C10.9170557,30.6892132 10.9170557,32.3150883 11.7788621,33.5286524 L24.5714757,51.542741 C25.0511354,52.2181801 24.8924247,53.1545728 24.2169856,53.6342325 C23.5415464,54.1138922 22.6051537,53.9551816 22.125494,53.2797424 Z M62.7830144,53.6342325 C62.1075753,53.1545728 61.9488646,52.2181801 62.4285243,51.542741 L75.2211379,33.5286524 C76.0829443,32.3150883 76.0829443,30.6892132 75.2211379,29.4756491 L62.4285243,11.4615606 C61.9488646,10.7861214 62.1075753,9.84972876 62.7830144,9.37006906 C63.4584536,8.89040935 64.3948463,9.04911997 64.874506,9.72455914 L79.7229908,30.6336501 C80.0923364,31.153749 80.0923364,31.8505526 79.7229908,32.3706515 L64.8745059,53.2797424 L64.7793926,53.4003021 C64.2788165,53.9725268 63.4162387,54.0839135 62.7830144,53.6342325 Z" id="path-1"></path>
        <linearGradient x1="50%" y1="0%" x2="50%" y2="100%" id="linearGradient-3">
            <stop stop-color="#EF4370" offset="0%"></stop>
            <stop stop-color="#B22B2B" offset="100%"></stop>
        </linearGradient>
        <linearGradient x1="0%" y1="0%" x2="100%" y2="100%" id="linearGradient-4">
            <stop stop-color="#8B5CF6" offset="0%"></stop>
            <stop stop-color="#EC4899" offset="100%"></stop>
        </linearGradient>
        <path d="M28.74,81.8621508 L58.34,81.8621508 C70.6611551,81.8621508 76.8217327,81.8621508 81.527791,79.4642943 C85.667357,77.3550801 89.0329293,73.9895078 91.1421435,69.8499418 C93.54,65.1438835 93.54,58.9833059 93.54,46.6621508 L93.54,17.0621508 C93.54,4.74099564 93.54,-1.41958193 91.1421435,-6.12564023 C89.0329293,-10.2652063 85.667357,-13.6307785 81.527791,-15.7399928 C76.8217327,-18.1378492 70.6611551,-18.1378492 58.34,-18.1378492 L28.74,-18.1378492 C16.4188449,-18.1378492 10.2582673,-18.1378492 5.55220901,-15.7399928 C1.41264296,-13.6307785 -1.95292928,-10.2652063 -4.06214353,-6.12564023 C-6.46,-1.41958193 -6.46,4.74099564 -6.46,17.0621508 L-6.46,46.6621508 C-6.46,58.9833059 -6.46,65.1438835 -4.06214353,69.8499418 C-1.95292928,73.9895078 1.41264296,77.3550801 5.55220901,79.4642943 C10.2582673,81.8621508 16.4188449,81.8621508 28.74,81.8621508 Z" id="path-5"></path>
    </defs>
    <g id="favicon" stroke="none" fill="none">
        <g id="Group" stroke-width="1" fill-rule="evenodd">
            <mask id="mask-2" fill="white">
                <use xlink:href="#path-1"></use>
            </mask>
            <use id="Shape" fill="#979797" fill-rule="nonzero" xlink:href="#path-1"></use>
            <g id="Path" mask="url(#mask-2)">
                <use fill="url(#linearGradient-3)" xlink:href="#path-5"></use>
                <use fill="url(#linearGradient-4)" xlink:href="#path-5"></use>
            </g>
        </g>
        <polyline id="Path" stroke="#FFFFFF" stroke-width="10" stroke-linecap="round" stroke-linejoin="round" transform="translate(15.9242, 31.5022) scale(1, -1) translate(-15.9242, -31.5022)" points="23.3484848 10.5930599 8.5 31.5021508 23.3484848 52.4112417"></polyline>
        <polyline id="Path" stroke="#FFFFFF" stroke-width="10" stroke-linecap="round" stroke-linejoin="round" transform="translate(71.0758, 31.5022) scale(1, -1) translate(-71.0758, -31.5022)" points="63.6515152 10.5930599 78.5 31.5021508 63.6515152 52.4112417"></polyline>
        <line x1="49.8636364" y1="8.50215077" x2="37.1363636" y2="54.5021508" id="Path" stroke="#FFFFFF" stroke-width="10" stroke-linecap="round" stroke-linejoin="round" transform="translate(43.5, 31.5022) scale(1, -1) translate(-43.5, -31.5022)"></line>
    </g>
</svg>