<?xml version="1.0" encoding="UTF-8"?><svg xmlns="http://www.w3.org/2000/svg" viewBox="0 0 1280 720" width="1280" height="720"><defs><clipPath id="viewport-clip"><rect width="1280" height="720"/></clipPath></defs><style>@keyframes fv-0{0%{opacity:1;visibility:visible}to{opacity:0;visibility:hidden}}@keyframes f0-f0a0-0{0%{transform:translate(0,0)}to{transform:translate(90px,90px)}}:root{--scene-dur:9.00s}.f{opacity:0;visibility:hidden}.f-0{animation:fv-0 9s infinite;animation-timing-function:step-end}.anim-f0a0{animation:f0-f0a0-0 9000ms linear 0ms infinite both}</style><g clip-path="url(#viewport-clip)"><g class="f f-0"><defs><clipPath id="f0-cp0"><rect x="0" y="0" width="1280" height="720"/></clipPath></defs><g clip-path="url(#f0-cp0)"><rect x="0" y="0" width="1280" height="720" rx="0" fill="rgb(11,16,32)"/><g class="anim-f0a0"><g opacity="0.5" style="isolation:isolate"><rect x="0" y="0" width="13" height="13" rx="6.5" fill="rgb(34,211,238)"/></g><g opacity="0.5" style="isolation:isolate"><rect x="90" y="0" width="13" height="13" rx="6.5" fill="rgb(245,158,11)"/></g><g opacity="0.5" style="isolation:isolate"><rect x="180" y="0" width="13" height="13" rx="6.5" fill="rgb(99,102,241)"/></g><g opacity="0.5" style="isolation:isolate"><rect x="270" y="0" width="13" height="13" rx="6.5" fill="rgb(236,72,153)"/></g><g opacity="0.5" style="isolation:isolate"><rect x="360" y="0" width="13" height="13" rx="6.5" fill="rgb(34,211,238)"/></g><g opacity="0.5" style="isolation:isolate"><rect x="450" y="0" width="13" height="13" rx="6.5" fill="rgb(245,158,11)"/></g><g opacity="0.5" style="isolation:isolate"><rect x="540" y="0" width="13" height="13" rx="6.5" fill="rgb(99,102,241)"/></g><g opacity="0.5" style="isolation:isolate"><rect x="630" y="0" width="13" height="13" rx="6.5" fill="rgb(236,72,153)"/></g><g opacity="0.5" style="isolation:isolate"><rect x="720" y="0" width="13" height="13" rx="6.5" fill="rgb(34,211,238)"/></g><g opacity="0.5" style="isolation:isolate"><rect x="810" y="0" width="13" height="13" rx="6.5" fill="rgb(245,158,11)"/></g><g opacity="0.5" style="isolation:isolate"><rect x="900" y="0" width="13" height="13" rx="6.5" fill="rgb(99,102,241)"/></g><g opacity="0.5" style="isolation:isolate"><rect x="990" y="0" width="13" height="13" rx="6.5" fill="rgb(236,72,153)"/></g><g opacity="0.5" style="isolation:isolate"><rect x="1080" y="0" width="13" height="13" rx="6.5" fill="rgb(34,211,238)"/></g><g opacity="0.5" style="isolation:isolate"><rect x="1170" y="0" width="13" height="13" rx="6.5" fill="rgb(245,158,11)"/></g><g opacity="0.5" style="isolation:isolate"><rect x="1260" y="0" width="13" height="13" rx="6.5" fill="rgb(99,102,241)"/></g><g opacity="0.5" style="isolation:isolate"><rect x="0" y="90" width="13" height="13" rx="6.5" fill="rgb(245,158,11)"/></g><g opacity="0.5" style="isolation:isolate"><rect x="90" y="90" width="13" height="13" rx="6.5" fill="rgb(99,102,241)"/></g><g opacity="0.5" style="isolation:isolate"><rect x="180" y="90" width="13" height="13" rx="6.5" fill="rgb(236,72,153)"/></g><g opacity="0.5" style="isolation:isolate"><rect x="270" y="90" width="13" height="13" rx="6.5" fill="rgb(34,211,238)"/></g><g opacity="0.5" style="isolation:isolate"><rect x="360" y="90" width="13" height="13" rx="6.5" fill="rgb(245,158,11)"/></g><g opacity="0.5" style="isolation:isolate"><rect x="450" y="90" width="13" height="13" rx="6.5" fill="rgb(99,102,241)"/></g><g opacity="0.5" style="isolation:isolate"><rect x="540" y="90" width="13" height="13" rx="6.5" fill="rgb(236,72,153)"/></g><g opacity="0.5" style="isolation:isolate"><rect x="630" y="90" width="13" height="13" rx="6.5" fill="rgb(34,211,238)"/></g><g opacity="0.5" style="isolation:isolate"><rect x="720" y="90" width="13" height="13" rx="6.5" fill="rgb(245,158,11)"/></g><g opacity="0.5" style="isolation:isolate"><rect x="810" y="90" width="13" height="13" rx="6.5" fill="rgb(99,102,241)"/></g><g opacity="0.5" style="isolation:isolate"><rect x="900" y="90" width="13" height="13" rx="6.5" fill="rgb(236,72,153)"/></g><g opacity="0.5" style="isolation:isolate"><rect x="990" y="90" width="13" height="13" rx="6.5" fill="rgb(34,211,238)"/></g><g opacity="0.5" style="isolation:isolate"><rect x="1080" y="90" width="13" height="13" rx="6.5" fill="rgb(245,158,11)"/></g><g opacity="0.5" style="isolation:isolate"><rect x="1170" y="90" width="13" height="13" rx="6.5" fill="rgb(99,102,241)"/></g><g opacity="0.5" style="isolation:isolate"><rect x="1260" y="90" width="13" height="13" rx="6.5" fill="rgb(236,72,153)"/></g><g opacity="0.5" style="isolation:isolate"><rect x="0" y="180" width="13" height="13" rx="6.5" fill="rgb(99,102,241)"/></g><g opacity="0.5" style="isolation:isolate"><rect x="90" y="180" width="13" height="13" rx="6.5" fill="rgb(236,72,153)"/></g><g opacity="0.5" style="isolation:isolate"><rect x="180" y="180" width="13" height="13" rx="6.5" fill="rgb(34,211,238)"/></g><g opacity="0.5" style="isolation:isolate"><rect x="270" y="180" width="13" height="13" rx="6.5" fill="rgb(245,158,11)"/></g><g opacity="0.5" style="isolation:isolate"><rect x="360" y="180" width="13" height="13" rx="6.5" fill="rgb(99,102,241)"/></g><g opacity="0.5" style="isolation:isolate"><rect x="450" y="180" width="13" height="13" rx="6.5" fill="rgb(236,72,153)"/></g><g opacity="0.5" style="isolation:isolate"><rect x="540" y="180" width="13" height="13" rx="6.5" fill="rgb(34,211,238)"/></g><g opacity="0.5" style="isolation:isolate"><rect x="630" y="180" width="13" height="13" rx="6.5" fill="rgb(245,158,11)"/></g><g opacity="0.5" style="isolation:isolate"><rect x="720" y="180" width="13" height="13" rx="6.5" fill="rgb(99,102,241)"/></g><g opacity="0.5" style="isolation:isolate"><rect x="810" y="180" width="13" height="13" rx="6.5" fill="rgb(236,72,153)"/></g><g opacity="0.5" style="isolation:isolate"><rect x="900" y="180" width="13" height="13" rx="6.5" fill="rgb(34,211,238)"/></g><g opacity="0.5" style="isolation:isolate"><rect x="990" y="180" width="13" height="13" rx="6.5" fill="rgb(245,158,11)"/></g><g opacity="0.5" style="isolation:isolate"><rect x="1080" y="180" width="13" height="13" rx="6.5" fill="rgb(99,102,241)"/></g><g opacity="0.5" style="isolation:isolate"><rect x="1170" y="180" width="13" height="13" rx="6.5" fill="rgb(236,72,153)"/></g><g opacity="0.5" style="isolation:isolate"><rect x="1260" y="180" width="13" height="13" rx="6.5" fill="rgb(34,211,238)"/></g><g opacity="0.5" style="isolation:isolate"><rect x="0" y="270" width="13" height="13" rx="6.5" fill="rgb(236,72,153)"/></g><g opacity="0.5" style="isolation:isolate"><rect x="90" y="270" width="13" height="13" rx="6.5" fill="rgb(34,211,238)"/></g><g opacity="0.5" style="isolation:isolate"><rect x="180" y="270" width="13" height="13" rx="6.5" fill="rgb(245,158,11)"/></g><g opacity="0.5" style="isolation:isolate"><rect x="270" y="270" width="13" height="13" rx="6.5" fill="rgb(99,102,241)"/></g><g opacity="0.5" style="isolation:isolate"><rect x="360" y="270" width="13" height="13" rx="6.5" fill="rgb(236,72,153)"/></g><g opacity="0.5" style="isolation:isolate"><rect x="450" y="270" width="13" height="13" rx="6.5" fill="rgb(34,211,238)"/></g><g opacity="0.5" style="isolation:isolate"><rect x="540" y="270" width="13" height="13" rx="6.5" fill="rgb(245,158,11)"/></g><g opacity="0.5" style="isolation:isolate"><rect x="630" y="270" width="13" height="13" rx="6.5" fill="rgb(99,102,241)"/></g><g opacity="0.5" style="isolation:isolate"><rect x="720" y="270" width="13" height="13" rx="6.5" fill="rgb(236,72,153)"/></g><g opacity="0.5" style="isolation:isolate"><rect x="810" y="270" width="13" height="13" rx="6.5" fill="rgb(34,211,238)"/></g><g opacity="0.5" style="isolation:isolate"><rect x="900" y="270" width="13" height="13" rx="6.5" fill="rgb(245,158,11)"/></g><g opacity="0.5" style="isolation:isolate"><rect x="990" y="270" width="13" height="13" rx="6.5" fill="rgb(99,102,241)"/></g><g opacity="0.5" style="isolation:isolate"><rect x="1080" y="270" width="13" height="13" rx="6.5" fill="rgb(236,72,153)"/></g><g opacity="0.5" style="isolation:isolate"><rect x="1170" y="270" width="13" height="13" rx="6.5" fill="rgb(34,211,238)"/></g><g opacity="0.5" style="isolation:isolate"><rect x="1260" y="270" width="13" height="13" rx="6.5" fill="rgb(245,158,11)"/></g><g opacity="0.5" style="isolation:isolate"><rect x="0" y="360" width="13" height="13" rx="6.5" fill="rgb(34,211,238)"/></g><g opacity="0.5" style="isolation:isolate"><rect x="90" y="360" width="13" height="13" rx="6.5" fill="rgb(245,158,11)"/></g><g opacity="0.5" style="isolation:isolate"><rect x="180" y="360" width="13" height="13" rx="6.5" fill="rgb(99,102,241)"/></g><g opacity="0.5" style="isolation:isolate"><rect x="270" y="360" width="13" height="13" rx="6.5" fill="rgb(236,72,153)"/></g><g opacity="0.5" style="isolation:isolate"><rect x="360" y="360" width="13" height="13" rx="6.5" fill="rgb(34,211,238)"/></g><g opacity="0.5" style="isolation:isolate"><rect x="450" y="360" width="13" height="13" rx="6.5" fill="rgb(245,158,11)"/></g><g opacity="0.5" style="isolation:isolate"><rect x="540" y="360" width="13" height="13" rx="6.5" fill="rgb(99,102,241)"/></g><g opacity="0.5" style="isolation:isolate"><rect x="630" y="360" width="13" height="13" rx="6.5" fill="rgb(236,72,153)"/></g><g opacity="0.5" style="isolation:isolate"><rect x="720" y="360" width="13" height="13" rx="6.5" fill="rgb(34,211,238)"/></g><g opacity="0.5" style="isolation:isolate"><rect x="810" y="360" width="13" height="13" rx="6.5" fill="rgb(245,158,11)"/></g><g opacity="0.5" style="isolation:isolate"><rect x="900" y="360" width="13" height="13" rx="6.5" fill="rgb(99,102,241)"/></g><g opacity="0.5" style="isolation:isolate"><rect x="990" y="360" width="13" height="13" rx="6.5" fill="rgb(236,72,153)"/></g><g opacity="0.5" style="isolation:isolate"><rect x="1080" y="360" width="13" height="13" rx="6.5" fill="rgb(34,211,238)"/></g><g opacity="0.5" style="isolation:isolate"><rect x="1170" y="360" width="13" height="13" rx="6.5" fill="rgb(245,158,11)"/></g><g opacity="0.5" style="isolation:isolate"><rect x="1260" y="360" width="13" height="13" rx="6.5" fill="rgb(99,102,241)"/></g><g opacity="0.5" style="isolation:isolate"><rect x="0" y="450" width="13" height="13" rx="6.5" fill="rgb(245,158,11)"/></g><g opacity="0.5" style="isolation:isolate"><rect x="90" y="450" width="13" height="13" rx="6.5" fill="rgb(99,102,241)"/></g><g opacity="0.5" style="isolation:isolate"><rect x="180" y="450" width="13" height="13" rx="6.5" fill="rgb(236,72,153)"/></g><g opacity="0.5" style="isolation:isolate"><rect x="270" y="450" width="13" height="13" rx="6.5" fill="rgb(34,211,238)"/></g><g opacity="0.5" style="isolation:isolate"><rect x="360" y="450" width="13" height="13" rx="6.5" fill="rgb(245,158,11)"/></g><g opacity="0.5" style="isolation:isolate"><rect x="450" y="450" width="13" height="13" rx="6.5" fill="rgb(99,102,241)"/></g><g opacity="0.5" style="isolation:isolate"><rect x="540" y="450" width="13" height="13" rx="6.5" fill="rgb(236,72,153)"/></g><g opacity="0.5" style="isolation:isolate"><rect x="630" y="450" width="13" height="13" rx="6.5" fill="rgb(34,211,238)"/></g><g opacity="0.5" style="isolation:isolate"><rect x="720" y="450" width="13" height="13" rx="6.5" fill="rgb(245,158,11)"/></g><g opacity="0.5" style="isolation:isolate"><rect x="810" y="450" width="13" height="13" rx="6.5" fill="rgb(99,102,241)"/></g><g opacity="0.5" style="isolation:isolate"><rect x="900" y="450" width="13" height="13" rx="6.5" fill="rgb(236,72,153)"/></g><g opacity="0.5" style="isolation:isolate"><rect x="990" y="450" width="13" height="13" rx="6.5" fill="rgb(34,211,238)"/></g><g opacity="0.5" style="isolation:isolate"><rect x="1080" y="450" width="13" height="13" rx="6.5" fill="rgb(245,158,11)"/></g><g opacity="0.5" style="isolation:isolate"><rect x="1170" y="450" width="13" height="13" rx="6.5" fill="rgb(99,102,241)"/></g><g opacity="0.5" style="isolation:isolate"><rect x="1260" y="450" width="13" height="13" rx="6.5" fill="rgb(236,72,153)"/></g><g opacity="0.5" style="isolation:isolate"><rect x="0" y="540" width="13" height="13" rx="6.5" fill="rgb(99,102,241)"/></g><g opacity="0.5" style="isolation:isolate"><rect x="90" y="540" width="13" height="13" rx="6.5" fill="rgb(236,72,153)"/></g><g opacity="0.5" style="isolation:isolate"><rect x="180" y="540" width="13" height="13" rx="6.5" fill="rgb(34,211,238)"/></g><g opacity="0.5" style="isolation:isolate"><rect x="270" y="540" width="13" height="13" rx="6.5" fill="rgb(245,158,11)"/></g><g opacity="0.5" style="isolation:isolate"><rect x="360" y="540" width="13" height="13" rx="6.5" fill="rgb(99,102,241)"/></g><g opacity="0.5" style="isolation:isolate"><rect x="450" y="540" width="13" height="13" rx="6.5" fill="rgb(236,72,153)"/></g><g opacity="0.5" style="isolation:isolate"><rect x="540" y="540" width="13" height="13" rx="6.5" fill="rgb(34,211,238)"/></g><g opacity="0.5" style="isolation:isolate"><rect x="630" y="540" width="13" height="13" rx="6.5" fill="rgb(245,158,11)"/></g><g opacity="0.5" style="isolation:isolate"><rect x="720" y="540" width="13" height="13" rx="6.5" fill="rgb(99,102,241)"/></g><g opacity="0.5" style="isolation:isolate"><rect x="810" y="540" width="13" height="13" rx="6.5" fill="rgb(236,72,153)"/></g><g opacity="0.5" style="isolation:isolate"><rect x="900" y="540" width="13" height="13" rx="6.5" fill="rgb(34,211,238)"/></g><g opacity="0.5" style="isolation:isolate"><rect x="990" y="540" width="13" height="13" rx="6.5" fill="rgb(245,158,11)"/></g><g opacity="0.5" style="isolation:isolate"><rect x="1080" y="540" width="13" height="13" rx="6.5" fill="rgb(99,102,241)"/></g><g opacity="0.5" style="isolation:isolate"><rect x="1170" y="540" width="13" height="13" rx="6.5" fill="rgb(236,72,153)"/></g><g opacity="0.5" style="isolation:isolate"><rect x="1260" y="540" width="13" height="13" rx="6.5" fill="rgb(34,211,238)"/></g><g opacity="0.5" style="isolation:isolate"><rect x="0" y="630" width="13" height="13" rx="6.5" fill="rgb(236,72,153)"/></g><g opacity="0.5" style="isolation:isolate"><rect x="90" y="630" width="13" height="13" rx="6.5" fill="rgb(34,211,238)"/></g><g opacity="0.5" style="isolation:isolate"><rect x="180" y="630" width="13" height="13" rx="6.5" fill="rgb(245,158,11)"/></g><g opacity="0.5" style="isolation:isolate"><rect x="270" y="630" width="13" height="13" rx="6.5" fill="rgb(99,102,241)"/></g><g opacity="0.5" style="isolation:isolate"><rect x="360" y="630" width="13" height="13" rx="6.5" fill="rgb(236,72,153)"/></g><g opacity="0.5" style="isolation:isolate"><rect x="450" y="630" width="13" height="13" rx="6.5" fill="rgb(34,211,238)"/></g><g opacity="0.5" style="isolation:isolate"><rect x="540" y="630" width="13" height="13" rx="6.5" fill="rgb(245,158,11)"/></g><g opacity="0.5" style="isolation:isolate"><rect x="630" y="630" width="13" height="13" rx="6.5" fill="rgb(99,102,241)"/></g><g opacity="0.5" style="isolation:isolate"><rect x="720" y="630" width="13" height="13" rx="6.5" fill="rgb(236,72,153)"/></g><g opacity="0.5" style="isolation:isolate"><rect x="810" y="630" width="13" height="13" rx="6.5" fill="rgb(34,211,238)"/></g><g opacity="0.5" style="isolation:isolate"><rect x="900" y="630" width="13" height="13" rx="6.5" fill="rgb(245,158,11)"/></g><g opacity="0.5" style="isolation:isolate"><rect x="990" y="630" width="13" height="13" rx="6.5" fill="rgb(99,102,241)"/></g><g opacity="0.5" style="isolation:isolate"><rect x="1080" y="630" width="13" height="13" rx="6.5" fill="rgb(236,72,153)"/></g><g opacity="0.5" style="isolation:isolate"><rect x="1170" y="630" width="13" height="13" rx="6.5" fill="rgb(34,211,238)"/></g><g opacity="0.5" style="isolation:isolate"><rect x="1260" y="630" width="13" height="13" rx="6.5" fill="rgb(245,158,11)"/></g><g opacity="0.5" style="isolation:isolate;display:none"><rect x="0" y="720" width="13" height="13" rx="6.5" fill="rgb(34,211,238)"/></g><g opacity="0.5" style="isolation:isolate;display:none"><rect x="90" y="720" width="13" height="13" rx="6.5" fill="rgb(245,158,11)"/></g><g opacity="0.5" style="isolation:isolate;display:none"><rect x="180" y="720" width="13" height="13" rx="6.5" fill="rgb(99,102,241)"/></g><g opacity="0.5" style="isolation:isolate;display:none"><rect x="270" y="720" width="13" height="13" rx="6.5" fill="rgb(236,72,153)"/></g><g opacity="0.5" style="isolation:isolate;display:none"><rect x="360" y="720" width="13" height="13" rx="6.5" fill="rgb(34,211,238)"/></g><g opacity="0.5" style="isolation:isolate;display:none"><rect x="450" y="720" width="13" height="13" rx="6.5" fill="rgb(245,158,11)"/></g><g opacity="0.5" style="isolation:isolate;display:none"><rect x="540" y="720" width="13" height="13" rx="6.5" fill="rgb(99,102,241)"/></g><g opacity="0.5" style="isolation:isolate;display:none"><rect x="630" y="720" width="13" height="13" rx="6.5" fill="rgb(236,72,153)"/></g><g opacity="0.5" style="isolation:isolate;display:none"><rect x="720" y="720" width="13" height="13" rx="6.5" fill="rgb(34,211,238)"/></g><g opacity="0.5" style="isolation:isolate;display:none"><rect x="810" y="720" width="13" height="13" rx="6.5" fill="rgb(245,158,11)"/></g><g opacity="0.5" style="isolation:isolate;display:none"><rect x="900" y="720" width="13" height="13" rx="6.5" fill="rgb(99,102,241)"/></g><g opacity="0.5" style="isolation:isolate;display:none"><rect x="990" y="720" width="13" height="13" rx="6.5" fill="rgb(236,72,153)"/></g><g opacity="0.5" style="isolation:isolate;display:none"><rect x="1080" y="720" width="13" height="13" rx="6.5" fill="rgb(34,211,238)"/></g><g opacity="0.5" style="isolation:isolate;display:none"><rect x="1170" y="720" width="13" height="13" rx="6.5" fill="rgb(245,158,11)"/></g><g opacity="0.5" style="isolation:isolate;display:none"><rect x="1260" y="720" width="13" height="13" rx="6.5" fill="rgb(99,102,241)"/></g></g></g></g></g></svg>