<?xml version="1.0" encoding="UTF-8"?><svg xmlns="http://www.w3.org/2000/svg" viewBox="0 0 720 320" width="720" height="320"><defs><clipPath id="viewport-clip"><rect width="720" height="320"/></clipPath></defs><style>@keyframes t1{0%,20.192%{opacity:1;display:inline}20.193%,to{opacity:0;display:none}}@keyframes t2{0%,20.191%,38.463%,to{opacity:0;display:none}20.192%,38.462%{opacity:1;display:inline}}@keyframes t3{0%,38.461%,57.693%,to{opacity:0;display:none}38.462%,57.692%{opacity:1;display:inline}}@keyframes t4{0%,57.691%,77.886%,to{opacity:0;display:none}57.692%,77.885%{opacity:1;display:inline}}@keyframes t5{0%,77.884%,to{opacity:0;display:none}77.885%{opacity:1;display:inline}}:root{--scene-dur:2.08s}.t1{animation:t1 var(--scene-dur) infinite}.t1,.t2,.t3,.t4,.t5{animation-timing-function:step-end}.t2{animation:t2 var(--scene-dur) infinite}.t3{animation:t3 var(--scene-dur) infinite}.t4{animation:t4 var(--scene-dur) infinite}.t5{animation:t5 var(--scene-dur) infinite}</style><g clip-path="url(#viewport-clip)"><rect width="720" height="320" fill="#0d1117"/><defs><clipPath id="v0-cp0"><rect x="0" y="0" width="720" height="320"/></clipPath><clipPath id="v0-ov1"><rect x="0" y="0" width="720" height="320" rx="0"/></clipPath><clipPath id="v0-ct2"><rect x="150" y="82" width="211.9" height="146"/></clipPath><clipPath id="v0-ct3"><rect x="365.9" y="118" width="204.1" height="117"/></clipPath><filter id="v0-tsh4" x="-50%" y="-50%" width="200%" height="200%"><feGaussianBlur stdDeviation="12"/></filter><filter id="v0-tsh5" x="-50%" y="-50%" width="200%" height="200%"><feGaussianBlur stdDeviation="6"/></filter><path id="g0" d="M791 0H156v1474h635q137-2 228-32 155-51 251-187 77-110 105-238t28-244q0-294-118-498Q1125 0 791 0m229 1098q-71 120-281 120H455V256h284q218 0 304 215 47 118 47 281 0 225-70 346"/><path id="g1" d="M808-41q-316 0-483 172-224 211-224 608 0 405 224 608 167 172 483 172t483-172q223-203 223-608 0-397-223-608Q1124-41 808-41m291 396q107 135 107 384 0 248-107.5 383.5T808 1258t-292-135-109-384 109-384 292-135 291 135"/><path id="g2" d="M438 0H151v1474h448L867 315l266 1159h443V0h-287v997q0 43 1 120.5t1 119.5L1012 0H713L436 1237q0-42 1-119.5t1-120.5Z"/><path id="g3" d="M569 253q-24-27-54-43t-59-16q-28 0-48 12.5T377 236h-2q-10-38-37-81t-64.5-79T191 16 99-8Q56-8 34 17T12 84q0 22 11 51t30.5 58.5 46 58 57.5 51 65.5 36T292 352q41 0 63.5-24t24.5-62q2-23 21.5-42.5T455 204q30 0 56.5 15t49.5 39ZM66 60q0-26 10-41t30-15q27 0 53.5 14.5t51 38T256 110t36.5 62 24.5 62.5 9 55.5q0 21-10.5 35.5T283 340q-21 0-45-13.5T189.5 291 143 240t-39.5-60T76 118 66 60"/><path id="g4" d="m296 460-79-116h132l-6-12H209q-40-65-71.5-112.5t-53-82-32.5-58T41 38q0-19 13-26.5T84 4q36 0 79.5 27.5T250 99t82 85 66 81l6-4q-34-43-74.5-90.5t-83.5-87T159.5 18 77-8Q46-8 23.5 11T1 64q0 23 13 51.5T48 177t47.5 72 54.5 83H96l6 12h56l78 116Z"/><path id="g5" d="M387 344h65q-37-52-71-101t-60.5-90.5-42.5-73T262 30q0-26 27-26 21 0 53.5 20.5T413 81t78 84 76 102l6-2q-27-41-63.5-88.5T433 88t-80-68.5T278-8q-29 0-42.5 14.5T222 41q0 14 4.5 27.5T236 96l-2 1q-13-14-32.5-32.5t-42-34.5T113 3 67-8Q30-8 15 15T0 67q0 41 26 90.5t66 93 87 72.5 89 29q20 0 35-5.5t25-15 15.5-21.5 8.5-25h2ZM60 64q0-23 9.5-35.5T96 16t40 12.5T184 62t49.5 48.5T277 169t31 63 12 61q0 23-13 35t-32 12q-30 0-67-26t-70-66.5T82.5 158 60 64"/><path id="g6" d="M232 344q-55-79-93-133t-61.5-90-34-57T33 30Q33 4 54 4q20 0 46.5 14.5T156 56t58 52 54.5 57.5 45 55T342 264l8-5q-12-20-32.5-48T271 153.5 216 95t-59-52T98.5 6 46-8Q19-8 6 7T-7 40q0 21 9.5 44.5T33 142t54.5 82.5T168 344Zm58 186q14 0 23-9.5t9-23.5-9-23.5-23-9.5-23 9.5-9 23.5 9 23.5 23 9.5"/><path id="g7" d="M220 344 88 161l2-2 49 58.5q28 33.5 60 63.5t66.5 50.5T334 352q30 0 46.5-16.5T397 293q0-16-11.5-38T357 208t-37-51-37-49.5-28.5-43T243 32q0-28 28-28 32 0 68 21.5T425 98q20 20 40.5 44t39.5 47.5 34.5 44.5 24.5 35l7-4q-20-30-51.5-71.5T451 112q-22-24-45-46t-46-38.5-45.5-26T270-8q-29 0-48 16t-19 44q0 30 24 65.5t53 71.5 53 69 24 58q0 12-8 18t-21 6q-25 0-56-18.5t-63.5-49-65-68-60.5-75-50-72T0 0h-62q26 44 55.5 89.5l58.5 90q29 44.5 55.5 86T155 341Z"/><clipPath id="v1-ct0"><rect x="90.4" y="85" width="143.4" height="150"/></clipPath><filter id="v1-tsh1" x="-50%" y="-50%" width="200%" height="200%"><feGaussianBlur stdDeviation="8"/></filter><filter id="v1-tsh2" x="-50%" y="-50%" width="200%" height="200%"><feGaussianBlur stdDeviation="4"/></filter><clipPath id="v1-ct3"><rect x="233.8" y="85" width="395.8" height="150"/></clipPath><filter id="v1-tsh4" x="-50%" y="-50%" width="200%" height="200%"><feGaussianBlur stdDeviation="14"/></filter><filter id="v1-tsh5" x="-50%" y="-50%" width="200%" height="200%"><feGaussianBlur stdDeviation="7"/></filter><filter id="v1-tsh6" x="-50%" y="-50%" width="200%" height="200%"><feGaussianBlur stdDeviation="3"/></filter><path id="g8" d="M1125 1472V0H848v151Q787 54 709 10T515-34q-191 0-321.5 154.5T63 517q0 279 128.5 439T535 1116q99 0 176-43.5T836 952v520ZM357 538q0-151 60-241 59-91 180-91t184 90 63 233q0 200-101 286-62 52-144 52-125 0-183.5-94.5T357 538"/><path id="g9" d="M1042 952q138-173 138-409 0-240-138-410.5T623-38 204 132.5 66 543q0 236 138 409t419 173 419-173m-420-68q-125 0-192.5-88.5T362 543t67.5-253T622 201t192 89 67 253-67 252.5T622 884"/><path id="g10" d="M438 0H151v1474h448L867 315l266 1159h443V0h-287v997q0 43 1 120.5t1 119.5L1012 0H713L436 1237q0-42 1-119.5t1-120.5Z"/><path id="g11" d="M632 203V-10l-135-5q-202-7-276 70-48 49-48 151v671H21v203h152v304h282v-304h177V877H455V301q0-67 17-83.5T576 201q13 0 27.5.5T632 203"/><path id="g12" d="M426 1090V0H137v1090Zm0 393v-263H137v263Z"/><path id="g13" d="M646 879q-145 0-199-123-28-65-28-166V0H135v1088h275V929q55 84 104 121 88 66 223 66 169 0 276.5-88.5T1121 734V0H829v663q0 86-23 132-42 84-160 84"/><clipPath id="v2-cp0"><rect x="0" y="0" width="720" height="320"/></clipPath><clipPath id="v2-ov1"><rect x="0" y="0" width="720" height="320" rx="0"/></clipPath><clipPath id="v2-ct2"><rect x="94.9" y="110" width="530.2" height="100"/></clipPath><path id="g14" d="m199 27 139 147q51-19 142-34 74 45 101 114.5T631 528l83 745q-453-53-453-327 0-82 44-171L143 623q-22 49-22 145 0 300 233.5 458.5T1028 1385q726 0 726-505 0-302-204-557Q1279-14 724-14q-233 0-525 41m679 1269-84-751-10-94q-15-131-56-191T567 130q219-30 409-30 177 0 273.5 49.5T1438 337q129 192 129 431 0 528-656 528Z"/><path id="g15" d="M328-26q-225 0-225 298 0 240 176 462.5T644 957q228 0 228-298 0-241-176-463T328-26M449 86q115 0 192.5 128T719 533q0 312-194 312-114 0-191.5-128.5T256 398q0-312 193-312"/><path id="g16" d="M307 776 144 620q-23 78-23 156 0 248 187.5 411.5T780 1351q47 0 83-4 24-2 32-2h13q-1-29-1-42 0-154 134-496l45-114q9-24 29-79l37-104q30-82 52-163l52 86q86 143 154 260l98 169 76 140 92 168q13 23 51 94l193 121q-64-373-64-599l-13-327-3-123q0-156 20.5-204.5T1948 83q71 0 127 20 9-12 9-21 0-33-68-49l-53-13-284-58q-5 94-5 173 0 510 45 906-138-196-208-318l-60-103q-123-212-199-409L1108 61q-14 189-149 531l-39 101q-8 18-36 88-57 138-85 264l-81-495q-36-223-75-303.5T505 114l252-19L629-22 202 0l129 124 113-10q66 49 94 120t65 287l120 703h-47q-416 0-416-275 0-86 47-173"/><path id="g17" d="m420 815-50-442q-13-119-13-176 0-113 77-113 83 0 172 136 15-19 15-34 0-56-98.5-134T353-26q-142 0-142 182 0 67 17 217l49 442H66l117 116h107l21 182 147 49-25-231h574l-66-594-7-64q-9-85-9-120 0-50 26-50 85 0 167 188 28-16 28-33 0-35-82-140Q951-26 852-26q-77 0-77 106 0 39 13 155l9 88 55 492Zm506 271 84 207q112 46 184 127 11-14 11-29 0-134-279-305"/><path id="g18" d="M376 35 227-26l3 28 8 74 8 70 52 464 6 53q6 62 6 100 0 64-32 64-75 0-161-170-23 19-23 33 0 60 109.5 163.5T376 957q86 0 86-110 0-28-5-75l-8-81-8-68-8-71q118 176 258.5 290.5T931 957q97 0 97-135 0-41-11-123l-54-373q-16-112-16-177 0-52 28-52 69 0 170 184 24-15 24-31 0-65-111.5-170.5T876-26q-78 0-78 112 0 82 21 227l35 242q17 118 17 187 0 79-55 79-128 0-259.5-173.5T403 275Z"/><clipPath id="v3-cp0"><rect x="0" y="0" width="720" height="320"/></clipPath><clipPath id="v3-ov1"><rect x="0" y="0" width="720" height="320" rx="0"/></clipPath><linearGradient id="v3-bg2" gradientUnits="userSpaceOnUse" x1="53.1719" y1="159.5" x2="666.8125" y2="159.5"><stop offset="0" stop-color="rgb(255,16,240)"/><stop offset="0.25" stop-color="rgb(255,140,0)"/><stop offset="0.5" stop-color="rgb(255,247,0)"/><stop offset="0.75" stop-color="rgb(57,255,20)"/><stop offset="1" stop-color="rgb(0,255,255)"/></linearGradient><clipPath id="v3-ct3"><rect x="53.2" y="84" width="613.6" height="151"/></clipPath><mask id="v3-tbgm4" maskUnits="userSpaceOnUse" x="53.2" y="84" width="613.6" height="151"><g transform="translate(53.17 205)" fill="rgb(255,255,255)" role="img" aria-label="domotion"><title>domotion</title><g transform="scale(.05664 -.05664)"><use href="#g19" x="0" y="0"/><use href="#g20" x="1470.9" y="0"/><use href="#g21" x="2939.86" y="0"/><use href="#g20" x="5006.62" y="0"/><use href="#g22" x="6481.66" y="0"/><use href="#g23" x="7309.52" y="0"/><use href="#g20" x="7969.66" y="0"/><use href="#g24" x="9438.34" y="0"/></g></g></mask><path id="g19" d="M1125 1472V0H848v151Q787 54 709 10T515-34q-191 0-321.5 154.5T63 517q0 279 128.5 439T535 1116q99 0 176-43.5T836 952v520ZM357 538q0-151 60-241 59-91 180-91t184 90 63 233q0 200-101 286-62 52-144 52-125 0-183.5-94.5T357 538"/><path id="g20" d="M1042 952q138-173 138-409 0-240-138-410.5T623-38 204 132.5 66 543q0 236 138 409t419 173 419-173m-420-68q-125 0-192.5-88.5T362 543t67.5-253T622 201t192 89 67 253-67 252.5T622 884"/><path id="g21" d="M745 790q-36 79-141 79-122 0-164-79-23-45-23-134V0H128v1088h277V929q53 85 100 121 83 64 215 64 125 0 202-55 62-51 94-131 56 96 139 141 88 45 196 45 72 0 142-28t127-98q46-57 62-140 10-55 10-161l-2-687h-292v694q0 62-20 102-38 76-140 76-118 0-163-98-23-52-23-125V0H765v649q0 97-20 141"/><path id="g22" d="M632 203V-10l-135-5q-202-7-276 70-48 49-48 151v671H21v203h152v304h282v-304h177V877H455V301q0-67 17-83.5T576 201q13 0 27.5.5T632 203"/><path id="g23" d="M426 1090V0H137v1090Zm0 393v-263H137v263Z"/><path id="g24" d="M646 879q-145 0-199-123-28-65-28-166V0H135v1088h275V929q55 84 104 121 88 66 223 66 169 0 276.5-88.5T1121 734V0H829v663q0 86-23 132-42 84-160 84"/><clipPath id="v4-cp0"><rect x="0" y="0" width="720" height="320"/></clipPath><clipPath id="v4-ov1"><rect x="0" y="0" width="720" height="320" rx="0"/></clipPath><clipPath id="v4-ct2"><rect x="148.3" y="185" width="38.4" height="37"/></clipPath><filter id="v4-tsh3" x="-50%" y="-50%" width="200%" height="200%"><feGaussianBlur stdDeviation="3"/></filter><clipPath id="v4-ct4"><rect x="192.7" y="81" width="379" height="158"/></clipPath><path id="g25" d="M1040 219h17q54 0 81-27.5t27-80.5q0-59-28.5-85T1040 0H887q-29 0-44.5 11.5T827 43v70Q778 46 701 10.5T528-25q-196 0-328 133.5T68 442q0 208 133.5 345T541 924q71 0 138.5-23.5T803 834v253H670q-69 0-98 26.5t-29 84.5q0 59 29 85t98 26h311q34 0 46.5-14t12.5-52ZM571 711q-98 0-162.5-73.5T344 451q0-116 64-189.5T571 188t163.5 74T799 451q0 112-65 186t-163 74"/><path id="g26" d="M614 735q-117 0-192.5-76.5T346 463q0-120 75.5-198.5T614 186t193 78.5T883 463q0 119-75.5 195.5T614 735m0 211q243 0 394-136t151-349q0-214-151-350T614-25q-242 0-393 136T70 461q0 213 151.5 349T614 946"/><path id="g27" d="M438 0H151v1474h448L867 315l266 1159h443V0h-287v997q0 43 1 120.5t1 119.5L1012 0H713L436 1237q0-42 1-119.5t1-120.5Z"/><path id="g28" d="M808-41q-316 0-483 172-224 211-224 608 0 405 224 608 167 172 483 172t483-172q223-203 223-608 0-397-223-608Q1124-41 808-41m291 396q107 135 107 384 0 248-107.5 383.5T808 1258t-292-135-109-384 109-384 292-135 291 135"/><path id="g29" d="M1227 1474v-261H786V0H476v1213H33v261Z"/><path id="g30" d="M132 1474h306V0H132Z"/><path id="g31" d="M1348 0h-308L438 1047V0H151v1474h323l587-1029v1029h287Z"/></defs><g clip-path="url(#v0-cp0)" class="t1"><rect x="0" y="0" width="720" height="320" rx="0" fill="rgb(10,0,20)"/><g clip-path="url(#v0-ov1)"><g transform="translate(155.98 209)" fill="rgb(179,0,255)" role="img" aria-label="DOM"><title>DOM</title><g transform="scale(.05859 -.05859)"><use href="#g0" x="0" y="0"/><use href="#g1" x="1097.87" y="0"/><use href="#g2" x="2182.67" y="0"/></g></g><g transform="translate(152.98 206)" fill="rgb(0,255,255)" role="img" aria-label="DOM"><title>DOM</title><g transform="scale(.05859 -.05859)"><use href="#g0" x="0" y="0"/><use href="#g1" x="1097.87" y="0"/><use href="#g2" x="2182.67" y="0"/></g></g><g transform="translate(149.98 203)" fill="rgb(255,16,240)" role="img" aria-label="DOM"><title>DOM</title><g transform="scale(.05859 -.05859)"><use href="#g0" x="0" y="0"/><use href="#g1" x="1097.87" y="0"/><use href="#g2" x="2182.67" y="0"/></g></g><g filter="url(#v0-tsh4)"><g transform="translate(365.91 203)" fill="rgb(255,140,0)" role="img" aria-label="otation"><title>otation</title><g transform="scale(.096 -.096)"><use href="#g3" x="0" y="0"/><use href="#g4" x="312.99" y="0"/><use href="#g5" x="562.99" y="0"/><use href="#g4" x="968.75" y="0"/><use href="#g6" x="1218.75" y="0"/><use href="#g3" x="1447.75" y="0"/><use href="#g7" x="1760.74" y="0"/></g></g></g><g filter="url(#v0-tsh5)"><g transform="translate(365.91 203)" fill="rgb(255,247,0)" role="img" aria-label="otation"><title>otation</title><g transform="scale(.096 -.096)"><use href="#g3" x="0" y="0"/><use href="#g4" x="312.99" y="0"/><use href="#g5" x="562.99" y="0"/><use href="#g4" x="968.75" y="0"/><use href="#g6" x="1218.75" y="0"/><use href="#g3" x="1447.75" y="0"/><use href="#g7" x="1760.74" y="0"/></g></g></g><g transform="translate(365.91 203)" fill="rgb(255,247,0)" role="img" aria-label="otation"><title>otation</title><g transform="scale(.096 -.096)"><use href="#g3" x="0" y="0"/><use href="#g4" x="312.99" y="0"/><use href="#g5" x="562.99" y="0"/><use href="#g4" x="968.75" y="0"/><use href="#g6" x="1218.75" y="0"/><use href="#g3" x="1447.75" y="0"/><use href="#g7" x="1760.74" y="0"/></g></g></g></g><g filter="url(#v1-tsh1)" class="t2"><g transform="translate(90.39 195)" fill="rgb(0,255,255)" role="img" aria-label="do"><title>do</title><g transform="scale(.05371 -.05371)"><use href="#g8" x="0" y="0"/><use href="#g9" x="1365.24" y="0"/></g></g></g><g filter="url(#v1-tsh2)" class="t2"><g transform="translate(90.39 195)" fill="rgb(0,255,255)" role="img" aria-label="do"><title>do</title><g transform="scale(.05371 -.05371)"><use href="#g8" x="0" y="0"/><use href="#g9" x="1365.24" y="0"/></g></g></g><g transform="translate(90.39 195)" fill="rgb(0,255,255)" role="img" aria-label="do" class="t2"><title>do</title><g transform="scale(.05371 -.05371)"><use href="#g8" x="0" y="0"/><use href="#g9" x="1365.24" y="0"/></g></g><g filter="url(#v1-tsh4)" class="t2"><g transform="translate(233.78 195)" fill="rgb(255,0,255)" role="img" aria-label="Motion"><title>Motion</title><g transform="scale(.05371 -.05371)"><use href="#g10" x="0" y="0"/><use href="#g9" x="2008.44" y="0"/><use href="#g11" x="3312.29" y="0"/><use href="#g12" x="4118.69" y="0"/><use href="#g9" x="4757.24" y="0"/><use href="#g13" x="6061.09" y="0"/></g></g></g><g filter="url(#v1-tsh5)" class="t2"><g transform="translate(233.78 195)" fill="rgb(255,16,240)" role="img" aria-label="Motion"><title>Motion</title><g transform="scale(.05371 -.05371)"><use href="#g10" x="0" y="0"/><use href="#g9" x="2008.44" y="0"/><use href="#g11" x="3312.29" y="0"/><use href="#g12" x="4118.69" y="0"/><use href="#g9" x="4757.24" y="0"/><use href="#g13" x="6061.09" y="0"/></g></g></g><g filter="url(#v1-tsh6)" class="t2"><g transform="translate(233.78 195)" fill="rgb(255,0,170)" role="img" aria-label="Motion"><title>Motion</title><g transform="scale(.05371 -.05371)"><use href="#g10" x="0" y="0"/><use href="#g9" x="2008.44" y="0"/><use href="#g11" x="3312.29" y="0"/><use href="#g12" x="4118.69" y="0"/><use href="#g9" x="4757.24" y="0"/><use href="#g13" x="6061.09" y="0"/></g></g></g><g transform="translate(233.78 195)" fill="rgb(255,0,170)" role="img" aria-label="Motion" class="t2"><title>Motion</title><g transform="scale(.05371 -.05371)"><use href="#g10" x="0" y="0"/><use href="#g9" x="2008.44" y="0"/><use href="#g11" x="3312.29" y="0"/><use href="#g12" x="4118.69" y="0"/><use href="#g9" x="4757.24" y="0"/><use href="#g13" x="6061.09" y="0"/></g></g><g clip-path="url(#v2-cp0)" class="t3"><rect x="0" y="0" width="720" height="320" rx="0" fill="rgb(10,26,10)"/><g clip-path="url(#v2-ov1)"><g transform="rotate(-4 348.742 -161.971)skewX(-8)"><g transform="translate(102.91 203.24)" fill="rgba(255,0,255,0.3)" role="img" aria-label="DoMotion"><title>DoMotion</title><g transform="scale(.04895 -.04895)"><use href="#g14" x="0" y="0"/><use href="#g15" x="1428.81" y="0"/><use href="#g16" x="2896.25" y="0"/><use href="#g15" x="4642.36" y="0"/><use href="#g17" x="6100.54" y="0"/><use href="#g15" x="7812.82" y="0"/><use href="#g18" x="9306.11" y="0"/></g></g><g transform="translate(98.91 199.24)" fill="rgb(255,0,255)" role="img" aria-label="DoMotion"><title>DoMotion</title><g transform="scale(.04895 -.04895)"><use href="#g14" x="0" y="0"/><use href="#g15" x="1428.81" y="0"/><use href="#g16" x="2896.25" y="0"/><use href="#g15" x="4642.36" y="0"/><use href="#g17" x="6100.54" y="0"/><use href="#g15" x="7812.82" y="0"/><use href="#g18" x="9306.11" y="0"/></g></g><g transform="translate(94.91 195.24)" fill="rgb(57,255,20)" role="img" aria-label="DoMotion"><title>DoMotion</title><g transform="scale(.04895 -.04895)"><use href="#g14" x="0" y="0"/><use href="#g15" x="1428.81" y="0"/><use href="#g16" x="2896.25" y="0"/><use href="#g15" x="4642.36" y="0"/><use href="#g17" x="6100.54" y="0"/><use href="#g15" x="7812.82" y="0"/><use href="#g18" x="9306.11" y="0"/></g></g></g></g></g><g clip-path="url(#v3-cp0)" class="t4"><rect x="0" y="0" width="720" height="320" rx="0" fill="rgb(0,0,0)"/><g clip-path="url(#v3-ov1)"><rect x="53.2" y="84" width="613.6" height="151" fill="url(#v3-bg2)" mask="url(#v3-tbgm4)"/></g></g><g clip-path="url(#v4-cp0)" class="t5"><rect x="0" y="0" width="720" height="320" rx="0" fill="rgb(16,0,32)"/><g clip-path="url(#v4-ov1)"><g filter="url(#v4-tsh3)"><g transform="translate(148.28 212)" fill="rgb(255,255,255)" role="img" aria-label="do"><title>do</title><g transform="scale(.01563 -.01563)"><use href="#g25" x="0" y="0"/><use href="#g26" x="1229" y="0"/></g></g></g><g transform="translate(148.28 212)" fill="rgb(255,255,255)" role="img" aria-label="do"><title>do</title><g transform="scale(.01563 -.01563)"><use href="#g25" x="0" y="0"/><use href="#g26" x="1229" y="0"/></g></g><g transform="translate(197.69 212)" fill="rgb(255,247,0)" role="img" aria-label="MOTION"><title>MOTION</title><g transform="scale(.06348 -.06348)"><use href="#g27" x="0" y="0"/><use href="#g28" x="1404.8" y="0"/><use href="#g29" x="2460.8" y="0"/><use href="#g30" x="3341.78" y="0"/><use href="#g28" x="3868.8" y="0"/><use href="#g31" x="4924.8" y="0"/></g></g><g transform="translate(187.69 212)" fill="rgb(0,255,255)" role="img" aria-label="MOTION"><title>MOTION</title><g transform="scale(.06348 -.06348)"><use href="#g27" x="0" y="0"/><use href="#g28" x="1404.8" y="0"/><use href="#g29" x="2460.8" y="0"/><use href="#g30" x="3341.78" y="0"/><use href="#g28" x="3868.8" y="0"/><use href="#g31" x="4924.8" y="0"/></g></g><g transform="translate(192.69 212)" fill="rgb(255,16,240)" role="img" aria-label="MOTION"><title>MOTION</title><g transform="scale(.06348 -.06348)"><use href="#g27" x="0" y="0"/><use href="#g28" x="1404.8" y="0"/><use href="#g29" x="2460.8" y="0"/><use href="#g30" x="3341.78" y="0"/><use href="#g28" x="3868.8" y="0"/><use href="#g31" x="4924.8" y="0"/></g></g></g></g></g></svg>