<?xml version="1.0" encoding="UTF-8"?><svg xmlns="http://www.w3.org/2000/svg" viewBox="0 0 720 420" width="720" height="420"><defs><clipPath id="viewport-clip"><rect width="720" height="420"/></clipPath></defs><style>@keyframes fp-0{0%{transform:translateX(0)}15.18%,to{transform:translateX(-720px)}}@keyframes fv-0{0%,15.18%,to{opacity:0}}@keyframes t0-reveal{0%,2.38%,24.6%,to{width:0}10%,23.81%{width:191.2px}}@keyframes t0-vis{0%,2.38%,24.6%,to{opacity:0}2.62%,23.81%{opacity:1}}@keyframes fp-1{0%,11.8%{transform:translateX(720px)}38.2%,to{transform:translateX(-720px)}}@keyframes fv-1{0%,11.8%,38.2%,to{opacity:0}}@keyframes t1-reveal{0%,17.46%,39.68%,to{width:0}31.75%,38.89%{width:355px}}@keyframes t1-vis{0%,17.46%,39.68%,to{opacity:0}17.7%,38.89%{opacity:1}}@keyframes fv-2{0%,38%,65.08%,to{opacity:0}38.1%,61.9%{opacity:1}}@keyframes fv-3{0%,64.98%,to{opacity:0}65.08%,96.83%{opacity:1}}.f{opacity:0}.f-0{animation:fv-0 12.6s infinite}.fp-0{animation:fp-0 12.6s infinite}.t0-reveal{animation:t0-reveal 12.6s infinite}.t0-text{animation:t0-vis 12.6s infinite}.f-1{animation:fv-1 12.6s infinite}.fp-1{animation:fp-1 12.6s infinite}.t1-reveal{animation:t1-reveal 12.6s infinite}.t1-text{animation:t1-vis 12.6s infinite}.f-2{animation:fv-2 12.6s infinite}.f-3{animation:fv-3 12.6s infinite}</style><g clip-path="url(#viewport-clip)"><rect width="720" height="420" fill="#0d1117"/><g class="f f-0"><clipPath id="fc-0"><rect width="720" height="420"/></clipPath><g clip-path="url(#fc-0)" class="fp fp-0"><defs><clipPath id="f0-ct0"><rect x="16" y="16" width="16.1" height="15"/></clipPath><path id="g0" d="M710-141H578v1725h132ZM86 392h239q12-101 99.5-161.5T647 170q131 0 212 61t81 158q0 82-61.5 132.5T677 604l-164 37q-199 45-296 145t-97 262q0 130 64.5 226.5t182 150T641 1478q150 0 265-52.5t182.5-146.5 72.5-219H927q-12 98-89 156t-195 58q-126 0-200.5-56.5T368 1065q0-80 58.5-128T621 857l155-35q217-49 314-145.5t97-262.5q0-138-67-238.5T929.5 20 637-35q-163 0-284.5 52.5T162 166 86 392"/></defs><g transform="translate(16 28.57)" fill="rgb(40,200,64)" role="img" aria-label="$ "><title>$ </title><g transform="scale(.00635 -.00635)"><use href="#g0" x="0" y="0"/></g></g></g></g><defs><clipPath id="t0-clip"><rect class="t0-reveal" x="24" y="19" width="0" height="17"/></clipPath></defs><text class="t0-text" x="24" y="32" fill="#e6edf3" font-size="13" font-family="'SF Mono', Menlo, Monaco, monospace" clip-path="url(#t0-clip)">sk search error-handling</text><g class="f f-1"><clipPath id="fc-1"><rect width="720" height="420"/></clipPath><g clip-path="url(#fc-1)" class="fp fp-1"><defs><clipPath id="f1-ct0"><rect x="16" y="16" width="209" height="15"/></clipPath><clipPath id="f1-ct1"><rect x="16" y="60" width="289.3" height="15"/></clipPath><clipPath id="f1-ct2"><rect x="16" y="82" width="361.6" height="15"/></clipPath><clipPath id="f1-ct3"><rect x="16" y="104" width="393.8" height="15"/></clipPath><clipPath id="f1-ct4"><rect x="16" y="148" width="16.1" height="15"/></clipPath><path id="g0" d="M710-141H578v1725h132ZM86 392h239q12-101 99.5-161.5T647 170q131 0 212 61t81 158q0 82-61.5 132.5T677 604l-164 37q-199 45-296 145t-97 262q0 130 64.5 226.5t182 150T641 1478q150 0 265-52.5t182.5-146.5 72.5-219H927q-12 98-89 156t-195 58q-126 0-200.5-56.5T368 1065q0-80 58.5-128T621 857l155-35q217-49 314-145.5t97-262.5q0-138-67-238.5T929.5 20 637-35q-163 0-284.5 52.5T162 166 86 392"/><path id="g1" d="M708-141H589v1725h119ZM137 380h160q13-123 109-196t243-73q149 0 241 75t92 195q0 103-67.5 165T694 646l-126 30q-204 51-299.5 147.5T173 1075q0 121 59 210.5t165.5 139T648 1474q136 0 239.5-48.5t165-137T1120 1082H962q-14 116-98 183t-216 67q-144 0-227.5-68T337 1080q0-99 63.5-158T614 824l127-32q215-54 309.5-149t94.5-256q0-126-61.5-220T910 21 647-31q-149 0-260.5 50t-176 142.5T137 380"/><path id="g2" d="M238 793q0 140 110 225t289 85q170 0 277-78t122-212H872q-15 73-79 115t-159 42q-103 0-165-45.5T407 802q0-64 45-102.5T599 637l153-34q158-36 232.5-107.5T1059 307q0-148-115.5-237T635-19q-184 0-299 79.5T207 279h173q19-77 87.5-119.5T641 117q111 0 176.5 48T883 292q0 68-44 106.5T692 461l-161 37q-293 67-293 295"/><path id="g3" d="m452 592 473 491h206L680 625l-67-55-174-172V0H269v1510h170V592Zm116-16 126 104L1161 0H959Z"/><path id="g4" d="M645 963q-136 0-213-89.5T355 624h571q0 159-74.5 249T645 963m281-686h165q-16-89-75.5-156t-151-103.5T658-19q-223 0-347 128T187 468v162q0 143 57 249t160.5 165 241.5 59q141 0 241-60t153.5-172 53.5-270V499H355v-42q0-154 82.5-245T658 121q102 0 174 41.5T926 277"/><path id="g5" d="M523-19q-155 0-250 89.5T178 307q0 144 100 226.5T563 625l298 15v98q0 105-60.5 161.5T627 956q-94 0-156.5-39T386 806H219q10 86 65.5 151T429 1058.5t200 36.5q191 0 296-93t105-261V-1H868v165h-17Q812 76 727 28.5T523-19m49 142q82 0 147.5 34T823 249.5 861 381v133l-279-13q-232-11-232-190 0-87 59.5-137.5T572 123"/><path id="g6" d="M590 485V0H424v954H183v129h405V807h22q30 149 128.5 226.5T994 1111q47 0 89-6.5t68-17.5V906q-37 15-85.5 23t-93.5 8q-180 0-281-120.5T590 485M926 0H205v129h721Z"/><path id="g7" d="M1085 750H917q-15 95-89 152t-178 57q-142 0-218-95t-76-272V492q0-177 76-272t218-95q105 0 178.5 56.5T917 332h168q-21-162-137-256.5T653-19q-221 0-344 129T186 470v144q0 232 123 361t344 129q180 0 295.5-95T1085 750"/><path id="g8" d="M188 0v1510h164V891h14q42 101 133 156t215 55q177 0 270.5-102.5T1078 703V0H908v661q0 149-61 221t-189 72q-135 0-217.5-87T358 638V0Z"/><path id="g9" d="M633-19q-144 0-249.5 58.5T220.5 206 163 460v163q0 146 57.5 253.5t163 166.5 249.5 59 249.5-59 163-166.5T1103 623V460q0-146-57.5-254t-163-166.5T633-19m0 978q-139 0-220.5-94.5T331 607V476q0-164 81.5-258T633 124t220.5 94T935 476v131q0 163-81.5 257.5T633 959"/><path id="g10" d="M1162 566H104v148h1058Z"/><path id="g11" d="M189 0v1083h163V892h14q43 101 133.5 156t213.5 55q177 0 270.5-102.5T1077 703V0H907v662q0 149-61 221t-188 72q-135 0-217-87t-82-229V0Z"/><path id="g12" d="M565-18q116 0 199.5 46.5T890 164h19V0h167v1510H903V917h-18q-36 89-119.5 136.5T565 1101q-126 0-219-56.5T201.5 885 150 643V440q0-137 51.5-240.5T346 39t219-57m50 147q-135 0-214.5 92T321 466v153q0 154 79.5 245.5T615 956q133 0 212.5-91.5T907 619V466q0-154-79.5-245.5T615 129"/><path id="g13" d="M1107 0H208v133h371v1244H211v133h538V133h358Z"/><path id="g14" d="M652 1354q-60 0-100.5 39t-40.5 97q0 57 40.5 96.5T652 1626t100.5-39.5T793 1490q0-58-40.5-97T652 1354M1107 0H208v133h372v817H211v133h537V133h359Z"/><path id="g15" d="M310 471q0-152 80.5-244.5T606 134q134 0 214 92t80 245v148q0 154-80 245.5T606 956q-135 0-215.5-91.5T310 619Zm291-878q-188 0-306 77.5T160-119h168q17-68 92-110t184-42q143 0 219 71.5T899 4v165h-18Q845 85 759 36.5T555-12q-125 0-218.5 57T191 205t-52 241v197q0 139 52 242t146.5 159.5T559 1101q118 0 203-48t120-136h19v166h168V0q0-127-55.5-218t-160-140T601-407"/><path id="g16" d="M682-204q-299 0-443 189T95 565v133q0 396 137 588.5T650 1479q266 0 400-165.5T1184 818V542q0-126-59-194t-170-68H673q-59 0-95 38t-36 100v433q0 63 33.5 100.5T663 989q55 0 88-37.5T784 851V416h136q59 0 84.5 26t25.5 86v256q0 283-92 413t-290 130q-140 0-226-63t-125.5-201T257 701V587q0-227 44.5-368.5t141-207T693-54q68 0 128.5 8T911-25v-144q-35-15-100.5-25T682-204"/><path id="g17" d="M1135 720H861q-13 94-66 140.5T654 907q-109 0-167-82t-58-235v-76q0-153 58-234.5T654 198q88 0 140.5 44.5T861 375h274q-18-194-141-296T655-23q-245 0-376 133.5T148 493v118q0 250 131 383.5T655 1128q216 0 338.5-103.5T1135 720"/><path id="g18" d="M633-23q-156 0-271 59.5T185 206t-62 259v170q0 151 62 260.5t177 169 271 59.5 271-59.5 177-169 62-260.5V465q0-149-62-259T904 36.5 633-23m0 930q-108 0-171.5-76T398 624V477q0-131 63.5-207T633 194t171.5 76T868 477v147q0 131-63.5 207T633 907"/><path id="g19" d="M1192 851V0H955v762q0 63-26.5 98T856 895q-47 0-76-38t-29-102V0H517v763q0 63-26.5 97.5T417 895q-48 0-77-38t-29-102V0H74v1101h244V930h30q18 95 72.5 144.5T556 1124q75 0 125.5-48.5T749 938h30q18 88 72 137t133 49q101 0 154.5-70t53.5-203"/><path id="g20" d="M1127 1101V0H856v185h-17Q799 85 712.5 31T507-23Q327-23 233 82t-94 306v713h280V452q0-124 49.5-183.5T621 209t165 69 62 186v637Z"/><path id="g21" d="M139 0v1101h271V916h17q40 100 126.5 154t205.5 54q180 0 274-105t94-306V0H847v649q0 124-49.5 183.5T645 892t-165-69-62-186V0Z"/><path id="g22" d="M649 1330q-86 0-138 47t-52 123q0 77 52 123.5t138 46.5 138-46.5 52-123.5q0-76-52-123t-138-47M1121 0H165v212h353v677H184v212h605V212h332Z"/><path id="g23" d="M402 1415h274v-324h410V878H682V344q0-64 41.5-99T841 210q61 0 120.5.5T1072 212V2q-55-1-123-2.5T818-2Q668-2 576.5 32.5t-133 111T402 346v532H115v213h287Z"/><path id="g24" d="M306-397q-37 0-69 .5t-38 1.5v218q5-2 27.5-2.5t33.5-.5q84 0 131.5 30.5T458-51l11 43L81 1101h308l241-855h17l241 855h296L806-16q-47-141-111.5-224.5T536-360.5 306-397"/><path id="g25" d="M431-214H151l677 1871h287Z"/><path id="g26" d="M646 918q-105 0-164.5-69T422 658h441q0 122-57.5 191T646 918m222-610h264q-10-97-74.5-172T889 19 656-23q-241 0-374 129T149 469v175q0 145 62.5 253T387 1064.5t264 59.5q147 0 254.5-60T1073 894t60-259V487H422v-59q0-111 64-178t169-67q81 0 140 34.5t73 90.5"/><path id="g27" d="M613 489V0H345v905H116v196h499V819h44q37 163 125.5 237t243.5 74q47 0 87.5-6t69.5-17V819q-37 15-87 23.5t-97 8.5q-196 0-292-90.5T613 489M932 0H137v196h795Z"/><path id="g28" d="M1163 521H103v241h1060Z"/><path id="g29" d="M135 0v1522h273V913h17q39 99 127 153.5t209 54.5q180 0 275.5-106t95.5-305V0H852v646q0 122-51 182.5T647 889q-106 0-169.5-69.5T414 634V0Z"/><path id="g30" d="M482-18q-157 0-252.5 91.5T134 315q0 148 107 233.5T552 648l256 16v89q0 74-46 115.5T632 910q-70 0-119-30.5T447 796H174q10 99 71 172t162.5 113 232.5 40q214 0 329.5-97T1085 748V0H819v148h-24Q754 69 672 25.5T482-18m96 213q68 0 119.5 27.5t81 75.5T808 408v84l-208-13q-191-12-191-146 0-63 45.5-100.5T578 195"/><path id="g31" d="M508-17q121 0 200.5 53T817 188h20V0h289v1522H834V915h-21q-27 99-106.5 152T508 1120q-126 0-216-56T154.5 902 107 647V456q0-149 47.5-255T292 39t216-56m109 231q-105 0-164.5 67T393 465v180q0 117 59.5 184T617 896t164.5-67T841 645V465q0-117-59.5-184T617 214"/><path id="g32" d="M1121 0H165v212h349v1098H184v212h609V212h328Z"/><path id="g33" d="M380 487q0-115 62.5-183T611 236t168 67.5T841 487v158q0 115-62 183t-168 68-168.5-68T380 645Zm222-901q-216 0-348.5 84.5T108-99h273q14-55 74.5-87.5T606-219q118 0 179 55T846-3v213h-21q-25-92-114-148.5T499 5Q372 5 281 61T141.5 223.5 93 478v169q0 149 50 255t143.5 162 225.5 56q120 0 206.5-55.5T831 915h21v186h274V1q0-128-63.5-221t-181-143.5T602-414"/><path id="g34" d="M759 1118q127 0 216.5-56T1113 900.5t48-255.5V454q0-148-48-254.5T975.5 37 759-19q-119 0-198 53T454 186h-20v-553H142v1468h288V913h21q28 100 107.5 152.5T759 1118M651 887q-105 0-164.5-67T427 636V456q0-117 59.5-184T651 205q104 0 164 67.5T875 456v180q0 117-60 184t-164 67"/><path id="g35" d="M184 782q0 159 121 252t327 93q202 0 319-85t126-239H813q-9 56-58.5 88.5T630 924q-76 0-123-33.5T460 803q0-46 35.5-75T610 682l173-36q168-35 245.5-108.5T1106 339q0-166-127.5-264T634-23q-213 0-338 86T160 303h276q13-58 65.5-89.5T638 182q83 0 131.5 33.5T818 305q0 48-35 75t-121 45l-165 36q-313 68-313 321"/><path id="g36" d="M139 382h172q13-121 103-190.5T648 122q145 0 231.5 71.5T966 383q0 97-66 157.5T687 638l-124 31q-201 50-295 148.5T174 1072q0 122 58.5 212T397 1423.5t250 49.5q136 0 240-49t164.5-137.5T1118 1079H946q-13 114-92 178t-206 64q-139 0-217.5-64T352 1079q0-95 63.5-154T620 831l126-32q210-53 304-149.5t94-259.5q0-128-61.5-222t-173-146T647-30Q423-30 286.5 80.5T139 382"/><path id="g37" d="M448 1372h168v-291h440V943H618V322q0-90 60.5-138T854 136q57 0 111.5 1.5t87.5 5.5V5q-32-3-95.5-6.5T842-5Q708-5 620.5 30t-130 107T448 320v623H159v138h289Z"/><path id="g38" d="M1077 1083V0H914v191h-14Q857 90 766.5 35T553-20Q376-20 282.5 82.5T189 380v703h170V421q0-149 61-221t188-72q135 0 217 87t82 229v639Z"/><path id="g39" d="M1219 1083 986 0H823L639 856h-12L443 0H280L47 1083h166l147-880h18l175 879h160l175-879h18l147 880Z"/><path id="g40" d="M329-385q-18 0-40 1t-33 2v141q9-2 28.5-2.5t31.5-.5q76 0 122.5 39.5T519-68l19 61-399 1090h185l304-913h13l303 913h181L716-43q-47-132-98.5-206.5T498-354.5 329-385"/><path id="g41" d="M701 1101q126 0 219-56.5T1064.5 885t51.5-242V440q0-138-51.5-241.5T920 38.5 701-18q-117 0-200.5 47.5T382 166h-19v-532H190v1449h168V920h18q42 89 125.5 135t199.5 46m-49-147q-134 0-213.5-91.5T359 617V463q0-154 79.5-245.5T652 126t213.5 92T945 463v154q0 154-79.5 245.5T652 954"/><path id="g42" d="M633-5q-49 0-90.5 24.5t-66 65.5-24.5 91 24.5 91 66 65.5T633 357q50 0 91-24.5t65.5-65.5 24.5-91-24.5-91T724 19.5 633-5m0 769q-49 0-90.5 24.5t-66 66T452 945q0 50 24.5 91t66 65.5T633 1126q50 0 91-24.5t65.5-65.5 24.5-91q0-49-24.5-90.5t-65.5-66-91-24.5"/><path id="g43" d="M802 0v308H144v135l490 1000h180L331 465v-12h473v417h160V456h220V308H963V0Z"/><path id="g44" d="M173 1040q0 126 58 224t160 153.5 233 55.5q133 0 233.5-51t157-142 56.5-210q0-75-27-146t-91.5-159.5T773 550L433 169v-17h661V0H181v114l488 551q92 103 141 170t67.5 119 18.5 109q0 120-75 191.5T619 1326q-125 0-200.5-78.5T343 1040v-6H173Z"/><path id="g45" d="M364-129H198l703 1701h167Z"/><path id="g46" d="M598 0v1251h-16L169 982v180l430 281h173V0Zm580 0H172v147h1006Z"/><path id="g47" d="M634 115q153 0 232 154t79 452-79 452-232 154-232.5-154T322 721t79.5-452T634 115M272 317v187l729 622V946ZM634-33q-235 0-361 195T147 721q0 365 126 559.5T634 1475t361-194.5T1121 721q0-364-126-559T634-33"/><path id="g48" d="M711-483H555v2055h156Z"/><path id="g49" d="M542-331H381l124 647h225Z"/><path id="g50" d="M457 673v141h157q121 0 198 73.5t77 188.5q0 113-74.5 181.5T618 1326t-197.5-68-86.5-187H165q13 187 136.5 294.5T625 1473q130 0 229.5-48t156-132 56.5-193q0-130-65-219T821 763v-15q144-20 225-115.5t81-243.5q0-122-63.5-216.5T888.5 24 633-30q-142 0-251.5 51T208 164t-71 216h167q12-119 100.5-189.5T628 120q149 0 235 73t86 199q0 129-88.5 205T622 673Z"/><path id="g51" d="M143 1083h182l303-910h13l301 910h181L727 0H540Z"/></defs><g transform="translate(16 28.57)" fill="rgb(139,143,163)" role="img" aria-label="$ sk search error-handling"><title>$ sk search error-handling</title><g transform="scale(.00635 -.00635)"><use href="#g1" x="0" y="0"/><use href="#g2" x="2532.17" y="0"/><use href="#g3" x="3798.25" y="0"/><use href="#g2" x="6330.41" y="0"/><use href="#g4" x="7596.5" y="0"/><use href="#g5" x="8862.58" y="0"/><use href="#g6" x="10128.66" y="0"/><use href="#g7" x="11394.75" y="0"/><use href="#g8" x="12660.83" y="0"/><use href="#g4" x="15192.99" y="0"/><use href="#g6" x="16459.08" y="0"/><use href="#g6" x="17725.16" y="0"/><use href="#g9" x="18991.24" y="0"/><use href="#g6" x="20257.33" y="0"/><use href="#g10" x="21523.41" y="0"/><use href="#g8" x="22789.49" y="0"/><use href="#g5" x="24055.57" y="0"/><use href="#g11" x="25321.66" y="0"/><use href="#g12" x="26587.74" y="0"/><use href="#g13" x="27853.82" y="0"/><use href="#g14" x="29119.91" y="0"/><use href="#g11" x="30385.99" y="0"/><use href="#g15" x="31652.07" y="0"/></g></g><g transform="translate(16 72.57)" fill="rgb(88,166,255)" role="img" aria-label=" @community/error-handling-patterns"><title> @community/error-handling-patterns</title><g transform="scale(.00635 -.00635)"><use href="#g16" x="1302.22" y="0"/><use href="#g17" x="2604.45" y="0"/><use href="#g18" x="3906.67" y="0"/><use href="#g19" x="5208.9" y="0"/><use href="#g19" x="6511.12" y="0"/><use href="#g20" x="7813.35" y="0"/><use href="#g21" x="9115.57" y="0"/><use href="#g22" x="10417.79" y="0"/><use href="#g23" x="11720.02" y="0"/><use href="#g24" x="13022.24" y="0"/><use href="#g25" x="14324.47" y="0"/><use href="#g26" x="15626.69" y="0"/><use href="#g27" x="16928.91" y="0"/><use href="#g27" x="18231.14" y="0"/><use href="#g18" x="19533.36" y="0"/><use href="#g27" x="20835.59" y="0"/><use href="#g28" x="22137.81" y="0"/><use href="#g29" x="23440.04" y="0"/><use href="#g30" x="24742.26" y="0"/><use href="#g21" x="26044.48" y="0"/><use href="#g31" x="27346.71" y="0"/><use href="#g32" x="28648.93" y="0"/><use href="#g22" x="29951.16" y="0"/><use href="#g21" x="31253.38" y="0"/><use href="#g33" x="32555.6" y="0"/><use href="#g28" x="33857.83" y="0"/><use href="#g34" x="35160.05" y="0"/><use href="#g30" x="36462.28" y="0"/><use href="#g23" x="37764.5" y="0"/><use href="#g23" x="39066.73" y="0"/><use href="#g26" x="40368.95" y="0"/><use href="#g27" x="41671.17" y="0"/><use href="#g21" x="42973.4" y="0"/><use href="#g35" x="44275.62" y="0"/></g></g><g transform="translate(16 94.57)" fill="rgb(139,143,163)" role="img" aria-label=" Structured error handling with typed errors"><title> Structured error handling with typed errors</title><g transform="scale(.00635 -.00635)"><use href="#g36" x="1294.83" y="0"/><use href="#g37" x="2589.65" y="0"/><use href="#g6" x="3884.48" y="0"/><use href="#g38" x="5179.3" y="0"/><use href="#g7" x="6474.13" y="0"/><use href="#g37" x="7768.95" y="0"/><use href="#g38" x="9063.78" y="0"/><use href="#g6" x="10358.6" y="0"/><use href="#g4" x="11653.43" y="0"/><use href="#g12" x="12948.25" y="0"/><use href="#g4" x="15537.9" y="0"/><use href="#g6" x="16832.73" y="0"/><use href="#g6" x="18127.55" y="0"/><use href="#g9" x="19422.38" y="0"/><use href="#g6" x="20717.2" y="0"/><use href="#g8" x="23306.85" y="0"/><use href="#g5" x="24601.68" y="0"/><use href="#g11" x="25896.5" y="0"/><use href="#g12" x="27191.33" y="0"/><use href="#g13" x="28486.15" y="0"/><use href="#g14" x="29780.98" y="0"/><use href="#g11" x="31075.8" y="0"/><use href="#g15" x="32370.63" y="0"/><use href="#g39" x="34960.28" y="0"/><use href="#g14" x="36255.1" y="0"/><use href="#g37" x="37549.93" y="0"/><use href="#g8" x="38844.76" y="0"/><use href="#g37" x="41434.41" y="0"/><use href="#g40" x="42729.23" y="0"/><use href="#g41" x="44024.06" y="0"/><use href="#g4" x="45318.88" y="0"/><use href="#g12" x="46613.71" y="0"/><use href="#g4" x="49203.36" y="0"/><use href="#g6" x="50498.18" y="0"/><use href="#g6" x="51793.01" y="0"/><use href="#g9" x="53087.83" y="0"/><use href="#g6" x="54382.66" y="0"/><use href="#g2" x="55677.48" y="0"/></g></g><g transform="translate(16 116.57)" fill="rgb(110,118,129)" role="img" aria-label=" Score: 42/100 | 1,234 downloads | universal"><title> Score: 42/100 | 1,234 downloads | universal</title><g transform="scale(.00635 -.00635)"><use href="#g36" x="1409.9" y="0"/><use href="#g7" x="2819.8" y="0"/><use href="#g9" x="4229.71" y="0"/><use href="#g6" x="5639.61" y="0"/><use href="#g4" x="7049.51" y="0"/><use href="#g42" x="8459.41" y="0"/><use href="#g43" x="11279.22" y="0"/><use href="#g44" x="12689.12" y="0"/><use href="#g45" x="14099.02" y="0"/><use href="#g46" x="15508.92" y="0"/><use href="#g47" x="16918.83" y="0"/><use href="#g47" x="18328.73" y="0"/><use href="#g48" x="21148.53" y="0"/><use href="#g46" x="23968.34" y="0"/><use href="#g49" x="25378.24" y="0"/><use href="#g44" x="26788.14" y="0"/><use href="#g50" x="28198.04" y="0"/><use href="#g43" x="29607.94" y="0"/><use href="#g12" x="32427.75" y="0"/><use href="#g9" x="33837.65" y="0"/><use href="#g39" x="35247.55" y="0"/><use href="#g11" x="36657.45" y="0"/><use href="#g13" x="38067.36" y="0"/><use href="#g9" x="39477.26" y="0"/><use href="#g5" x="40887.16" y="0"/><use href="#g12" x="42297.06" y="0"/><use href="#g2" x="43706.97" y="0"/><use href="#g48" x="46526.77" y="0"/><use href="#g38" x="49346.57" y="0"/><use href="#g11" x="50756.48" y="0"/><use href="#g14" x="52166.38" y="0"/><use href="#g51" x="53576.28" y="0"/><use href="#g4" x="54986.18" y="0"/><use href="#g6" x="56396.08" y="0"/><use href="#g2" x="57805.99" y="0"/><use href="#g5" x="59215.89" y="0"/><use href="#g13" x="60625.79" y="0"/></g></g><g transform="translate(16 160.57)" fill="rgb(40,200,64)" role="img" aria-label="$ "><title>$ </title><g transform="scale(.00635 -.00635)"><use href="#g0" x="0" y="0"/></g></g></g></g><defs><clipPath id="t1-clip"><rect class="t1-reveal" x="24" y="159" width="0" height="17"/></clipPath></defs><text class="t1-text" x="24" y="172" fill="#e6edf3" font-size="13" font-family="'SF Mono', Menlo, Monaco, monospace" clip-path="url(#t1-clip)">sk install @community/error-handling-patterns</text><g class="f f-2"><defs><clipPath id="f2-ct0"><rect x="16" y="16" width="377.7" height="15"/></clipPath><clipPath id="f2-ct1"><rect x="16" y="60" width="442" height="15"/></clipPath><clipPath id="f2-ct2"><rect x="16" y="82" width="209" height="15"/></clipPath><path id="g0" d="M710-141H578v1725h132ZM86 392h239q12-101 99.5-161.5T647 170q131 0 212 61t81 158q0 82-61.5 132.5T677 604l-164 37q-199 45-296 145t-97 262q0 130 64.5 226.5t182 150T641 1478q150 0 265-52.5t182.5-146.5 72.5-219H927q-12 98-89 156t-195 58q-126 0-200.5-56.5T368 1065q0-80 58.5-128T621 857l155-35q217-49 314-145.5t97-262.5q0-138-67-238.5T929.5 20 637-35q-163 0-284.5 52.5T162 166 86 392"/><path id="g1" d="M708-141H589v1725h119ZM137 380h160q13-123 109-196t243-73q149 0 241 75t92 195q0 103-67.5 165T694 646l-126 30q-204 51-299.5 147.5T173 1075q0 121 59 210.5t165.5 139T648 1474q136 0 239.5-48.5t165-137T1120 1082H962q-14 116-98 183t-216 67q-144 0-227.5-68T337 1080q0-99 63.5-158T614 824l127-32q215-54 309.5-149t94.5-256q0-126-61.5-220T910 21 647-31q-149 0-260.5 50t-176 142.5T137 380"/><path id="g2" d="M238 793q0 140 110 225t289 85q170 0 277-78t122-212H872q-15 73-79 115t-159 42q-103 0-165-45.5T407 802q0-64 45-102.5T599 637l153-34q158-36 232.5-107.5T1059 307q0-148-115.5-237T635-19q-184 0-299 79.5T207 279h173q19-77 87.5-119.5T641 117q111 0 176.5 48T883 292q0 68-44 106.5T692 461l-161 37q-293 67-293 295"/><path id="g3" d="m452 592 473 491h206L680 625l-67-55-174-172V0H269v1510h170V592Zm116-16 126 104L1161 0H959Z"/><path id="g4" d="M645 963q-136 0-213-89.5T355 624h571q0 159-74.5 249T645 963m281-686h165q-16-89-75.5-156t-151-103.5T658-19q-223 0-347 128T187 468v162q0 143 57 249t160.5 165 241.5 59q141 0 241-60t153.5-172 53.5-270V499H355v-42q0-154 82.5-245T658 121q102 0 174 41.5T926 277"/><path id="g5" d="M523-19q-155 0-250 89.5T178 307q0 144 100 226.5T563 625l298 15v98q0 105-60.5 161.5T627 956q-94 0-156.5-39T386 806H219q10 86 65.5 151T429 1058.5t200 36.5q191 0 296-93t105-261V-1H868v165h-17Q812 76 727 28.5T523-19m49 142q82 0 147.5 34T823 249.5 861 381v133l-279-13q-232-11-232-190 0-87 59.5-137.5T572 123"/><path id="g6" d="M590 485V0H424v954H183v129h405V807h22q30 149 128.5 226.5T994 1111q47 0 89-6.5t68-17.5V906q-37 15-85.5 23t-93.5 8q-180 0-281-120.5T590 485M926 0H205v129h721Z"/><path id="g7" d="M1085 750H917q-15 95-89 152t-178 57q-142 0-218-95t-76-272V492q0-177 76-272t218-95q105 0 178.5 56.5T917 332h168q-21-162-137-256.5T653-19q-221 0-344 129T186 470v144q0 232 123 361t344 129q180 0 295.5-95T1085 750"/><path id="g8" d="M188 0v1510h164V891h14q42 101 133 156t215 55q177 0 270.5-102.5T1078 703V0H908v661q0 149-61 221t-189 72q-135 0-217.5-87T358 638V0Z"/><path id="g9" d="M633-19q-144 0-249.5 58.5T220.5 206 163 460v163q0 146 57.5 253.5t163 166.5 249.5 59 249.5-59 163-166.5T1103 623V460q0-146-57.5-254t-163-166.5T633-19m0 978q-139 0-220.5-94.5T331 607V476q0-164 81.5-258T633 124t220.5 94T935 476v131q0 163-81.5 257.5T633 959"/><path id="g10" d="M1162 566H104v148h1058Z"/><path id="g11" d="M189 0v1083h163V892h14q43 101 133.5 156t213.5 55q177 0 270.5-102.5T1077 703V0H907v662q0 149-61 221t-188 72q-135 0-217-87t-82-229V0Z"/><path id="g12" d="M565-18q116 0 199.5 46.5T890 164h19V0h167v1510H903V917h-18q-36 89-119.5 136.5T565 1101q-126 0-219-56.5T201.5 885 150 643V440q0-137 51.5-240.5T346 39t219-57m50 147q-135 0-214.5 92T321 466v153q0 154 79.5 245.5T615 956q133 0 212.5-91.5T907 619V466q0-154-79.5-245.5T615 129"/><path id="g13" d="M1107 0H208v133h371v1244H211v133h538V133h358Z"/><path id="g14" d="M652 1354q-60 0-100.5 39t-40.5 97q0 57 40.5 96.5T652 1626t100.5-39.5T793 1490q0-58-40.5-97T652 1354M1107 0H208v133h372v817H211v133h537V133h359Z"/><path id="g15" d="M310 471q0-152 80.5-244.5T606 134q134 0 214 92t80 245v148q0 154-80 245.5T606 956q-135 0-215.5-91.5T310 619Zm291-878q-188 0-306 77.5T160-119h168q17-68 92-110t184-42q143 0 219 71.5T899 4v165h-18Q845 85 759 36.5T555-12q-125 0-218.5 57T191 205t-52 241v197q0 139 52 242t146.5 159.5T559 1101q118 0 203-48t120-136h19v166h168V0q0-127-55.5-218t-160-140T601-407"/><path id="g16" d="M682-204q-299 0-443 189T95 565v133q0 396 137 588.5T650 1479q266 0 400-165.5T1184 818V542q0-126-59-194t-170-68H673q-59 0-95 38t-36 100v433q0 63 33.5 100.5T663 989q55 0 88-37.5T784 851V416h136q59 0 84.5 26t25.5 86v256q0 283-92 413t-290 130q-140 0-226-63t-125.5-201T257 701V587q0-227 44.5-368.5t141-207T693-54q68 0 128.5 8T911-25v-144q-35-15-100.5-25T682-204"/><path id="g17" d="M1135 720H861q-13 94-66 140.5T654 907q-109 0-167-82t-58-235v-76q0-153 58-234.5T654 198q88 0 140.5 44.5T861 375h274q-18-194-141-296T655-23q-245 0-376 133.5T148 493v118q0 250 131 383.5T655 1128q216 0 338.5-103.5T1135 720"/><path id="g18" d="M633-23q-156 0-271 59.5T185 206t-62 259v170q0 151 62 260.5t177 169 271 59.5 271-59.5 177-169 62-260.5V465q0-149-62-259T904 36.5 633-23m0 930q-108 0-171.5-76T398 624V477q0-131 63.5-207T633 194t171.5 76T868 477v147q0 131-63.5 207T633 907"/><path id="g19" d="M1192 851V0H955v762q0 63-26.5 98T856 895q-47 0-76-38t-29-102V0H517v763q0 63-26.5 97.5T417 895q-48 0-77-38t-29-102V0H74v1101h244V930h30q18 95 72.5 144.5T556 1124q75 0 125.5-48.5T749 938h30q18 88 72 137t133 49q101 0 154.5-70t53.5-203"/><path id="g20" d="M1127 1101V0H856v185h-17Q799 85 712.5 31T507-23Q327-23 233 82t-94 306v713h280V452q0-124 49.5-183.5T621 209t165 69 62 186v637Z"/><path id="g21" d="M139 0v1101h271V916h17q40 100 126.5 154t205.5 54q180 0 274-105t94-306V0H847v649q0 124-49.5 183.5T645 892t-165-69-62-186V0Z"/><path id="g22" d="M649 1330q-86 0-138 47t-52 123q0 77 52 123.5t138 46.5 138-46.5 52-123.5q0-76-52-123t-138-47M1121 0H165v212h353v677H184v212h605V212h332Z"/><path id="g23" d="M402 1415h274v-324h410V878H682V344q0-64 41.5-99T841 210q61 0 120.5.5T1072 212V2q-55-1-123-2.5T818-2Q668-2 576.5 32.5t-133 111T402 346v532H115v213h287Z"/><path id="g24" d="M306-397q-37 0-69 .5t-38 1.5v218q5-2 27.5-2.5t33.5-.5q84 0 131.5 30.5T458-51l11 43L81 1101h308l241-855h17l241 855h296L806-16q-47-141-111.5-224.5T536-360.5 306-397"/><path id="g25" d="M431-214H151l677 1871h287Z"/><path id="g26" d="M646 918q-105 0-164.5-69T422 658h441q0 122-57.5 191T646 918m222-610h264q-10-97-74.5-172T889 19 656-23q-241 0-374 129T149 469v175q0 145 62.5 253T387 1064.5t264 59.5q147 0 254.5-60T1073 894t60-259V487H422v-59q0-111 64-178t169-67q81 0 140 34.5t73 90.5"/><path id="g27" d="M613 489V0H345v905H116v196h499V819h44q37 163 125.5 237t243.5 74q47 0 87.5-6t69.5-17V819q-37 15-87 23.5t-97 8.5q-196 0-292-90.5T613 489M932 0H137v196h795Z"/><path id="g28" d="M1163 521H103v241h1060Z"/><path id="g29" d="M135 0v1522h273V913h17q39 99 127 153.5t209 54.5q180 0 275.5-106t95.5-305V0H852v646q0 122-51 182.5T647 889q-106 0-169.5-69.5T414 634V0Z"/><path id="g30" d="M482-18q-157 0-252.5 91.5T134 315q0 148 107 233.5T552 648l256 16v89q0 74-46 115.5T632 910q-70 0-119-30.5T447 796H174q10 99 71 172t162.5 113 232.5 40q214 0 329.5-97T1085 748V0H819v148h-24Q754 69 672 25.5T482-18m96 213q68 0 119.5 27.5t81 75.5T808 408v84l-208-13q-191-12-191-146 0-63 45.5-100.5T578 195"/><path id="g31" d="M508-17q121 0 200.5 53T817 188h20V0h289v1522H834V915h-21q-27 99-106.5 152T508 1120q-126 0-216-56T154.5 902 107 647V456q0-149 47.5-255T292 39t216-56m109 231q-105 0-164.5 67T393 465v180q0 117 59.5 184T617 896t164.5-67T841 645V465q0-117-59.5-184T617 214"/><path id="g32" d="M1121 0H165v212h349v1098H184v212h609V212h328Z"/><path id="g33" d="M380 487q0-115 62.5-183T611 236t168 67.5T841 487v158q0 115-62 183t-168 68-168.5-68T380 645Zm222-901q-216 0-348.5 84.5T108-99h273q14-55 74.5-87.5T606-219q118 0 179 55T846-3v213h-21q-25-92-114-148.5T499 5Q372 5 281 61T141.5 223.5 93 478v169q0 149 50 255t143.5 162 225.5 56q120 0 206.5-55.5T831 915h21v186h274V1q0-128-63.5-221t-181-143.5T602-414"/><path id="g34" d="M759 1118q127 0 216.5-56T1113 900.5t48-255.5V454q0-148-48-254.5T975.5 37 759-19q-119 0-198 53T454 186h-20v-553H142v1468h288V913h21q28 100 107.5 152.5T759 1118M651 887q-105 0-164.5-67T427 636V456q0-117 59.5-184T651 205q104 0 164 67.5T875 456v180q0 117-60 184t-164 67"/><path id="g35" d="M184 782q0 159 121 252t327 93q202 0 319-85t126-239H813q-9 56-58.5 88.5T630 924q-76 0-123-33.5T460 803q0-46 35.5-75T610 682l173-36q168-35 245.5-108.5T1106 339q0-166-127.5-264T634-23q-213 0-338 86T160 303h276q13-58 65.5-89.5T638 182q83 0 131.5 33.5T818 305q0 48-35 75t-121 45l-165 36q-313 68-313 321"/><path id="g36" d="M139 382h172q13-121 103-190.5T648 122q145 0 231.5 71.5T966 383q0 97-66 157.5T687 638l-124 31q-201 50-295 148.5T174 1072q0 122 58.5 212T397 1423.5t250 49.5q136 0 240-49t164.5-137.5T1118 1079H946q-13 114-92 178t-206 64q-139 0-217.5-64T352 1079q0-95 63.5-154T620 831l126-32q210-53 304-149.5t94-259.5q0-128-61.5-222t-173-146T647-30Q423-30 286.5 80.5T139 382"/><path id="g37" d="M448 1372h168v-291h440V943H618V322q0-90 60.5-138T854 136q57 0 111.5 1.5t87.5 5.5V5q-32-3-95.5-6.5T842-5Q708-5 620.5 30t-130 107T448 320v623H159v138h289Z"/><path id="g38" d="M1077 1083V0H914v191h-14Q857 90 766.5 35T553-20Q376-20 282.5 82.5T189 380v703h170V421q0-149 61-221t188-72q135 0 217 87t82 229v639Z"/><path id="g39" d="M1219 1083 986 0H823L639 856h-12L443 0H280L47 1083h166l147-880h18l175 879h160l175-879h18l147 880Z"/><path id="g40" d="M329-385q-18 0-40 1t-33 2v141q9-2 28.5-2.5t31.5-.5q76 0 122.5 39.5T519-68l19 61-399 1090h185l304-913h13l303 913h181L716-43q-47-132-98.5-206.5T498-354.5 329-385"/><path id="g41" d="M701 1101q126 0 219-56.5T1064.5 885t51.5-242V440q0-138-51.5-241.5T920 38.5 701-18q-117 0-200.5 47.5T382 166h-19v-532H190v1449h168V920h18q42 89 125.5 135t199.5 46m-49-147q-134 0-213.5-91.5T359 617V463q0-154 79.5-245.5T652 126t213.5 92T945 463v154q0 154-79.5 245.5T652 954"/><path id="g42" d="M633-5q-49 0-90.5 24.5t-66 65.5-24.5 91 24.5 91 66 65.5T633 357q50 0 91-24.5t65.5-65.5 24.5-91-24.5-91T724 19.5 633-5m0 769q-49 0-90.5 24.5t-66 66T452 945q0 50 24.5 91t66 65.5T633 1126q50 0 91-24.5t65.5-65.5 24.5-91q0-49-24.5-90.5t-65.5-66-91-24.5"/><path id="g43" d="M802 0v308H144v135l490 1000h180L331 465v-12h473v417h160V456h220V308H963V0Z"/><path id="g44" d="M173 1040q0 126 58 224t160 153.5 233 55.5q133 0 233.5-51t157-142 56.5-210q0-75-27-146t-91.5-159.5T773 550L433 169v-17h661V0H181v114l488 551q92 103 141 170t67.5 119 18.5 109q0 120-75 191.5T619 1326q-125 0-200.5-78.5T343 1040v-6H173Z"/><path id="g45" d="M364-129H198l703 1701h167Z"/><path id="g46" d="M598 0v1251h-16L169 982v180l430 281h173V0Zm580 0H172v147h1006Z"/><path id="g47" d="M634 115q153 0 232 154t79 452-79 452-232 154-232.5-154T322 721t79.5-452T634 115M272 317v187l729 622V946ZM634-33q-235 0-361 195T147 721q0 365 126 559.5T634 1475t361-194.5T1121 721q0-364-126-559T634-33"/><path id="g48" d="M711-483H555v2055h156Z"/><path id="g49" d="M542-331H381l124 647h225Z"/><path id="g50" d="M457 673v141h157q121 0 198 73.5t77 188.5q0 113-74.5 181.5T618 1326t-197.5-68-86.5-187H165q13 187 136.5 294.5T625 1473q130 0 229.5-48t156-132 56.5-193q0-130-65-219T821 763v-15q144-20 225-115.5t81-243.5q0-122-63.5-216.5T888.5 24 633-30q-142 0-251.5 51T208 164t-71 216h167q12-119 100.5-189.5T628 120q149 0 235 73t86 199q0 129-88.5 205T622 673Z"/><path id="g51" d="M143 1083h182l303-910h13l301 910h181L727 0H540Z"/><path id="g52" d="M663-197Q393-197 253.5-9.5T114 541v193q0 361 136.5 551T648 1475q249 0 384-158t135-452V564q0-120-60-187.5T939 309H684q-56 0-89 32.5T562 428v407q0 55 26.5 87t70.5 32 70-32 26-87V422h164q70 0 98 31t28 108v284q0 252-100.5 382T647 1357q-140 0-230.5-67.5t-134.5-208T238 723V564q0-221 48-363.5T431.5-11 681-80q68 0 132 10.5T908-43v-115q-36-18-103.5-28.5T663-197"/><path id="g53" d="M1156 793V0h-153v748q0 102-35.5 155T864 956q-71 0-112-60.5T711 730V0H559v749q0 102-35.5 154.5T419 956q-72 0-114-60.5T263 730V0H110v1083h152V932h18q20 80 75.5 125.5T487 1103t128-44 69-125h18q21 78 81.5 123.5T926 1103q114 0 172-78.5t58-231.5"/><path id="g54" d="M461 207 0 667l109 110 352-353 696 699 109-109Z"/><path id="g55" d="M1013 0H253v149h292v1145H253v149h760v-149H721V149h292Z"/><path id="g56" d="M633-5q-49 0-90.5 24.5t-66 65.5-24.5 91 24.5 91 66 65.5T633 357q50 0 91-24.5t65.5-65.5 24.5-91-24.5-91T724 19.5 633-5"/><path id="g57" d="m429 221 107-106 593 598-593 599-107-107 222-219 213-202v-3l-249 7H0V639h612l252 6v-3L651 441Z"/><path id="g58" d="M639 899h-12L414 0H248L0 1443h167l87-586 87-604h11l202 860h158l202-860h11l87 604 87 586h167L1018 0H852Z"/><path id="g59" d="M666 128q144 0 230 81.5T985 432h178q0-136-62.5-240.5t-175-163T666-30q-254 0-395 164T130 595v253q0 297 141 461t395 164q228 0 360.5-130T1164 985H985q-4 148-93 239t-227 91q-174 0-264.5-119T310 848V595q0-229 90.5-348T666 128"/><path id="g60" d="M1122 155V0H263v1443h175V155Z"/><path id="g61" d="M628 1239 253 0H74l465 1443h188L1192 0h-186L633 1239Zm264-675 30-144H349l32 144Z"/><path id="g62" d="M633 128q158 0 245 100.5T965 511v932h176V500q0-249-134.5-389.5T633-30 259.5 110.5 125 500v943h176V511q0-182 87-282.5T633 128"/><path id="g63" d="M160 1443h404q307 0 461-180t154-539q0-362-153.5-543T564 0H160Zm177-154V154h211q229 0 340 139t111 429q0 288-111 427.5T548 1289Z"/><path id="g64" d="M1082 154V0H230v1443h852v-154H407V810h638V663H407V154Z"/></defs><g transform="translate(16 28.57)" fill="rgb(139,143,163)" role="img" aria-label="$ sk install @community/error-handling-patterns"><title>$ sk install @community/error-handling-patterns</title><g transform="scale(.00635 -.00635)"><use href="#g1" x="0" y="0"/><use href="#g2" x="2532.03" y="0"/><use href="#g3" x="3798.05" y="0"/><use href="#g14" x="6330.08" y="0"/><use href="#g11" x="7596.1" y="0"/><use href="#g2" x="8862.11" y="0"/><use href="#g37" x="10128.13" y="0"/><use href="#g5" x="11394.15" y="0"/><use href="#g13" x="12660.16" y="0"/><use href="#g13" x="13926.18" y="0"/><use href="#g52" x="16458.21" y="0"/><use href="#g7" x="17724.23" y="0"/><use href="#g9" x="18990.25" y="0"/><use href="#g53" x="20256.26" y="0"/><use href="#g53" x="21522.28" y="0"/><use href="#g38" x="22788.29" y="0"/><use href="#g11" x="24054.31" y="0"/><use href="#g14" x="25320.33" y="0"/><use href="#g37" x="26586.34" y="0"/><use href="#g40" x="27852.36" y="0"/><use href="#g45" x="29118.38" y="0"/><use href="#g4" x="30384.39" y="0"/><use href="#g6" x="31650.41" y="0"/><use href="#g6" x="32916.43" y="0"/><use href="#g9" x="34182.44" y="0"/><use href="#g6" x="35448.46" y="0"/><use href="#g10" x="36714.47" y="0"/><use href="#g8" x="37980.49" y="0"/><use href="#g5" x="39246.51" y="0"/><use href="#g11" x="40512.52" y="0"/><use href="#g12" x="41778.54" y="0"/><use href="#g13" x="43044.56" y="0"/><use href="#g14" x="44310.57" y="0"/><use href="#g11" x="45576.59" y="0"/><use href="#g15" x="46842.61" y="0"/><use href="#g10" x="48108.62" y="0"/><use href="#g41" x="49374.64" y="0"/><use href="#g5" x="50640.65" y="0"/><use href="#g37" x="51906.67" y="0"/><use href="#g37" x="53172.69" y="0"/><use href="#g4" x="54438.7" y="0"/><use href="#g6" x="55704.72" y="0"/><use href="#g11" x="56970.74" y="0"/><use href="#g2" x="58236.75" y="0"/></g></g><g transform="translate(16 72.57)" fill="rgb(40,200,64)" role="img" aria-label=" ✓ Installed @community/error-handling-patterns v1.0.0"><title> ✓ Installed @community/error-handling-patterns v1.0.0</title><g transform="scale(.00635 -.00635)"><use href="#g54" x="1289.48" y="0"/><use href="#g55" x="3868.44" y="0"/><use href="#g11" x="5157.93" y="0"/><use href="#g2" x="6447.41" y="0"/><use href="#g37" x="7736.89" y="0"/><use href="#g5" x="9026.37" y="0"/><use href="#g13" x="10315.85" y="0"/><use href="#g13" x="11605.33" y="0"/><use href="#g4" x="12894.81" y="0"/><use href="#g12" x="14184.3" y="0"/><use href="#g52" x="16763.26" y="0"/><use href="#g7" x="18052.74" y="0"/><use href="#g9" x="19342.22" y="0"/><use href="#g53" x="20631.7" y="0"/><use href="#g53" x="21921.19" y="0"/><use href="#g38" x="23210.67" y="0"/><use href="#g11" x="24500.15" y="0"/><use href="#g14" x="25789.63" y="0"/><use href="#g37" x="27079.11" y="0"/><use href="#g40" x="28368.59" y="0"/><use href="#g45" x="29658.07" y="0"/><use href="#g4" x="30947.56" y="0"/><use href="#g6" x="32237.04" y="0"/><use href="#g6" x="33526.52" y="0"/><use href="#g9" x="34816" y="0"/><use href="#g6" x="36105.48" y="0"/><use href="#g10" x="37394.96" y="0"/><use href="#g8" x="38684.44" y="0"/><use href="#g5" x="39973.93" y="0"/><use href="#g11" x="41263.41" y="0"/><use href="#g12" x="42552.89" y="0"/><use href="#g13" x="43842.37" y="0"/><use href="#g14" x="45131.85" y="0"/><use href="#g11" x="46421.33" y="0"/><use href="#g15" x="47710.81" y="0"/><use href="#g10" x="49000.3" y="0"/><use href="#g41" x="50289.78" y="0"/><use href="#g5" x="51579.26" y="0"/><use href="#g37" x="52868.74" y="0"/><use href="#g37" x="54158.22" y="0"/><use href="#g4" x="55447.7" y="0"/><use href="#g6" x="56737.19" y="0"/><use href="#g11" x="58026.67" y="0"/><use href="#g2" x="59316.15" y="0"/><use href="#g51" x="61895.11" y="0"/><use href="#g46" x="63184.59" y="0"/><use href="#g56" x="64474.07" y="0"/><use href="#g47" x="65763.56" y="0"/><use href="#g56" x="67053.04" y="0"/><use href="#g47" x="68342.52" y="0"/></g></g><g transform="translate(16 94.57)" fill="rgb(139,143,163)" role="img" aria-label=" → Written to CLAUDE.md"><title> → Written to CLAUDE.md</title><g transform="scale(.00635 -.00635)"><use href="#g57" x="1431.22" y="0"/><use href="#g58" x="4293.67" y="0"/><use href="#g6" x="5724.9" y="0"/><use href="#g14" x="7156.12" y="0"/><use href="#g37" x="8587.34" y="0"/><use href="#g37" x="10018.57" y="0"/><use href="#g4" x="11449.79" y="0"/><use href="#g11" x="12881.02" y="0"/><use href="#g37" x="15743.46" y="0"/><use href="#g9" x="17174.69" y="0"/><use href="#g59" x="20037.14" y="0"/><use href="#g60" x="21468.36" y="0"/><use href="#g61" x="22899.59" y="0"/><use href="#g62" x="24330.81" y="0"/><use href="#g63" x="25762.03" y="0"/><use href="#g64" x="27193.26" y="0"/><use href="#g56" x="28624.48" y="0"/><use href="#g53" x="30055.71" y="0"/><use href="#g12" x="31486.93" y="0"/></g></g></g><g class="f f-3"><defs><clipPath id="f3-ct0"><rect x="16" y="16" width="417.9" height="15"/></clipPath><clipPath id="f3-ct1"><rect x="16" y="60" width="152.7" height="15"/></clipPath><clipPath id="f3-ct2"><rect x="16" y="104" width="369.7" height="15"/></clipPath><clipPath id="f3-ct3"><rect x="16" y="126" width="345.6" height="15"/></clipPath><clipPath id="f3-ct4"><rect x="16" y="148" width="337.5" height="15"/></clipPath><path id="g0" d="M710-141H578v1725h132ZM86 392h239q12-101 99.5-161.5T647 170q131 0 212 61t81 158q0 82-61.5 132.5T677 604l-164 37q-199 45-296 145t-97 262q0 130 64.5 226.5t182 150T641 1478q150 0 265-52.5t182.5-146.5 72.5-219H927q-12 98-89 156t-195 58q-126 0-200.5-56.5T368 1065q0-80 58.5-128T621 857l155-35q217-49 314-145.5t97-262.5q0-138-67-238.5T929.5 20 637-35q-163 0-284.5 52.5T162 166 86 392"/><path id="g1" d="M708-141H589v1725h119ZM137 380h160q13-123 109-196t243-73q149 0 241 75t92 195q0 103-67.5 165T694 646l-126 30q-204 51-299.5 147.5T173 1075q0 121 59 210.5t165.5 139T648 1474q136 0 239.5-48.5t165-137T1120 1082H962q-14 116-98 183t-216 67q-144 0-227.5-68T337 1080q0-99 63.5-158T614 824l127-32q215-54 309.5-149t94.5-256q0-126-61.5-220T910 21 647-31q-149 0-260.5 50t-176 142.5T137 380"/><path id="g2" d="M238 793q0 140 110 225t289 85q170 0 277-78t122-212H872q-15 73-79 115t-159 42q-103 0-165-45.5T407 802q0-64 45-102.5T599 637l153-34q158-36 232.5-107.5T1059 307q0-148-115.5-237T635-19q-184 0-299 79.5T207 279h173q19-77 87.5-119.5T641 117q111 0 176.5 48T883 292q0 68-44 106.5T692 461l-161 37q-293 67-293 295"/><path id="g3" d="m452 592 473 491h206L680 625l-67-55-174-172V0H269v1510h170V592Zm116-16 126 104L1161 0H959Z"/><path id="g4" d="M645 963q-136 0-213-89.5T355 624h571q0 159-74.5 249T645 963m281-686h165q-16-89-75.5-156t-151-103.5T658-19q-223 0-347 128T187 468v162q0 143 57 249t160.5 165 241.5 59q141 0 241-60t153.5-172 53.5-270V499H355v-42q0-154 82.5-245T658 121q102 0 174 41.5T926 277"/><path id="g5" d="M523-19q-155 0-250 89.5T178 307q0 144 100 226.5T563 625l298 15v98q0 105-60.5 161.5T627 956q-94 0-156.5-39T386 806H219q10 86 65.5 151T429 1058.5t200 36.5q191 0 296-93t105-261V-1H868v165h-17Q812 76 727 28.5T523-19m49 142q82 0 147.5 34T823 249.5 861 381v133l-279-13q-232-11-232-190 0-87 59.5-137.5T572 123"/><path id="g6" d="M590 485V0H424v954H183v129h405V807h22q30 149 128.5 226.5T994 1111q47 0 89-6.5t68-17.5V906q-37 15-85.5 23t-93.5 8q-180 0-281-120.5T590 485M926 0H205v129h721Z"/><path id="g7" d="M1085 750H917q-15 95-89 152t-178 57q-142 0-218-95t-76-272V492q0-177 76-272t218-95q105 0 178.5 56.5T917 332h168q-21-162-137-256.5T653-19q-221 0-344 129T186 470v144q0 232 123 361t344 129q180 0 295.5-95T1085 750"/><path id="g8" d="M188 0v1510h164V891h14q42 101 133 156t215 55q177 0 270.5-102.5T1078 703V0H908v661q0 149-61 221t-189 72q-135 0-217.5-87T358 638V0Z"/><path id="g9" d="M633-19q-144 0-249.5 58.5T220.5 206 163 460v163q0 146 57.5 253.5t163 166.5 249.5 59 249.5-59 163-166.5T1103 623V460q0-146-57.5-254t-163-166.5T633-19m0 978q-139 0-220.5-94.5T331 607V476q0-164 81.5-258T633 124t220.5 94T935 476v131q0 163-81.5 257.5T633 959"/><path id="g10" d="M1162 566H104v148h1058Z"/><path id="g11" d="M189 0v1083h163V892h14q43 101 133.5 156t213.5 55q177 0 270.5-102.5T1077 703V0H907v662q0 149-61 221t-188 72q-135 0-217-87t-82-229V0Z"/><path id="g12" d="M565-18q116 0 199.5 46.5T890 164h19V0h167v1510H903V917h-18q-36 89-119.5 136.5T565 1101q-126 0-219-56.5T201.5 885 150 643V440q0-137 51.5-240.5T346 39t219-57m50 147q-135 0-214.5 92T321 466v153q0 154 79.5 245.5T615 956q133 0 212.5-91.5T907 619V466q0-154-79.5-245.5T615 129"/><path id="g13" d="M1107 0H208v133h371v1244H211v133h538V133h358Z"/><path id="g14" d="M652 1354q-60 0-100.5 39t-40.5 97q0 57 40.5 96.5T652 1626t100.5-39.5T793 1490q0-58-40.5-97T652 1354M1107 0H208v133h372v817H211v133h537V133h359Z"/><path id="g15" d="M310 471q0-152 80.5-244.5T606 134q134 0 214 92t80 245v148q0 154-80 245.5T606 956q-135 0-215.5-91.5T310 619Zm291-878q-188 0-306 77.5T160-119h168q17-68 92-110t184-42q143 0 219 71.5T899 4v165h-18Q845 85 759 36.5T555-12q-125 0-218.5 57T191 205t-52 241v197q0 139 52 242t146.5 159.5T559 1101q118 0 203-48t120-136h19v166h168V0q0-127-55.5-218t-160-140T601-407"/><path id="g16" d="M682-204q-299 0-443 189T95 565v133q0 396 137 588.5T650 1479q266 0 400-165.5T1184 818V542q0-126-59-194t-170-68H673q-59 0-95 38t-36 100v433q0 63 33.5 100.5T663 989q55 0 88-37.5T784 851V416h136q59 0 84.5 26t25.5 86v256q0 283-92 413t-290 130q-140 0-226-63t-125.5-201T257 701V587q0-227 44.5-368.5t141-207T693-54q68 0 128.5 8T911-25v-144q-35-15-100.5-25T682-204"/><path id="g17" d="M1135 720H861q-13 94-66 140.5T654 907q-109 0-167-82t-58-235v-76q0-153 58-234.5T654 198q88 0 140.5 44.5T861 375h274q-18-194-141-296T655-23q-245 0-376 133.5T148 493v118q0 250 131 383.5T655 1128q216 0 338.5-103.5T1135 720"/><path id="g18" d="M633-23q-156 0-271 59.5T185 206t-62 259v170q0 151 62 260.5t177 169 271 59.5 271-59.5 177-169 62-260.5V465q0-149-62-259T904 36.5 633-23m0 930q-108 0-171.5-76T398 624V477q0-131 63.5-207T633 194t171.5 76T868 477v147q0 131-63.5 207T633 907"/><path id="g19" d="M1192 851V0H955v762q0 63-26.5 98T856 895q-47 0-76-38t-29-102V0H517v763q0 63-26.5 97.5T417 895q-48 0-77-38t-29-102V0H74v1101h244V930h30q18 95 72.5 144.5T556 1124q75 0 125.5-48.5T749 938h30q18 88 72 137t133 49q101 0 154.5-70t53.5-203"/><path id="g20" d="M1127 1101V0H856v185h-17Q799 85 712.5 31T507-23Q327-23 233 82t-94 306v713h280V452q0-124 49.5-183.5T621 209t165 69 62 186v637Z"/><path id="g21" d="M139 0v1101h271V916h17q40 100 126.5 154t205.5 54q180 0 274-105t94-306V0H847v649q0 124-49.5 183.5T645 892t-165-69-62-186V0Z"/><path id="g22" d="M649 1330q-86 0-138 47t-52 123q0 77 52 123.5t138 46.5 138-46.5 52-123.5q0-76-52-123t-138-47M1121 0H165v212h353v677H184v212h605V212h332Z"/><path id="g23" d="M402 1415h274v-324h410V878H682V344q0-64 41.5-99T841 210q61 0 120.5.5T1072 212V2q-55-1-123-2.5T818-2Q668-2 576.5 32.5t-133 111T402 346v532H115v213h287Z"/><path id="g24" d="M306-397q-37 0-69 .5t-38 1.5v218q5-2 27.5-2.5t33.5-.5q84 0 131.5 30.5T458-51l11 43L81 1101h308l241-855h17l241 855h296L806-16q-47-141-111.5-224.5T536-360.5 306-397"/><path id="g25" d="M431-214H151l677 1871h287Z"/><path id="g26" d="M646 918q-105 0-164.5-69T422 658h441q0 122-57.5 191T646 918m222-610h264q-10-97-74.5-172T889 19 656-23q-241 0-374 129T149 469v175q0 145 62.5 253T387 1064.5t264 59.5q147 0 254.5-60T1073 894t60-259V487H422v-59q0-111 64-178t169-67q81 0 140 34.5t73 90.5"/><path id="g27" d="M613 489V0H345v905H116v196h499V819h44q37 163 125.5 237t243.5 74q47 0 87.5-6t69.5-17V819q-37 15-87 23.5t-97 8.5q-196 0-292-90.5T613 489M932 0H137v196h795Z"/><path id="g28" d="M1163 521H103v241h1060Z"/><path id="g29" d="M135 0v1522h273V913h17q39 99 127 153.5t209 54.5q180 0 275.5-106t95.5-305V0H852v646q0 122-51 182.5T647 889q-106 0-169.5-69.5T414 634V0Z"/><path id="g30" d="M482-18q-157 0-252.5 91.5T134 315q0 148 107 233.5T552 648l256 16v89q0 74-46 115.5T632 910q-70 0-119-30.5T447 796H174q10 99 71 172t162.5 113 232.5 40q214 0 329.5-97T1085 748V0H819v148h-24Q754 69 672 25.5T482-18m96 213q68 0 119.5 27.5t81 75.5T808 408v84l-208-13q-191-12-191-146 0-63 45.5-100.5T578 195"/><path id="g31" d="M508-17q121 0 200.5 53T817 188h20V0h289v1522H834V915h-21q-27 99-106.5 152T508 1120q-126 0-216-56T154.5 902 107 647V456q0-149 47.5-255T292 39t216-56m109 231q-105 0-164.5 67T393 465v180q0 117 59.5 184T617 896t164.5-67T841 645V465q0-117-59.5-184T617 214"/><path id="g32" d="M1121 0H165v212h349v1098H184v212h609V212h328Z"/><path id="g33" d="M380 487q0-115 62.5-183T611 236t168 67.5T841 487v158q0 115-62 183t-168 68-168.5-68T380 645Zm222-901q-216 0-348.5 84.5T108-99h273q14-55 74.5-87.5T606-219q118 0 179 55T846-3v213h-21q-25-92-114-148.5T499 5Q372 5 281 61T141.5 223.5 93 478v169q0 149 50 255t143.5 162 225.5 56q120 0 206.5-55.5T831 915h21v186h274V1q0-128-63.5-221t-181-143.5T602-414"/><path id="g34" d="M759 1118q127 0 216.5-56T1113 900.5t48-255.5V454q0-148-48-254.5T975.5 37 759-19q-119 0-198 53T454 186h-20v-553H142v1468h288V913h21q28 100 107.5 152.5T759 1118M651 887q-105 0-164.5-67T427 636V456q0-117 59.5-184T651 205q104 0 164 67.5T875 456v180q0 117-60 184t-164 67"/><path id="g35" d="M184 782q0 159 121 252t327 93q202 0 319-85t126-239H813q-9 56-58.5 88.5T630 924q-76 0-123-33.5T460 803q0-46 35.5-75T610 682l173-36q168-35 245.5-108.5T1106 339q0-166-127.5-264T634-23q-213 0-338 86T160 303h276q13-58 65.5-89.5T638 182q83 0 131.5 33.5T818 305q0 48-35 75t-121 45l-165 36q-313 68-313 321"/><path id="g36" d="M139 382h172q13-121 103-190.5T648 122q145 0 231.5 71.5T966 383q0 97-66 157.5T687 638l-124 31q-201 50-295 148.5T174 1072q0 122 58.5 212T397 1423.5t250 49.5q136 0 240-49t164.5-137.5T1118 1079H946q-13 114-92 178t-206 64q-139 0-217.5-64T352 1079q0-95 63.5-154T620 831l126-32q210-53 304-149.5t94-259.5q0-128-61.5-222t-173-146T647-30Q423-30 286.5 80.5T139 382"/><path id="g37" d="M448 1372h168v-291h440V943H618V322q0-90 60.5-138T854 136q57 0 111.5 1.5t87.5 5.5V5q-32-3-95.5-6.5T842-5Q708-5 620.5 30t-130 107T448 320v623H159v138h289Z"/><path id="g38" d="M1077 1083V0H914v191h-14Q857 90 766.5 35T553-20Q376-20 282.5 82.5T189 380v703h170V421q0-149 61-221t188-72q135 0 217 87t82 229v639Z"/><path id="g39" d="M1219 1083 986 0H823L639 856h-12L443 0H280L47 1083h166l147-880h18l175 879h160l175-879h18l147 880Z"/><path id="g40" d="M329-385q-18 0-40 1t-33 2v141q9-2 28.5-2.5t31.5-.5q76 0 122.5 39.5T519-68l19 61-399 1090h185l304-913h13l303 913h181L716-43q-47-132-98.5-206.5T498-354.5 329-385"/><path id="g41" d="M701 1101q126 0 219-56.5T1064.5 885t51.5-242V440q0-138-51.5-241.5T920 38.5 701-18q-117 0-200.5 47.5T382 166h-19v-532H190v1449h168V920h18q42 89 125.5 135t199.5 46m-49-147q-134 0-213.5-91.5T359 617V463q0-154 79.5-245.5T652 126t213.5 92T945 463v154q0 154-79.5 245.5T652 954"/><path id="g42" d="M633-5q-49 0-90.5 24.5t-66 65.5-24.5 91 24.5 91 66 65.5T633 357q50 0 91-24.5t65.5-65.5 24.5-91-24.5-91T724 19.5 633-5m0 769q-49 0-90.5 24.5t-66 66T452 945q0 50 24.5 91t66 65.5T633 1126q50 0 91-24.5t65.5-65.5 24.5-91q0-49-24.5-90.5t-65.5-66-91-24.5"/><path id="g43" d="M802 0v308H144v135l490 1000h180L331 465v-12h473v417h160V456h220V308H963V0Z"/><path id="g44" d="M173 1040q0 126 58 224t160 153.5 233 55.5q133 0 233.5-51t157-142 56.5-210q0-75-27-146t-91.5-159.5T773 550L433 169v-17h661V0H181v114l488 551q92 103 141 170t67.5 119 18.5 109q0 120-75 191.5T619 1326q-125 0-200.5-78.5T343 1040v-6H173Z"/><path id="g45" d="M364-129H198l703 1701h167Z"/><path id="g46" d="M598 0v1251h-16L169 982v180l430 281h173V0Zm580 0H172v147h1006Z"/><path id="g47" d="M634 115q153 0 232 154t79 452-79 452-232 154-232.5-154T322 721t79.5-452T634 115M272 317v187l729 622V946ZM634-33q-235 0-361 195T147 721q0 365 126 559.5T634 1475t361-194.5T1121 721q0-364-126-559T634-33"/><path id="g48" d="M711-483H555v2055h156Z"/><path id="g49" d="M542-331H381l124 647h225Z"/><path id="g50" d="M457 673v141h157q121 0 198 73.5t77 188.5q0 113-74.5 181.5T618 1326t-197.5-68-86.5-187H165q13 187 136.5 294.5T625 1473q130 0 229.5-48t156-132 56.5-193q0-130-65-219T821 763v-15q144-20 225-115.5t81-243.5q0-122-63.5-216.5T888.5 24 633-30q-142 0-251.5 51T208 164t-71 216h167q12-119 100.5-189.5T628 120q149 0 235 73t86 199q0 129-88.5 205T622 673Z"/><path id="g51" d="M143 1083h182l303-910h13l301 910h181L727 0H540Z"/><path id="g52" d="M663-197Q393-197 253.5-9.5T114 541v193q0 361 136.5 551T648 1475q249 0 384-158t135-452V564q0-120-60-187.5T939 309H684q-56 0-89 32.5T562 428v407q0 55 26.5 87t70.5 32 70-32 26-87V422h164q70 0 98 31t28 108v284q0 252-100.5 382T647 1357q-140 0-230.5-67.5t-134.5-208T238 723V564q0-221 48-363.5T431.5-11 681-80q68 0 132 10.5T908-43v-115q-36-18-103.5-28.5T663-197"/><path id="g53" d="M1156 793V0h-153v748q0 102-35.5 155T864 956q-71 0-112-60.5T711 730V0H559v749q0 102-35.5 154.5T419 956q-72 0-114-60.5T263 730V0H110v1083h152V932h18q20 80 75.5 125.5T487 1103t128-44 69-125h18q21 78 81.5 123.5T926 1103q114 0 172-78.5t58-231.5"/><path id="g54" d="M461 207 0 667l109 110 352-353 696 699 109-109Z"/><path id="g55" d="M1013 0H253v149h292v1145H253v149h760v-149H721V149h292Z"/><path id="g56" d="M633-5q-49 0-90.5 24.5t-66 65.5-24.5 91 24.5 91 66 65.5T633 357q50 0 91-24.5t65.5-65.5 24.5-91-24.5-91T724 19.5 633-5"/><path id="g57" d="m429 221 107-106 593 598-593 599-107-107 222-219 213-202v-3l-249 7H0V639h612l252 6v-3L651 441Z"/><path id="g58" d="M639 899h-12L414 0H248L0 1443h167l87-586 87-604h11l202 860h158l202-860h11l87 604 87 586h167L1018 0H852Z"/><path id="g59" d="M666 128q144 0 230 81.5T985 432h178q0-136-62.5-240.5t-175-163T666-30q-254 0-395 164T130 595v253q0 297 141 461t395 164q228 0 360.5-130T1164 985H985q-4 148-93 239t-227 91q-174 0-264.5-119T310 848V595q0-229 90.5-348T666 128"/><path id="g60" d="M1122 155V0H263v1443h175V155Z"/><path id="g61" d="M628 1239 253 0H74l465 1443h188L1192 0h-186L633 1239Zm264-675 30-144H349l32 144Z"/><path id="g62" d="M633 128q158 0 245 100.5T965 511v932h176V500q0-249-134.5-389.5T633-30 259.5 110.5 125 500v943h176V511q0-182 87-282.5T633 128"/><path id="g63" d="M160 1443h404q307 0 461-180t154-539q0-362-153.5-543T564 0H160Zm177-154V154h211q229 0 340 139t111 429q0 288-111 427.5T548 1289Z"/><path id="g64" d="M1082 154V0H230v1443h852v-154H407V810h638V663H407V154Z"/><path id="g65" d="M-154 483v154h1574V483Z"/><path id="g66" d="M1196 857H991l-50-251h203l-41-224H899L824 0H600l73 382H454L380 0H155l75 382H31l42 224h200l49 251H123l43 221h199l71 366h224l-71-366h219l72 366h225l-71-366h203Zm-662 18-55-290h248l57 290Z"/><path id="g67" d="M1109 239V0H196v1443h913v-239H487V840h585V619H487V239Z"/><path id="g68" d="M1150 0H865v613H401V0H116v1443h285V852h464v591h285Z"/><path id="g69" d="M637 423h-13L350 0H162l372 543-375 540h201l270-415h14l269 415h191L733 550 1107 0H910Z"/><path id="g70" d="M312 0H153v1443h169L940 303h14v1140h159V0H946L326 1142h-14Z"/><path id="g71" d="M356 1294V722h286q150 0 230.5 74t80.5 211-79 212-224 75Zm332-715H356V0H182v1443h484q214 0 339.5-116t125.5-315q0-142-73-250T862 614L1156 0H957Z"/><path id="g72" d="M1063 1038 375 648v-17l688-390V62L203 571v138l860 508Z"/><path id="g73" d="M721 0H545v1289H109v154h1048v-154H721Z"/><path id="g74" d="m203 1038 688-390v-17L203 241V62l860 509v138l-860 508Z"/><path id="g75" d="M473 0v943H182v138h291v113q0 103 43.5 170.5T648 1465t222 33q62 0 135.5-3.5t114.5-8.5v-132q-50 4-119 7t-129 3q-231 0-231-169v-114h479V943H643V0Z"/></defs><g transform="translate(16 28.57)" fill="rgb(48,54,61)" role="img" aria-label=" ── CLAUDE.md ─────────────────────────────────────"><title> ── CLAUDE.md ─────────────────────────────────────</title><g transform="scale(.00635 -.00635)"><use href="#g65" x="1290.86" y="0"/><use href="#g65" x="2581.72" y="0"/><use href="#g59" x="5163.44" y="0"/><use href="#g60" x="6454.3" y="0"/><use href="#g61" x="7745.16" y="0"/><use href="#g62" x="9036.02" y="0"/><use href="#g63" x="10326.88" y="0"/><use href="#g64" x="11617.74" y="0"/><use href="#g56" x="12908.6" y="0"/><use href="#g53" x="14199.46" y="0"/><use href="#g12" x="15490.32" y="0"/><use href="#g65" x="18072.04" y="0"/><use href="#g65" x="19362.9" y="0"/><use href="#g65" x="20653.76" y="0"/><use href="#g65" x="21944.62" y="0"/><use href="#g65" x="23235.48" y="0"/><use href="#g65" x="24526.33" y="0"/><use href="#g65" x="25817.19" y="0"/><use href="#g65" x="27108.05" y="0"/><use href="#g65" x="28398.91" y="0"/><use href="#g65" x="29689.77" y="0"/><use href="#g65" x="30980.63" y="0"/><use href="#g65" x="32271.49" y="0"/><use href="#g65" x="33562.35" y="0"/><use href="#g65" x="34853.21" y="0"/><use href="#g65" x="36144.07" y="0"/><use href="#g65" x="37434.93" y="0"/><use href="#g65" x="38725.79" y="0"/><use href="#g65" x="40016.65" y="0"/><use href="#g65" x="41307.51" y="0"/><use href="#g65" x="42598.37" y="0"/><use href="#g65" x="43889.23" y="0"/><use href="#g65" x="45180.09" y="0"/><use href="#g65" x="46470.95" y="0"/><use href="#g65" x="47761.81" y="0"/><use href="#g65" x="49052.67" y="0"/><use href="#g65" x="50343.53" y="0"/><use href="#g65" x="51634.39" y="0"/><use href="#g65" x="52925.25" y="0"/><use href="#g65" x="54216.11" y="0"/><use href="#g65" x="55506.97" y="0"/><use href="#g65" x="56797.83" y="0"/><use href="#g65" x="58088.69" y="0"/><use href="#g65" x="59379.55" y="0"/><use href="#g65" x="60670.41" y="0"/><use href="#g65" x="61961.27" y="0"/><use href="#g65" x="63252.13" y="0"/><use href="#g65" x="64542.99" y="0"/></g></g><g transform="translate(16 72.57)" fill="rgb(230,237,243)" role="img" aria-label=" ## Error Handling"><title> ## Error Handling</title><g transform="scale(.00635 -.00635)"><use href="#g66" x="1336.34" y="0"/><use href="#g66" x="2672.68" y="0"/><use href="#g67" x="5345.37" y="0"/><use href="#g27" x="6681.71" y="0"/><use href="#g27" x="8018.05" y="0"/><use href="#g18" x="9354.39" y="0"/><use href="#g27" x="10690.74" y="0"/><use href="#g68" x="13363.42" y="0"/><use href="#g30" x="14699.76" y="0"/><use href="#g21" x="16036.1" y="0"/><use href="#g31" x="17372.44" y="0"/><use href="#g32" x="18708.79" y="0"/><use href="#g22" x="20045.13" y="0"/><use href="#g21" x="21381.47" y="0"/><use href="#g33" x="22717.81" y="0"/></g></g><g transform="translate(16 116.57)" fill="rgb(230,237,243)" role="img" aria-label=" - Always use typed errors extending AppError"><title> - Always use typed errors extending AppError</title><g transform="scale(.00635 -.00635)"><use href="#g10" x="1294.17" y="0"/><use href="#g61" x="3882.5" y="0"/><use href="#g13" x="5176.67" y="0"/><use href="#g39" x="6470.84" y="0"/><use href="#g5" x="7765.01" y="0"/><use href="#g40" x="9059.17" y="0"/><use href="#g2" x="10353.34" y="0"/><use href="#g38" x="12941.68" y="0"/><use href="#g2" x="14235.84" y="0"/><use href="#g4" x="15530.01" y="0"/><use href="#g37" x="18118.35" y="0"/><use href="#g40" x="19412.51" y="0"/><use href="#g41" x="20706.68" y="0"/><use href="#g4" x="22000.85" y="0"/><use href="#g12" x="23295.02" y="0"/><use href="#g4" x="25883.35" y="0"/><use href="#g6" x="27177.52" y="0"/><use href="#g6" x="28471.69" y="0"/><use href="#g9" x="29765.85" y="0"/><use href="#g6" x="31060.02" y="0"/><use href="#g2" x="32354.19" y="0"/><use href="#g4" x="34942.52" y="0"/><use href="#g69" x="36236.69" y="0"/><use href="#g37" x="37530.86" y="0"/><use href="#g4" x="38825.03" y="0"/><use href="#g11" x="40119.19" y="0"/><use href="#g12" x="41413.36" y="0"/><use href="#g14" x="42707.53" y="0"/><use href="#g11" x="44001.7" y="0"/><use href="#g15" x="45295.86" y="0"/><use href="#g61" x="47884.2" y="0"/><use href="#g41" x="49178.37" y="0"/><use href="#g41" x="50472.53" y="0"/><use href="#g64" x="51766.7" y="0"/><use href="#g6" x="53060.87" y="0"/><use href="#g6" x="54355.04" y="0"/><use href="#g9" x="55649.2" y="0"/><use href="#g6" x="56943.37" y="0"/></g></g><g transform="translate(16 138.57)" fill="rgb(230,237,243)" role="img" aria-label=" - Never catch and swallow errors silently"><title> - Never catch and swallow errors silently</title><g transform="scale(.00635 -.00635)"><use href="#g10" x="1296.18" y="0"/><use href="#g70" x="3888.53" y="0"/><use href="#g4" x="5184.7" y="0"/><use href="#g51" x="6480.88" y="0"/><use href="#g4" x="7777.05" y="0"/><use href="#g6" x="9073.23" y="0"/><use href="#g7" x="11665.58" y="0"/><use href="#g5" x="12961.76" y="0"/><use href="#g37" x="14257.93" y="0"/><use href="#g7" x="15554.11" y="0"/><use href="#g8" x="16850.29" y="0"/><use href="#g5" x="19442.64" y="0"/><use href="#g11" x="20738.81" y="0"/><use href="#g12" x="22034.99" y="0"/><use href="#g2" x="24627.34" y="0"/><use href="#g39" x="25923.52" y="0"/><use href="#g5" x="27219.69" y="0"/><use href="#g13" x="28515.87" y="0"/><use href="#g13" x="29812.04" y="0"/><use href="#g9" x="31108.22" y="0"/><use href="#g39" x="32404.4" y="0"/><use href="#g4" x="34996.75" y="0"/><use href="#g6" x="36292.92" y="0"/><use href="#g6" x="37589.1" y="0"/><use href="#g9" x="38885.27" y="0"/><use href="#g6" x="40181.45" y="0"/><use href="#g2" x="41477.63" y="0"/><use href="#g2" x="44069.98" y="0"/><use href="#g14" x="45366.15" y="0"/><use href="#g13" x="46662.33" y="0"/><use href="#g4" x="47958.51" y="0"/><use href="#g11" x="49254.68" y="0"/><use href="#g37" x="50550.86" y="0"/><use href="#g13" x="51847.03" y="0"/><use href="#g40" x="53143.21" y="0"/></g></g><g transform="translate(16 160.57)" fill="rgb(230,237,243)" role="img" aria-label=" - Use Result&lt;T, E&gt; for expected failures"><title> - Use Result&lt;T, E&gt; for expected failures</title><g transform="scale(.00635 -.00635)"><use href="#g10" x="1296.93" y="0"/><use href="#g62" x="3890.79" y="0"/><use href="#g2" x="5187.72" y="0"/><use href="#g4" x="6484.65" y="0"/><use href="#g71" x="9078.51" y="0"/><use href="#g4" x="10375.44" y="0"/><use href="#g2" x="11672.38" y="0"/><use href="#g38" x="12969.31" y="0"/><use href="#g13" x="14266.24" y="0"/><use href="#g37" x="15563.17" y="0"/><use href="#g72" x="16860.1" y="0"/><use href="#g73" x="18157.03" y="0"/><use href="#g49" x="19453.96" y="0"/><use href="#g64" x="22047.82" y="0"/><use href="#g74" x="23344.75" y="0"/><use href="#g75" x="25938.61" y="0"/><use href="#g9" x="27235.54" y="0"/><use href="#g6" x="28532.47" y="0"/><use href="#g4" x="31126.33" y="0"/><use href="#g69" x="32423.26" y="0"/><use href="#g41" x="33720.2" y="0"/><use href="#g4" x="35017.13" y="0"/><use href="#g7" x="36314.06" y="0"/><use href="#g37" x="37610.99" y="0"/><use href="#g4" x="38907.92" y="0"/><use href="#g12" x="40204.85" y="0"/><use href="#g75" x="42798.71" y="0"/><use href="#g5" x="44095.64" y="0"/><use href="#g14" x="45392.57" y="0"/><use href="#g13" x="46689.5" y="0"/><use href="#g38" x="47986.43" y="0"/><use href="#g6" x="49283.36" y="0"/><use href="#g4" x="50580.29" y="0"/><use href="#g2" x="51877.22" y="0"/></g></g></g></g></svg>