<?xml version="1.0" encoding="UTF-8"?>
<svg width="100px" height="100px" viewBox="0 0 100 100" version="1.1" xmlns="http://www.w3.org/2000/svg" xmlns:xlink="http://www.w3.org/1999/xlink">
    <title>logo</title>
    <defs>
        <linearGradient x1="50%" y1="0%" x2="50%" y2="100%" id="linearGradient-1">
            <stop stop-color="#EF4370" offset="0%"></stop>
            <stop stop-color="#B22B2B" offset="100%"></stop>
        </linearGradient>
        <linearGradient x1="0%" y1="0%" x2="100%" y2="100%" id="linearGradient-2">
            <stop stop-color="#8B5CF6" offset="0%"></stop>
            <stop stop-color="#EC4899" offset="100%"></stop>
        </linearGradient>
        <path d="M35.2,100 L64.8,100 C77.1211551,100 83.2817327,100 87.987791,97.6021435 C92.127357,95.4929293 95.4929293,92.127357 97.6021435,87.987791 C100,83.2817327 100,77.1211551 100,64.8 L100,35.2 C100,22.8788449 100,16.7182673 97.6021435,12.012209 C95.4929293,7.87264296 92.127357,4.50707072 87.987791,2.39785647 C83.2817327,-2.84217094e-14 77.1211551,-2.84217094e-14 64.8,-2.84217094e-14 L35.2,-2.84217094e-14 C22.8788449,-2.84217094e-14 16.7182673,-2.84217094e-14 12.012209,2.39785647 C7.87264296,4.50707072 4.50707072,7.87264296 2.39785647,12.012209 C0,16.7182673 0,22.8788449 0,35.2 L0,64.8 C0,77.1211551 0,83.2817327 2.39785647,87.987791 C4.50707072,92.127357 7.87264296,95.4929293 12.012209,97.6021435 C16.7182673,100 22.8788449,100 35.2,100 Z" id="path-3"></path>
        <linearGradient x1="0%" y1="0%" x2="100%" y2="0%" id="linearGradient-4">
            <stop stop-color="#FFFFFF" stop-opacity="0" offset="0%"></stop>
            <stop stop-color="#FFFFFF" offset="100%"></stop>
        </linearGradient>
        <linearGradient x1="0%" y1="0%" x2="100%" y2="0%" id="linearGradient-5">
            <stop stop-color="#FFFFFF" stop-opacity="0" offset="0%"></stop>
            <stop stop-color="#FFFFFF" offset="100%"></stop>
        </linearGradient>
        <linearGradient x1="0%" y1="0%" x2="100%" y2="0%" id="linearGradient-6">
            <stop stop-color="#FFFFFF" stop-opacity="0" offset="0%"></stop>
            <stop stop-color="#FFFFFF" offset="100%"></stop>
        </linearGradient>
        <filter x="-10.7%" y="-20.7%" width="121.4%" height="134.8%" filterUnits="objectBoundingBox" id="filter-7">
            <feOffset dx="0" dy="-2" in="SourceAlpha" result="shadowOffsetOuter1"></feOffset>
            <feGaussianBlur stdDeviation="0.5" in="shadowOffsetOuter1" result="shadowBlurOuter1"></feGaussianBlur>
            <feColorMatrix values="0 0 0 0 0   0 0 0 0 0   0 0 0 0 0  0 0 0 0.1 0" type="matrix" in="shadowBlurOuter1" result="shadowMatrixOuter1"></feColorMatrix>
            <feMerge>
                <feMergeNode in="shadowMatrixOuter1"></feMergeNode>
                <feMergeNode in="SourceGraphic"></feMergeNode>
            </feMerge>
        </filter>
    </defs>
    <g id="logo" stroke="none" fill="none" fill-rule="evenodd">
        <g id="Path">
            <use fill="url(#linearGradient-1)" xlink:href="#path-3"></use>
            <use fill="url(#linearGradient-2)" xlink:href="#path-3"></use>
        </g>
        <g id="Group-6" opacity="0.1" stroke-width="1" transform="translate(14.96, 49.64) scale(1, -1) translate(-14.96, -49.64)translate(-20.04, 26.64)">
            <path d="M59.2281512,-0.804093295 L74.076636,20.1049976 C75.307788,21.8386606 75.307788,24.1613394 74.076636,25.8950024 L59.2281512,46.8040933 C58.2903999,48.1246002 56.7711188,48.9090909 55.1515152,48.9090909 L50.1515152,48.9090909 C46.0909324,48.9090909 43.7237998,44.3247921 46.0748791,41.0140885 L58.8674927,23 L46.0748791,4.98591148 C44.4760135,2.73444758 45.0050489,-0.386861254 47.2565128,-1.98572692 C48.9015576,-3.15394719 51.0109759,-3.18617107 52.6494654,-2.2359644 C54.8581485,-3.51883331 57.7202335,-2.92748749 59.2281512,-0.804093295 Z" id="Path" fill="url(#linearGradient-4)" fill-rule="nonzero"></path>
            <path d="M46.1825878,1.33330673 L33.4553151,47.3333067 C32.8558787,49.4998411 30.884295,51 28.6363636,51 L23.6363636,51 C20.3318697,51 17.9362314,47.8515325 18.8174122,44.6666933 L31.5446849,-1.33330673 C32.1441213,-3.49984115 34.115705,-5 36.3636364,-5 L41.3636363,-5 C44.6681303,-5 47.0637686,-1.85153248 46.1825878,1.33330673 Z" id="Path" fill="url(#linearGradient-5)" fill-rule="nonzero"></path>
        </g>
        <g id="Group-5" opacity="0.14" stroke-width="1" transform="translate(19.96, 49.64) scale(1, -1) translate(-19.96, -49.64)translate(-15.04, 26.64)">
            <path d="M17.7434872,-1.98572692 C19.9949511,-0.386861254 20.5239865,2.73444758 18.9251209,4.98591148 L6.13250724,23 L18.9251209,41.0140885 C21.2762002,44.3247921 18.9090676,48.9090909 14.8484848,48.9090909 L9.84848485,48.9090909 C8.22888116,48.9090909 6.70960014,48.1246002 5.77184884,46.8040933 L-9.07663601,25.8950024 C-10.307788,24.1613394 -10.307788,21.8386606 -9.07663601,20.1049976 L5.77184884,-0.804093295 C6.77712725,-2.21968943 8.93367462,-2.92130621 12.241491,-2.90894365 C14.8127919,-3.07227934 16.6467907,-2.76454043 17.7434872,-1.98572692 Z" id="Path" fill="url(#linearGradient-6)" fill-rule="nonzero"></path>
            <path d="M59.2281512,-0.804093295 L74.076636,20.1049976 C75.307788,21.8386606 75.307788,24.1613394 74.076636,25.8950024 L59.2281512,46.8040933 C58.2903999,48.1246002 56.7711188,48.9090909 55.1515152,48.9090909 L50.1515152,48.9090909 C46.0909324,48.9090909 43.7237998,44.3247921 46.0748791,41.0140885 L58.8674927,23 L46.0748791,4.98591148 C44.4760135,2.73444758 45.0050489,-0.386861254 47.2565128,-1.98572692 C48.9015576,-3.15394719 51.0109759,-3.18617107 52.6494654,-2.2359644 C54.8581485,-3.51883331 57.7202335,-2.92748749 59.2281512,-0.804093295 Z" id="Path" fill="url(#linearGradient-4)" fill-rule="nonzero"></path>
            <path d="M46.1825878,1.33330673 L33.4553151,47.3333067 C32.8558787,49.4998411 30.884295,51 28.6363636,51 L23.6363636,51 C20.3318697,51 17.9362314,47.8515325 18.8174122,44.6666933 L31.5446849,-1.33330673 C32.1441213,-3.49984115 34.115705,-5 36.3636364,-5 L41.3636363,-5 C44.6681303,-5 47.0637686,-1.85153248 46.1825878,1.33330673 Z" id="Path" fill="url(#linearGradient-5)" fill-rule="nonzero"></path>
        </g>
        <g id="Group-4" opacity="0.18" stroke-width="1" transform="translate(24.96, 49.64) scale(1, -1) translate(-24.96, -49.64)translate(-10.04, 26.64)">
            <path d="M17.7434872,-1.98572692 C19.9949511,-0.386861254 20.5239865,2.73444758 18.9251209,4.98591148 L6.13250724,23 L18.9251209,41.0140885 C21.2762002,44.3247921 18.9090676,48.9090909 14.8484848,48.9090909 L9.84848485,48.9090909 C8.22888116,48.9090909 6.70960014,48.1246002 5.77184884,46.8040933 L-9.07663601,25.8950024 C-10.307788,24.1613394 -10.307788,21.8386606 -9.07663601,20.1049976 L5.77184884,-0.804093295 C6.77712725,-2.21968943 8.93367462,-2.92130621 12.241491,-2.90894365 C14.8127919,-3.07227934 16.6467907,-2.76454043 17.7434872,-1.98572692 Z" id="Path" fill="url(#linearGradient-6)" fill-rule="nonzero"></path>
            <path d="M59.2281512,-0.804093295 L74.076636,20.1049976 C75.307788,21.8386606 75.307788,24.1613394 74.076636,25.8950024 L59.2281512,46.8040933 C58.2903999,48.1246002 56.7711188,48.9090909 55.1515152,48.9090909 L50.1515152,48.9090909 C46.0909324,48.9090909 43.7237998,44.3247921 46.0748791,41.0140885 L58.8674927,23 L46.0748791,4.98591148 C44.4760135,2.73444758 45.0050489,-0.386861254 47.2565128,-1.98572692 C48.9015576,-3.15394719 51.0109759,-3.18617107 52.6494654,-2.2359644 C54.8581485,-3.51883331 57.7202335,-2.92748749 59.2281512,-0.804093295 Z" id="Path" fill="url(#linearGradient-4)" fill-rule="nonzero"></path>
            <path d="M46.1825878,1.33330673 L33.4553151,47.3333067 C32.8558787,49.4998411 30.884295,51 28.6363636,51 L23.6363636,51 C20.3318697,51 17.9362314,47.8515325 18.8174122,44.6666933 L31.5446849,-1.33330673 C32.1441213,-3.49984115 34.115705,-5 36.3636364,-5 L41.3636363,-5 C44.6681303,-5 47.0637686,-1.85153248 46.1825878,1.33330673 Z" id="Path" fill="url(#linearGradient-5)" fill-rule="nonzero"></path>
        </g>
        <g id="Group-3" opacity="0.22" stroke-width="1" transform="translate(29.96, 49.64) scale(1, -1) translate(-29.96, -49.64)translate(-5.04, 26.64)">
            <path d="M17.7434872,-1.98572692 C19.9949511,-0.386861254 20.5239865,2.73444758 18.9251209,4.98591148 L6.13250724,23 L18.9251209,41.0140885 C21.2762002,44.3247921 18.9090676,48.9090909 14.8484848,48.9090909 L9.84848485,48.9090909 C8.22888116,48.9090909 6.70960014,48.1246002 5.77184884,46.8040933 L-9.07663601,25.8950024 C-10.307788,24.1613394 -10.307788,21.8386606 -9.07663601,20.1049976 L5.77184884,-0.804093295 C6.77712725,-2.21968943 8.93367462,-2.92130621 12.241491,-2.90894365 C14.8127919,-3.07227934 16.6467907,-2.76454043 17.7434872,-1.98572692 Z" id="Path" fill="url(#linearGradient-6)" fill-rule="nonzero"></path>
            <path d="M59.2281512,-0.804093295 L74.076636,20.1049976 C75.307788,21.8386606 75.307788,24.1613394 74.076636,25.8950024 L59.2281512,46.8040933 C58.2903999,48.1246002 56.7711188,48.9090909 55.1515152,48.9090909 L50.1515152,48.9090909 C46.0909324,48.9090909 43.7237998,44.3247921 46.0748791,41.0140885 L58.8674927,23 L46.0748791,4.98591148 C44.4760135,2.73444758 45.0050489,-0.386861254 47.2565128,-1.98572692 C48.9015576,-3.15394719 51.0109759,-3.18617107 52.6494654,-2.2359644 C54.8581485,-3.51883331 57.7202335,-2.92748749 59.2281512,-0.804093295 Z" id="Path" fill="url(#linearGradient-4)" fill-rule="nonzero"></path>
            <path d="M46.1825878,1.33330673 L33.4553151,47.3333067 C32.8558787,49.4998411 30.884295,51 28.6363636,51 L23.6363636,51 C20.3318697,51 17.9362314,47.8515325 18.8174122,44.6666933 L31.5446849,-1.33330673 C32.1441213,-3.49984115 34.115705,-5 36.3636364,-5 L41.3636363,-5 C44.6681303,-5 47.0637686,-1.85153248 46.1825878,1.33330673 Z" id="Path" fill="url(#linearGradient-5)" fill-rule="nonzero"></path>
        </g>
        <g id="Group-2" opacity="0.26" stroke-width="1" transform="translate(34.96, 49.64) scale(1, -1) translate(-34.96, -49.64)translate(-0.04, 26.64)">
            <path d="M17.7434872,-1.98572692 C19.9949511,-0.386861254 20.5239865,2.73444758 18.9251209,4.98591148 L6.13250724,23 L18.9251209,41.0140885 C21.2762002,44.3247921 18.9090676,48.9090909 14.8484848,48.9090909 L9.84848485,48.9090909 C8.22888116,48.9090909 6.70960014,48.1246002 5.77184884,46.8040933 L-9.07663601,25.8950024 C-10.307788,24.1613394 -10.307788,21.8386606 -9.07663601,20.1049976 L5.77184884,-0.804093295 C6.77712725,-2.21968943 8.93367462,-2.92130621 12.241491,-2.90894365 C14.8127919,-3.07227934 16.6467907,-2.76454043 17.7434872,-1.98572692 Z" id="Path" fill="url(#linearGradient-6)" fill-rule="nonzero"></path>
            <path d="M59.2281512,-0.804093295 L74.076636,20.1049976 C75.307788,21.8386606 75.307788,24.1613394 74.076636,25.8950024 L59.2281512,46.8040933 C58.2903999,48.1246002 56.7711188,48.9090909 55.1515152,48.9090909 L50.1515152,48.9090909 C46.0909324,48.9090909 43.7237998,44.3247921 46.0748791,41.0140885 L58.8674927,23 L46.0748791,4.98591148 C44.4760135,2.73444758 45.0050489,-0.386861254 47.2565128,-1.98572692 C48.9015576,-3.15394719 51.0109759,-3.18617107 52.6494654,-2.2359644 C54.8581485,-3.51883331 57.7202335,-2.92748749 59.2281512,-0.804093295 Z" id="Path" fill="url(#linearGradient-4)" fill-rule="nonzero"></path>
            <path d="M46.1825878,1.33330673 L33.4553151,47.3333067 C32.8558787,49.4998411 30.884295,51 28.6363636,51 L23.6363636,51 C20.3318697,51 17.9362314,47.8515325 18.8174122,44.6666933 L31.5446849,-1.33330673 C32.1441213,-3.49984115 34.115705,-5 36.3636364,-5 L41.3636363,-5 C44.6681303,-5 47.0637686,-1.85153248 46.1825878,1.33330673 Z" id="Path" fill="url(#linearGradient-5)" fill-rule="nonzero"></path>
        </g>
        <g id="Group" filter="url(#filter-7)" opacity="0.99" stroke-width="1" transform="translate(49.96, 49.64) scale(1, -1) translate(-49.96, -49.64)translate(14.96, 26.64)" stroke="#FFFFFF" stroke-linecap="round" stroke-linejoin="round">
            <polyline id="Path" stroke-width="10" points="14.8484848 2.09090909 0 23 14.8484848 43.9090909"></polyline>
            <polyline id="Path" stroke-width="10" points="55.1515152 2.09090909 70 23 55.1515152 43.9090909"></polyline>
            <line x1="41.3636364" y1="0" x2="28.6363636" y2="46" id="Path" stroke-width="10"></line>
        </g>
    </g>
</svg>